<svg width="40" height="48" viewBox="0 0 40 48" fill="none" xmlns="http://www.w3.org/2000/svg">
<path d="M39.8143 20.2949C39.8143 9.35087 30.9439 0.480469 19.9999 0.480469C9.05595 0.480469 0.185547 9.35087 0.185547 20.2949C0.185547 26.4629 3.00315 31.9733 7.42395 35.6069L17.6623 46.3493C18.1903 47.0597 19.0351 47.5205 19.9855 47.5205C20.8639 47.5205 21.6511 47.1269 22.1791 46.5125L32.9359 35.2997C33.8815 34.4837 34.7455 33.5813 35.5231 32.6021L35.9599 32.1461H35.8735C38.3503 28.8437 39.8143 24.7397 39.8143 20.2949ZM19.9951 30.1301C13.9327 30.1301 9.02235 25.2197 9.02235 19.1573C9.02235 13.0949 13.9327 8.18447 19.9951 8.18447C26.0527 8.18447 30.9679 13.0949 30.9679 19.1573C30.9679 25.2197 26.0575 30.1301 19.9951 30.1301Z" fill="#C69247"/>
</svg>
