<svg width="30" height="30" viewBox="0 0 30 30" fill="none" xmlns="http://www.w3.org/2000/svg">
<g clip-path="url(#clip0_319_1136)">
<path d="M21.0008 3.15039H8.40078C7.24098 3.15039 6.30078 4.09059 6.30078 5.25039V15.7504C6.30078 16.9102 7.24098 17.8504 8.40078 17.8504H21.0008C22.1606 17.8504 23.1008 16.9102 23.1008 15.7504V5.25039C23.1008 4.09059 22.1606 3.15039 21.0008 3.15039Z" stroke="black" stroke-width="2" stroke-linecap="round" stroke-linejoin="round"/>
<path d="M6.30078 9.44922H3.15078C2.59383 9.44922 2.05968 9.67047 1.66586 10.0643C1.27203 10.4581 1.05078 10.9923 1.05078 11.5492V20.9992C1.05078 21.5562 1.27203 22.0903 1.66586 22.4841C2.05968 22.878 2.59383 23.0992 3.15078 23.0992H26.2508C26.8077 23.0992 27.3419 22.878 27.7357 22.4841C28.1295 22.0903 28.3508 21.5562 28.3508 20.9992V11.5492C28.3508 10.9923 28.1295 10.4581 27.7357 10.0643C27.3419 9.67047 26.8077 9.44922 26.2508 9.44922H23.1008M8.40078 23.0992L7.35078 28.3492M21.0008 23.0992L22.0508 28.3492" stroke="black" stroke-width="2" stroke-linecap="round" stroke-linejoin="round"/>
</g>
<defs>
<clipPath id="clip0_319_1136">
<rect width="29.4" height="29.4" fill="white"/>
</clipPath>
</defs>
</svg>
