<svg width="171" height="66" viewBox="0 0 171 66" fill="none" xmlns="http://www.w3.org/2000/svg">
<path d="M116.886 40.3208C121.711 35.6828 122.533 28.2396 122.122 27.8281C122.122 27.8281 117.746 31.0822 110.452 33.9997C104.281 36.4309 105.178 45.7817 105.178 45.7817C105.178 45.7817 112.098 44.9588 116.886 40.3208Z" fill="url(#paint0_linear_0_24898)"/>
<path d="M104.991 45.9688V45.7817C104.991 45.6695 104.131 36.2813 110.377 33.8127C117.559 30.9701 121.972 27.716 122.01 27.6786L122.122 27.5664L122.234 27.6786C122.309 27.7534 122.384 27.903 122.384 28.3893C122.384 30.5212 121.075 36.5432 116.998 40.4331C112.21 45.0711 105.253 45.9314 105.178 45.9314L104.991 45.9688ZM122.047 28.1275C121.075 28.8007 116.886 31.6433 110.527 34.1494C105.029 36.3187 105.291 44.2108 105.365 45.5573C106.525 45.3703 112.509 44.2856 116.773 40.2087C121.112 36.0195 122.197 29.3992 122.047 28.1275Z" fill="url(#paint1_linear_0_24898)"/>
<path d="M102.335 50.2693C99.9415 50.0075 97.6226 50.2693 95.6402 50.7556C97.1363 49.7831 98.7072 48.5114 99.979 46.903C104.168 41.7414 104.056 34.2233 103.607 33.8867C103.607 33.8867 99.6797 37.6271 92.7975 41.3674C86.9626 44.5466 89.0572 53.673 89.0572 53.673C89.0572 53.673 89.3938 53.5982 89.9549 53.4112C91.1518 55.0195 95.7524 60.63 101.288 59.0964C108.881 57.0019 114.379 56.9271 114.379 56.9271C114.454 56.366 109.068 51.0174 102.335 50.2693Z" fill="url(#paint2_linear_0_24898)"/>
<path d="M118.307 43.6855C111.574 42.9374 105.627 46.4159 105.627 46.4159C105.627 46.4159 110.826 54.308 117.259 52.5126C124.852 50.4181 130.35 50.3433 130.35 50.3433C130.425 49.8196 125.002 44.471 118.307 43.6855Z" fill="url(#paint3_linear_0_24898)"/>
<path d="M133.231 38.6748C130.874 38.413 128.63 38.787 126.797 39.3481C128.219 38.3382 129.789 36.9169 130.912 35.0467C133.455 30.7454 132.408 25.0601 131.996 24.873C131.996 24.873 129.49 28.0897 124.665 31.6056C121.262 34.1116 122.683 39.2733 123.244 40.8068C122.87 40.9938 122.683 41.106 122.683 41.106C122.683 41.106 126.984 47.876 132.333 46.3425C138.654 44.5097 143.217 44.4349 143.217 44.4349C143.292 43.9113 138.804 39.3107 133.231 38.6748Z" fill="url(#paint4_linear_0_24898)"/>
<path d="M145.76 32.1657C143.479 31.9039 141.272 32.3153 139.551 32.8389C140.674 31.3802 141.87 29.3978 142.394 27.0788C143.479 22.0668 140.599 16.8678 140.15 16.793C140.15 16.793 138.729 20.7203 135.175 25.6201C133.006 28.575 134.951 32.3901 136.185 34.2603C135.998 34.3725 135.923 34.4099 135.923 34.4099C135.923 34.4099 139.926 40.731 144.938 39.2723C150.847 37.5517 155.111 37.4769 155.111 37.4769C155.149 37.0655 150.997 32.7641 145.76 32.1657Z" fill="url(#paint5_linear_0_24898)"/>
<path d="M153.428 26.0701C151.071 26.0327 148.939 26.8182 147.443 27.5662C148.341 26.1823 149.425 24.0129 149.575 21.5069C149.799 17.1682 146.732 13.2034 146.321 13.166C146.321 13.166 145.648 16.6445 143.329 21.1703C141.795 24.1625 144.413 27.3044 145.648 28.5761C145.461 28.7257 145.349 28.8005 145.349 28.8005C145.349 28.8005 149.313 33.7752 153.39 32.1294C158.178 30.147 161.806 29.7356 161.806 29.7356C161.806 29.3616 157.879 26.1075 153.428 26.0701Z" fill="url(#paint6_linear_0_24898)"/>
<path d="M158.926 19.0384C157.281 19.3002 155.859 20.0109 154.775 20.7215C155.336 19.5246 155.822 17.9911 155.784 16.2706C155.71 12.605 152.83 9.42578 152.493 9.42578C152.493 9.42578 152.156 12.3806 150.511 16.3828C149.463 18.8514 151.595 21.2826 152.755 22.3673C152.68 22.4421 152.643 22.5169 152.643 22.5169C152.643 22.5169 156.72 26.1076 159.861 24.1626C163.564 21.8436 166.519 20.9834 166.519 20.9834C166.37 20.6093 162.629 18.4399 158.926 19.0384Z" fill="url(#paint7_linear_0_24898)"/>
<path d="M158.253 15.0361C158.216 15.0735 158.179 15.1109 158.179 15.1109C158.179 15.1109 161.62 18.4024 164.275 16.7193C167.455 14.6995 169.923 13.9888 169.923 13.9888C169.886 13.6896 166.707 11.6699 163.565 12.1561C161.844 12.4179 160.385 13.2782 159.413 14.0263C159.862 12.979 160.311 11.408 160.124 9.76228C159.75 6.80743 157.019 4.48843 156.72 4.52584C156.72 4.52584 156.682 6.95704 155.635 10.3233C154.887 12.4927 157.206 14.3255 158.253 15.0361Z" fill="url(#paint8_linear_0_24898)"/>
<path d="M99.3433 59.5457C94.7427 59.5457 91.0772 55.2443 89.8803 53.636C89.394 53.7856 89.0948 53.8604 89.0948 53.8604L88.9078 53.8978L88.8704 53.7108C88.833 53.636 86.8132 44.3974 92.7229 41.1808C99.4929 37.5152 103.458 33.7375 103.495 33.7001L103.607 33.5879L103.719 33.7001C103.794 33.7749 103.906 33.8871 103.944 34.3733C104.243 36.5053 103.645 42.6021 100.129 46.9782C99.1563 48.2126 97.922 49.3346 96.5006 50.3071C98.5204 49.9331 100.465 49.8209 102.336 50.0453C108.021 50.6811 112.883 54.6085 114.23 56.2916C114.529 56.6656 114.566 56.8153 114.566 56.9275L114.529 57.0771H114.379C114.342 57.0771 108.806 57.1519 101.326 59.2465C100.652 59.4709 99.9791 59.5457 99.3433 59.5457ZM90.0299 53.1872L90.1047 53.2994C91.339 54.9825 95.8648 60.406 101.213 58.9098C107.834 57.0771 112.958 56.7779 114.118 56.7405C113.482 55.6932 108.395 51.0926 102.298 50.4193C100.204 50.1949 97.9968 50.3445 95.6778 50.8681L94.6305 51.13L95.5282 50.5689C97.2487 49.4468 98.7074 48.1751 99.8295 46.7538C103.607 42.0784 103.832 35.3832 103.532 34.1489C102.672 34.9344 98.8571 38.2633 92.8725 41.5173C87.6735 44.3226 88.9452 52.1399 89.1696 53.449C89.3192 53.4116 89.5811 53.3368 89.8803 53.2246L90.0299 53.1872Z" fill="url(#paint9_linear_0_24898)"/>
<path d="M115.352 53.0003C113.22 53.0003 111.051 52.1026 108.919 50.3073C106.824 48.5493 105.477 46.567 105.477 46.5296L105.365 46.3799L105.515 46.2678C105.59 46.2304 111.612 42.7518 118.307 43.4999C123.992 44.1358 128.854 48.0631 130.201 49.7462C130.5 50.1203 130.538 50.2699 130.538 50.3821L130.5 50.5317H130.351C130.313 50.5317 124.777 50.6065 117.297 52.7011C116.661 52.9255 115.988 53.0003 115.352 53.0003ZM105.889 46.4922C106.674 47.5769 111.499 53.9354 117.185 52.3644C123.805 50.5317 128.929 50.2325 130.089 50.1951C129.453 49.1478 124.366 44.5472 118.269 43.8739C112.322 43.2007 106.899 45.9685 105.889 46.4922Z" fill="url(#paint10_linear_0_24898)"/>
<path d="M130.724 46.7169C126.086 46.7169 122.57 41.256 122.532 41.1812L122.42 41.0316L122.57 40.9194C122.57 40.9194 122.719 40.8072 123.019 40.6576C122.458 38.937 121.149 33.8876 124.59 31.3816C129.302 27.9405 131.846 24.7238 131.883 24.6864L131.995 24.5742L132.145 24.649C132.22 24.6864 132.332 24.7986 132.444 25.2101C132.931 26.8558 133.23 31.4564 131.135 35.0845C130.312 36.4684 129.19 37.7401 127.732 38.8622C129.676 38.376 131.547 38.2638 133.305 38.4508C137.98 38.9744 141.945 42.2285 143.142 43.762C143.441 44.1361 143.478 44.2857 143.441 44.3979L143.403 44.5475H143.254C143.216 44.5475 138.616 44.6223 132.407 46.4551C131.808 46.6421 131.247 46.7169 130.724 46.7169ZM122.944 41.1438C123.617 42.1537 127.582 47.5024 132.257 46.1184C137.681 44.5475 141.907 44.2483 142.955 44.2109C142.356 43.2758 138.242 39.4233 133.192 38.8622C131.21 38.6378 129.078 38.8622 126.834 39.5355L125.749 39.8721L126.647 39.2362C128.405 38.0019 129.789 36.5432 130.686 34.9723C132.968 31.0824 132.332 26.2199 131.921 25.1727C131.285 25.9207 128.816 28.7634 124.739 31.7182C121.41 34.1494 122.832 39.2362 123.355 40.7324L123.393 40.882L123.243 40.9568C123.168 41.0316 123.019 41.1064 122.944 41.1438Z" fill="url(#paint11_linear_0_24898)"/>
<path d="M143.441 39.6832C139.103 39.6832 135.811 34.559 135.774 34.5216L135.662 34.372L135.811 34.2598C135.811 34.2598 135.849 34.2224 135.923 34.185C134.614 32.1278 132.856 28.4623 135.026 25.5074C138.504 20.6824 139.963 16.7925 139.963 16.7551L140 16.6055L140.15 16.6429C140.262 16.6429 140.374 16.7177 140.636 17.0917C141.646 18.5505 143.441 22.964 142.544 27.1158C142.132 28.9485 141.309 30.7439 140 32.5018C141.983 31.9408 143.928 31.7912 145.723 31.9782C150.062 32.4644 153.802 35.5315 154.924 36.9154C155.223 37.2894 155.223 37.4391 155.223 37.5139L155.186 37.6635H155.036C154.999 37.6635 150.698 37.7383 144.9 39.4214C144.451 39.6084 143.928 39.6832 143.441 39.6832ZM136.185 34.4842C136.858 35.4193 140.487 40.3939 144.863 39.1222C149.912 37.6635 153.802 37.4016 154.812 37.3268C154.214 36.4292 150.361 32.8759 145.723 32.3522C143.815 32.1278 141.758 32.3522 139.589 33.0255L139.028 33.2125L139.402 32.7636C140.823 30.9309 141.796 29.0233 142.207 27.0784C143.18 22.6648 140.935 17.9894 140.225 17.1291C139.851 18.0642 138.355 21.5801 135.325 25.7319C133.23 28.6119 135.063 32.24 136.335 34.185L136.447 34.3346L136.26 34.4468C136.26 34.4468 136.223 34.4842 136.185 34.4842Z" fill="url(#paint12_linear_0_24898)"/>
<path d="M151.633 32.6529C148.229 32.6529 145.349 29.0996 145.199 28.9126L145.087 28.7629L145.237 28.6507C145.237 28.6507 145.274 28.6133 145.386 28.5385C144.114 27.192 141.683 24.0502 143.179 21.0579C145.461 16.6069 146.134 13.1284 146.134 13.091L146.172 12.9414H146.321C146.396 12.9414 146.546 12.9788 146.808 13.278C147.855 14.4001 149.949 17.8412 149.762 21.4693C149.65 23.7135 148.752 25.6959 147.93 27.0798C149.314 26.4439 151.259 25.8081 153.428 25.8455C157.131 25.8829 160.572 28.1271 161.657 29.2118C161.956 29.511 161.993 29.6232 161.956 29.698V29.8476L161.806 29.885C161.769 29.885 158.178 30.3339 153.465 32.2789C152.829 32.5407 152.231 32.6529 151.633 32.6529ZM145.611 28.8378C146.284 29.6232 149.8 33.4009 153.316 31.9422C157.355 30.2965 160.609 29.698 161.507 29.5858C160.871 28.8752 157.355 26.2569 153.428 26.2195C153.39 26.2195 153.353 26.2195 153.353 26.2195C151.034 26.2195 148.902 27.005 147.556 27.6783L146.957 27.9775L147.331 27.4164C148.191 26.0699 149.276 23.9005 149.426 21.4693C149.613 17.6916 147.219 14.1757 146.471 13.4651C146.284 14.3627 145.461 17.4672 143.553 21.2449C142.095 24.125 144.638 27.2668 145.835 28.4637L145.985 28.6133L145.798 28.7256C145.723 28.8004 145.648 28.8378 145.611 28.8378Z" fill="url(#paint13_linear_0_24898)"/>
<path d="M157.655 24.9099C155.036 24.9099 152.568 22.7405 152.456 22.6283L152.306 22.5161L152.418 22.3665C151.109 21.1322 149.239 18.7758 150.249 16.3072C151.895 12.3799 152.231 9.42501 152.231 9.42501V9.27539H152.381C152.456 9.27539 152.568 9.3128 152.83 9.53722C153.802 10.3975 155.784 13.2027 155.859 16.3072C155.897 17.5789 155.635 18.9254 155.074 20.2719C156.308 19.5613 157.542 19.075 158.814 18.888C161.919 18.4018 165.135 19.7857 166.22 20.5337C166.519 20.7208 166.557 20.833 166.557 20.9078L166.594 21.0574L166.444 21.0948C166.407 21.0948 163.49 21.9925 159.824 24.2741C159.151 24.7229 158.403 24.9099 157.655 24.9099ZM152.83 22.4787C153.578 23.0772 157.019 25.6206 159.674 23.9748C162.741 22.0673 165.322 21.0948 166.108 20.833C165.397 20.3093 162.143 18.701 158.926 19.2246C157.542 19.449 156.158 20.0101 154.849 20.8704L154.326 21.207L154.588 20.646C155.261 19.1498 155.597 17.6911 155.56 16.2698C155.485 13.1279 153.316 10.3227 152.605 9.72423C152.493 10.5471 152.007 13.1653 150.623 16.4568C149.65 18.8132 151.595 21.0948 152.83 22.2169L152.979 22.3291L152.83 22.4787Z" fill="url(#paint14_linear_0_24898)"/>
<path d="M162.554 17.3542C160.31 17.3542 158.141 15.3344 158.029 15.2222L157.917 15.11L157.954 15.0726C156.832 14.2871 154.7 12.4544 155.41 10.2476C156.458 6.95611 156.495 4.56231 156.495 4.52491V4.37531L156.645 4.33789C156.72 4.33789 156.832 4.3379 157.131 4.56232C157.879 5.12337 159.899 7.10574 160.235 9.72396C160.423 11.1453 160.123 12.4918 159.749 13.5017C160.684 12.8658 161.956 12.1926 163.452 11.9681C166.22 11.5567 168.876 12.978 169.661 13.5391C169.96 13.7635 170.035 13.8757 170.035 13.9505L170.073 14.1001L169.923 14.1375C169.886 14.1375 167.417 14.8856 164.312 16.8306C163.789 17.2046 163.153 17.3542 162.554 17.3542ZM158.44 15.0726C159.076 15.6337 161.956 17.9527 164.163 16.5313C166.744 14.8856 168.913 14.1001 169.624 13.8757C168.988 13.3895 166.257 11.9307 163.602 12.3048C161.881 12.5666 160.46 13.4269 159.525 14.1375L158.964 14.5864L159.226 13.9505C159.674 12.9406 160.123 11.4071 159.899 9.76135C159.562 7.21794 157.505 5.27297 156.832 4.78673C156.794 5.5348 156.607 7.62937 155.747 10.3224C155.074 12.417 157.318 14.2123 158.291 14.8482L158.478 14.9604L158.44 15.0726Z" fill="url(#paint15_linear_0_24898)"/>
<path d="M162.816 7.70508C161.806 9.65004 160.647 11.5576 159.413 13.4278C158.216 15.2605 156.869 17.0559 155.448 18.739C152.643 22.1427 149.389 25.2472 145.873 27.9028C144.115 29.2493 142.282 30.4836 140.374 31.6431C134.727 35.0468 128.293 37.5528 121.972 39.6474C117.708 41.0687 113.369 42.303 109.031 43.6869C108.507 43.874 107.946 44.0236 107.422 44.2106C103.607 45.4449 99.8668 46.8288 96.2387 48.512C94.1815 49.4844 92.1243 50.5317 90.1419 51.6912C88.1596 52.8507 86.252 54.1224 84.4567 55.5063L83.1101 56.5536C80.0805 58.9475 77.2752 62.0893 75.1807 65.3434C75.2929 65.493 75.9661 65.7922 76.0783 65.6426C78.6592 62.8748 81.1278 60.1069 84.1948 57.9002L85.5788 57.0025C87.4489 55.8056 89.3565 54.7209 91.3388 53.711C93.3212 52.7011 95.341 51.7286 97.3982 50.9058C99.4553 50.0081 101.513 49.2226 103.607 48.4371L105.178 47.8387L106.749 47.2776C107.796 46.9036 108.844 46.5296 109.928 46.1555C114.155 44.6594 118.456 43.2007 122.72 41.6672C125.937 40.5077 129.116 39.236 132.221 37.8146L133.006 37.4406C135.325 36.3559 137.607 35.159 139.813 33.8499L141.272 32.9522C143.18 31.7179 145.012 30.3714 146.77 28.9501C151.969 24.6487 156.495 19.4497 159.974 13.727C161.133 11.8194 162.18 9.83707 163.116 7.8547L162.816 7.70508Z" fill="url(#paint16_linear_0_24898)"/>
<path d="M75.9659 65.8672H75.9285C75.6667 65.8672 75.1805 65.6427 75.0309 65.4557L74.9561 65.3435L75.0309 65.2313C77.1628 61.9024 80.0055 58.7605 83.0351 56.4041L84.3817 55.3568C86.2892 53.8981 88.2342 52.6264 90.1043 51.5417C91.8249 50.5318 93.7699 49.5219 96.2011 48.3625C99.4177 46.8663 102.971 45.4824 107.385 44.0237L107.609 43.9489C108.095 43.7992 108.544 43.6497 109.03 43.5C110.526 43.0512 112.023 42.565 113.519 42.1161C116.287 41.2559 119.167 40.3956 121.972 39.4605C126.834 37.8522 134.016 35.2339 140.337 31.4562C142.207 30.3341 144.04 29.0998 145.835 27.7533C149.463 24.9855 152.68 21.9184 155.373 18.5895C156.906 16.7568 158.216 14.9988 159.338 13.2783C160.572 11.4455 161.694 9.53795 162.704 7.59298L162.779 7.44336L163.34 7.70519L163.265 7.85481C162.33 9.87458 161.283 11.8569 160.123 13.7645C156.682 19.4872 152.231 24.6114 146.882 29.025C145.087 30.4837 143.254 31.8302 141.347 33.0271L139.888 33.9248C137.494 35.3462 135.287 36.543 133.081 37.5529C133.006 37.5903 132.819 37.6651 132.295 37.927C129.527 39.1987 126.423 40.4704 122.795 41.7795C120.326 42.6772 117.858 43.5375 115.426 44.3603C113.594 44.9962 111.798 45.632 110.003 46.2679C109.03 46.6045 108.058 46.9785 107.085 47.3151L105.253 47.9884L103.682 48.5869C101.812 49.2975 99.6048 50.1204 97.4728 51.0555C95.5278 51.8409 93.6576 52.7386 91.4135 53.8607C89.6181 54.7584 87.7479 55.8431 85.6908 57.1522L84.3069 58.0499C81.539 60.0323 79.2948 62.426 76.901 65.0069L76.1904 65.7549C76.153 65.8297 76.0782 65.8672 75.9659 65.8672ZM75.4049 65.3435C75.5545 65.4183 75.8163 65.5305 75.9285 65.5305L76.6018 64.7825C78.8834 62.3139 81.2398 59.7704 84.045 57.788L85.4289 56.8904C87.5235 55.5813 89.3937 54.4966 91.189 53.5989C93.4332 52.4768 95.3034 51.5791 97.2484 50.7937C99.3803 49.8586 101.587 49.0357 103.457 48.3251L106.861 47.0907C107.833 46.7541 108.806 46.3801 109.778 46.0435C111.574 45.4076 113.407 44.7717 115.202 44.1359C117.633 43.313 120.102 42.4154 122.57 41.5551C126.198 40.246 129.303 39.0116 132.033 37.7399C132.033 37.7399 132.781 37.4033 132.819 37.3659C134.988 36.356 137.232 35.1965 139.589 33.7752L141.047 32.8775C142.918 31.6806 144.788 30.3341 146.546 28.8754C151.857 24.4618 156.271 19.375 159.674 13.6897C160.422 12.4554 161.133 11.1463 161.806 9.87457C161.096 11.1463 160.31 12.3806 159.487 13.6149C158.365 15.3354 157.056 17.0934 155.485 18.9261C152.755 22.255 149.538 25.3595 145.872 28.1273C144.077 29.4739 142.244 30.7456 140.337 31.8677C134.016 35.6828 126.797 38.2636 121.897 39.9093C119.092 40.8444 116.212 41.7047 113.444 42.565C111.948 43.0138 110.452 43.4626 108.956 43.9489C108.469 44.0985 108.02 44.2481 107.534 44.3977L107.31 44.4725C102.896 45.8938 99.3429 47.2778 96.1637 48.7739C93.7325 49.9334 91.8249 50.9059 90.1043 51.9531C88.2342 53.0378 86.3266 54.3096 84.4191 55.7683L83.0725 56.8156C80.3047 59.0224 77.5369 62.0894 75.4049 65.3435Z" fill="url(#paint17_linear_0_24898)"/>
<path d="M166.369 7.1069C168.351 4.41387 168.351 0.86055 168.127 0.710938C168.127 0.710938 167.342 1.94526 164.162 4.11464C161.469 5.90999 161.282 10.922 161.282 10.922C161.282 10.922 164.387 9.79992 166.369 7.1069Z" fill="url(#paint18_linear_0_24898)"/>
<path d="M161.096 11.1836V10.9218C161.096 10.6974 161.32 5.79758 164.051 3.96482C167.155 1.87024 167.94 0.63595 167.94 0.63595L168.053 0.486328L168.202 0.598533C168.277 0.635936 168.315 0.710747 168.352 0.86036C168.464 1.53362 168.352 4.71288 166.482 7.2563C164.499 9.94932 161.47 11.0714 161.32 11.1462L161.096 11.1836ZM168.053 1.15958C167.604 1.68323 166.557 2.73051 164.312 4.26404C162.106 5.76017 161.619 9.57529 161.545 10.6226C162.33 10.286 164.686 9.12647 166.257 6.99449C167.791 4.86251 168.09 2.13206 168.053 1.15958Z" fill="url(#paint19_linear_0_24898)"/>
<path d="M53.2627 39.8716C48.4377 35.2336 47.6149 27.7903 48.0263 27.3789C48.0263 27.3789 52.4025 30.633 59.6961 33.5504C65.8676 35.9816 64.9699 45.3324 64.9699 45.3324C64.9699 45.3324 58.0503 44.5096 53.2627 39.8716Z" fill="url(#paint20_linear_0_24898)"/>
<path d="M67.8122 49.785C70.206 49.5231 72.525 49.7849 74.5073 50.2712C73.0112 49.2987 71.4403 48.027 70.1686 46.4187C65.9794 41.257 66.0916 33.739 66.5405 33.4023C66.5405 33.4023 70.4678 37.1427 77.35 40.883C83.1849 44.0623 81.0903 53.1886 81.0903 53.1886C81.0903 53.1886 80.7537 53.1138 80.1926 52.9268C78.9957 54.5351 74.3951 60.1456 68.8595 58.6121C61.2666 56.5175 55.7683 56.4427 55.7683 56.4427C55.6935 55.9191 61.0796 50.5704 67.8122 49.785Z" fill="url(#paint21_linear_0_24898)"/>
<path d="M51.8785 43.2382C58.6111 42.4902 64.5582 45.9686 64.5582 45.9686C64.5582 45.9686 59.3592 53.8607 52.9258 52.0654C45.333 49.9708 39.8347 49.896 39.8347 49.896C39.7225 49.3723 45.146 44.0237 51.8785 43.2382Z" fill="url(#paint22_linear_0_24898)"/>
<path d="M64.9691 45.4841C64.8943 45.4841 57.9373 44.6238 53.1497 39.9858C49.0728 36.0959 47.7637 30.074 47.7637 27.942C47.7637 27.4558 47.8385 27.3062 47.9133 27.2313L48.0255 27.1191L48.1377 27.2313C48.1751 27.2687 52.5887 30.5228 59.7701 33.3655C66.0164 35.8341 65.1562 45.2223 65.1562 45.3345V45.5215L64.9691 45.4841ZM53.3741 39.724C57.6381 43.8384 63.6226 44.923 64.7821 45.0726C64.8569 43.7261 65.1187 35.8341 59.6205 33.6647C53.2619 31.1587 49.0728 28.316 48.1003 27.6428C47.9507 28.9145 49.0354 35.5349 53.3741 39.724Z" fill="url(#paint23_linear_0_24898)"/>
<path d="M36.9173 38.2276C39.2737 37.9657 41.5179 38.3398 43.3506 38.9008C41.9293 37.8909 40.3584 36.4696 39.2363 34.5995C36.6928 30.2981 37.7401 24.6128 38.1516 24.4258C38.1516 24.4258 40.6576 27.6425 45.4826 31.1584C48.8863 33.6644 47.465 38.826 46.9039 40.3595C47.2779 40.5465 47.465 40.6588 47.465 40.6588C47.465 40.6588 43.1636 47.4287 37.8149 45.8952C31.4938 44.0625 26.9306 43.9877 26.9306 43.9877C26.8558 43.464 31.3442 38.8634 36.9173 38.2276Z" fill="url(#paint24_linear_0_24898)"/>
<path d="M24.3872 31.7184C26.6688 31.4566 28.8756 31.868 30.5961 32.3917C29.474 30.9329 28.2771 28.9506 27.7535 26.6316C26.6688 21.6196 29.5488 16.4205 29.9977 16.3457C29.9977 16.3457 31.419 20.273 34.9723 25.1728C37.1417 28.1277 35.1967 31.9428 33.9624 33.813C34.1494 33.9252 34.2242 33.9626 34.2242 33.9626C34.2242 33.9626 30.2221 40.2837 25.2101 38.825C19.3003 37.1045 15.0364 37.0297 15.0364 37.0297C14.999 36.6182 19.1507 32.3169 24.3872 31.7184Z" fill="url(#paint25_linear_0_24898)"/>
<path d="M16.7191 25.5838C19.0755 25.5464 21.2075 26.3318 22.7036 27.0799C21.806 25.696 20.7213 23.5266 20.5717 21.0206C20.3472 16.6818 23.4143 12.7171 23.8257 12.6797C23.8257 12.6797 24.499 16.1582 26.818 20.684C28.3515 23.6762 25.7333 26.8181 24.499 28.0898C24.686 28.2394 24.7982 28.3142 24.7982 28.3142C24.7982 28.3142 20.8335 33.2888 16.7565 31.6431C11.9689 29.6607 8.34082 29.2493 8.34082 29.2493C8.34082 28.8753 12.2682 25.6586 16.7191 25.5838Z" fill="url(#paint26_linear_0_24898)"/>
<path d="M11.2579 18.5911C12.9036 18.853 14.3249 19.5636 15.4096 20.2743C14.8486 19.0774 14.3624 17.5438 14.3998 15.8233C14.4746 12.1578 17.3546 8.97852 17.6912 8.97852C17.6912 8.97852 18.0279 11.9334 19.6736 15.9355C20.7209 18.4041 18.5889 20.8353 17.4294 21.92C17.5042 21.9948 17.5416 22.0696 17.5416 22.0696C17.5416 22.0696 13.4647 25.6603 10.3228 23.7154C6.61989 21.3964 3.66504 20.5361 3.66504 20.5361C3.77725 20.1247 7.51757 17.9927 11.2579 18.5911Z" fill="url(#paint27_linear_0_24898)"/>
<path d="M11.8944 14.5889C11.9318 14.6263 11.9692 14.6637 11.9692 14.6637C11.9692 14.6637 8.52812 17.9552 5.87249 16.272C2.69322 14.2523 0.224609 13.5416 0.224609 13.5416C0.262013 13.2424 3.44128 11.2226 6.58315 11.7088C8.3037 11.9707 9.76242 12.8309 10.7349 13.579C10.2861 12.5317 9.83723 10.9608 10.0242 9.31502C10.3983 6.36017 13.1287 4.04117 13.4279 4.07857C13.4279 4.07857 13.4653 6.50978 14.5126 9.87606C15.2607 12.0454 12.9417 13.8782 11.8944 14.5889Z" fill="url(#paint28_linear_0_24898)"/>
<path d="M68.8218 58.8363C61.3411 56.7791 55.8429 56.6669 55.7681 56.6669H55.6185L55.5811 56.5173C55.5811 56.4051 55.5811 56.2555 55.9177 55.8814C57.2642 54.1983 62.1266 50.271 67.8119 49.6351C69.6447 49.4107 71.627 49.5229 73.6468 49.8969C72.2255 48.8871 71.0286 47.7649 70.0187 46.568C66.4654 42.1919 65.9043 36.0952 66.2036 33.9632C66.2784 33.477 66.3532 33.3647 66.428 33.2899L66.5402 33.1777L66.6524 33.2899C66.6898 33.3273 70.6545 37.0676 77.4245 40.7706C83.2968 43.9498 81.277 53.1884 81.277 53.3006L81.2396 53.4876L81.0526 53.4502C81.0526 53.4502 80.7534 53.3754 80.2672 53.2258C79.0329 54.8342 75.3673 59.1356 70.8042 59.1356C70.1683 59.0982 69.495 59.0233 68.8218 58.8363ZM80.2672 52.777C80.5664 52.8892 80.8282 52.964 80.9778 53.0014C81.2396 51.6923 82.4739 43.875 77.2749 41.0698C71.2904 37.8157 67.4753 34.4868 66.615 33.7014C66.3158 34.9357 66.5402 41.6308 70.3179 46.3062C71.4774 47.7276 72.8987 48.9993 74.6193 50.1213L75.5169 50.6824L74.4697 50.4206C72.1507 49.8595 69.9439 49.71 67.8493 49.9718C61.7526 50.645 56.6657 55.2456 56.0299 56.2929C57.1894 56.3303 62.3136 56.6295 68.934 58.4623C74.2827 59.9584 78.8084 54.5349 80.0427 52.8518L80.1175 52.7396L80.2672 52.777Z" fill="url(#paint29_linear_0_24898)"/>
<path d="M52.8511 52.2909C45.3704 50.2338 39.8722 50.1215 39.7974 50.1215H39.6478L39.6104 49.972C39.6104 49.8597 39.6103 49.7101 39.947 49.3361C41.2935 47.6529 46.1559 43.7256 51.8412 43.0898C58.5738 42.3417 64.5957 45.8202 64.6331 45.8576L64.7827 45.9698L64.6705 46.1194C64.6705 46.1568 63.324 48.1392 61.2294 49.8971C59.0974 51.6925 56.8906 52.5902 54.796 52.5902C54.1602 52.5528 53.4869 52.4405 52.8511 52.2909ZM51.8786 43.4264C45.7819 44.0997 40.695 48.7002 40.0592 49.7475C41.2187 49.7849 46.3429 50.0841 52.9633 51.9169C58.686 53.4878 63.4736 47.1293 64.259 46.0446C63.2492 45.4836 57.8631 42.7531 51.8786 43.4264Z" fill="url(#paint30_linear_0_24898)"/>
<path d="M37.7771 46.0058C31.5682 44.2105 26.9676 44.0983 26.9302 44.0983H26.7806L26.7432 43.9487C26.7432 43.8365 26.7432 43.6869 27.0424 43.3128C28.2393 41.8167 32.204 38.5252 36.8794 38.0016C38.6374 37.8146 40.5075 37.9268 42.4525 38.413C41.0312 37.2909 39.8717 36.0192 39.0488 34.6353C36.9168 31.0446 37.2535 26.444 37.7397 24.7609C37.8519 24.3494 37.9641 24.2372 38.0389 24.1998L38.1885 24.125L38.3008 24.2372C38.3382 24.2746 40.8816 27.4913 45.5944 30.9324C48.9981 33.4384 47.7264 38.4878 47.1653 40.2083C47.4645 40.358 47.6141 40.4702 47.6141 40.4702L47.7638 40.5824L47.6515 40.732C47.6141 40.8068 44.0982 46.2677 39.4602 46.2677C38.8992 46.2677 38.3382 46.1929 37.7771 46.0058ZM46.8287 40.4702L46.6791 40.3954L46.7165 40.2458C47.2401 38.7497 48.6614 33.6628 45.3326 31.2316C41.2556 28.2768 38.787 25.4341 38.1511 24.686C37.7397 25.6959 37.1038 30.5958 39.3854 34.4857C40.3205 36.0566 41.667 37.5153 43.425 38.7496L44.3227 39.3855L43.238 39.0489C41.0312 38.3756 38.8992 38.1512 36.8794 38.3756C31.83 38.9367 27.7156 42.7892 27.1172 43.7243C28.1645 43.7617 32.391 44.0609 37.8145 45.6318C42.4899 47.0157 46.4546 41.6297 47.1279 40.6572C47.1279 40.6198 46.9783 40.545 46.8287 40.4702Z" fill="url(#paint31_linear_0_24898)"/>
<path d="M25.1729 39.0132C19.3754 37.3301 15.1114 37.2553 15.0366 37.2553H14.887L14.8496 37.1057C14.8496 37.0308 14.8496 36.8812 15.1488 36.5072C16.2709 35.1233 19.9738 32.0562 24.35 31.57C26.1454 31.3829 28.0903 31.5326 30.0727 32.0936C28.801 30.3357 27.9407 28.5403 27.5293 26.7076C26.6316 22.5558 28.427 18.1422 29.4369 16.6835C29.6987 16.3095 29.8483 16.2347 29.9231 16.2347L30.0727 16.1973L30.1101 16.3469C30.1101 16.3843 31.5688 20.3116 35.0473 25.0992C37.1793 28.0541 35.4588 31.757 34.1497 33.7768C34.2245 33.8142 34.2619 33.8516 34.2619 33.8516L34.4115 33.9638L34.2993 34.1134C34.2619 34.1882 30.9704 39.275 26.6316 39.275C26.2202 39.2376 25.6965 39.1628 25.1729 39.0132ZM33.8504 33.9638L33.6634 33.8516L33.7756 33.702C35.0473 31.7944 36.8801 28.1289 34.7855 25.2488C31.7558 21.0971 30.2597 17.5812 29.8857 16.6461C29.175 17.5064 26.9308 22.1818 27.9033 26.5953C28.3148 28.5403 29.2498 30.4479 30.7086 32.2806L31.0826 32.7295L30.5215 32.5425C28.3896 31.8692 26.3324 31.6448 24.3874 31.8692C19.7494 32.3929 15.8969 35.9836 15.2984 36.8438C16.3083 36.8812 20.2357 37.143 25.2477 38.6392C29.6239 39.9109 33.2894 34.9363 33.9252 34.0012C33.9252 34.0012 33.8878 34.0012 33.8504 33.9638Z" fill="url(#paint32_linear_0_24898)"/>
<path d="M16.6819 31.8316C11.9691 29.8866 8.37842 29.4378 8.34102 29.4378L8.19141 29.4004V29.2508C8.19141 29.176 8.22881 29.0263 8.49063 28.7645C9.57532 27.6798 12.979 25.4356 16.7193 25.3982C18.8513 25.3608 20.7963 25.9967 22.2176 26.6326C21.3947 25.2486 20.5345 23.2663 20.3848 21.0221C20.1978 17.394 22.2924 13.9529 23.3397 12.8308C23.6015 12.5316 23.7511 12.4941 23.8259 12.4941H23.9755L24.013 12.6438C24.013 12.6812 24.6862 16.1223 26.9678 20.6106C28.5013 23.6029 26.0701 26.7448 24.761 28.0913C24.8358 28.1661 24.9106 28.2035 24.9106 28.2035L25.0602 28.3157L24.948 28.4653C24.7984 28.6523 21.9184 32.2056 18.5147 32.2056C17.9162 32.2056 17.3178 32.0934 16.6819 31.8316ZM24.387 28.2783L24.2 28.1661L24.3496 28.0165C25.5091 26.8196 28.0899 23.6777 26.6312 20.7977C24.6862 16.9825 23.9007 13.9155 23.7137 13.0178C22.9657 13.7285 20.5719 17.2818 20.7589 21.0221C20.9085 23.4907 21.9558 25.6227 22.8535 26.9692L23.2275 27.5302L22.629 27.231C21.2825 26.5577 19.1879 25.7723 16.8315 25.7723C16.7941 25.7723 16.7567 25.7723 16.7567 25.7723C12.8294 25.8097 9.3135 28.3905 8.67765 29.1386C9.61273 29.2882 12.8294 29.8492 16.8689 31.495C20.3848 32.9163 23.8633 29.176 24.574 28.3905C24.4992 28.3531 24.4244 28.3157 24.387 28.2783Z" fill="url(#paint33_linear_0_24898)"/>
<path d="M10.2856 23.8268C6.62009 21.5452 3.70264 20.6475 3.66524 20.6475L3.51562 20.6101L3.55303 20.4605C3.55303 20.3857 3.62783 20.2735 3.88966 20.0865C4.93695 19.3384 8.15362 17.9171 11.2955 18.4407C12.5672 18.6278 13.8015 19.114 15.0358 19.8247C14.4748 18.4782 14.2129 17.1316 14.2503 15.8599C14.3251 12.7929 16.3075 9.98763 17.28 9.08995C17.5418 8.86553 17.654 8.82812 17.7288 8.82812H17.8784V8.97775C17.8784 9.01515 18.2151 11.97 19.8608 15.8599C20.8707 18.3285 19.0005 20.6475 17.6914 21.9192L17.8036 22.0689L17.654 22.1811C17.5044 22.2933 15.0358 24.4627 12.455 24.4627C11.7443 24.4252 10.9963 24.2757 10.2856 23.8268ZM17.2052 21.8818L17.3548 21.7696C18.5891 20.6101 20.5341 18.3285 19.5616 16.0095C18.2151 12.7555 17.7288 10.1372 17.5792 9.27697C16.8686 9.87542 14.6992 12.6807 14.6244 15.8225C14.587 17.2064 14.9236 18.7026 15.5969 20.1987L15.8587 20.7597L15.335 20.4231C13.9885 19.5628 12.6046 19.0018 11.2581 18.7774C8.04141 18.2537 4.78733 19.8621 4.07667 20.3857C4.86214 20.6475 7.44296 21.5826 10.51 23.5276C13.1656 25.1733 16.6067 22.6299 17.3548 22.0314L17.2052 21.8818Z" fill="url(#paint34_linear_0_24898)"/>
<path d="M5.76009 16.3833C2.65563 14.4009 0.187016 13.6903 0.149613 13.6903L0 13.6529L0.0374026 13.5032C0.0374026 13.4284 0.112209 13.3162 0.411434 13.0918C1.1969 12.5308 3.85253 11.1094 6.62036 11.5209C8.11649 11.7453 9.3882 12.4186 10.3233 13.0544C9.94925 12.0445 9.65002 10.698 9.83704 9.27669C10.1737 6.69587 12.1934 4.67611 12.9415 4.11506C13.2407 3.89064 13.3529 3.89062 13.4277 3.89062L13.5774 3.92804V4.07764C13.5774 4.11504 13.6148 6.50887 14.662 9.80035C15.3727 12.0071 13.2407 13.8399 12.1186 14.6253L12.156 14.6628L12.0438 14.775C11.9316 14.8872 9.79963 16.907 7.51804 16.907C6.99439 16.907 6.35854 16.7573 5.76009 16.3833ZM11.6324 14.5505L11.8194 14.4383C12.8293 13.7651 15.0361 12.0071 14.3628 9.91255C13.5026 7.21952 13.3155 5.08755 13.2781 4.37688C12.6049 4.86313 10.5477 6.80809 10.2111 9.3515C9.98665 10.9598 10.4729 12.5308 10.8843 13.5407L11.1461 14.1765L10.5851 13.7277C9.68742 13.0544 8.2287 12.1567 6.50815 11.8949C3.81513 11.5209 1.08469 12.9796 0.48624 13.4659C1.1969 13.6903 3.36629 14.5131 5.94711 16.1215C8.1913 17.5428 11.0339 15.2238 11.6698 14.6628L11.6324 14.5505Z" fill="url(#paint35_linear_0_24898)"/>
<path d="M7.33048 7.25586C8.34036 9.20082 9.49986 11.1084 10.7342 12.9786C11.9311 14.8113 13.2776 16.6067 14.6989 18.2898C17.5041 21.6935 20.7582 24.798 24.2741 27.4536C26.0321 28.8001 27.8648 30.0344 29.7724 31.1939C35.4203 34.5976 41.8536 37.1036 48.1747 39.1982C52.4387 40.6195 56.7775 41.8538 61.1163 43.2377C61.6399 43.4248 62.2009 43.5743 62.7246 43.7614C66.5397 44.9957 70.28 46.3796 73.9081 48.0627C75.9653 49.0352 78.0225 50.0825 80.0049 51.242C81.9872 52.4015 83.8948 53.6732 85.6901 55.0571L87.0367 56.1044C90.0663 58.4982 92.8715 61.6401 94.9661 64.8942C94.8539 65.0438 94.1807 65.343 94.0685 65.1934C91.4876 62.4256 89.019 59.6577 85.952 57.451L84.568 56.5533C82.6979 55.3564 80.7903 54.2717 78.808 53.2618C76.8256 52.2519 74.8058 51.2794 72.7486 50.4565C70.6915 49.5589 68.6343 48.7734 66.5397 47.9879L64.9688 47.3895L63.3978 46.8284C62.3506 46.4544 61.3033 46.0804 60.2186 45.7063C55.992 44.2102 51.6906 42.7515 47.4267 41.218C44.21 40.0585 41.0307 38.7867 37.9263 37.3654L37.1408 36.9914C34.8218 35.9067 32.5402 34.7098 30.3334 33.4007L28.8747 32.503C26.9671 31.2687 25.1344 29.9222 23.3764 28.5009C18.1774 24.1995 13.6516 19.0005 10.1731 13.2778C9.01362 11.3702 7.96633 9.38785 7.03125 7.40548L7.33048 7.25586Z" fill="url(#paint36_linear_0_24898)"/>
<path d="M93.9189 65.3428L93.2083 64.5948C90.8519 62.0513 88.6077 59.6201 85.8025 57.6378L84.4185 56.7401C82.3614 55.431 80.4912 54.3463 78.6958 53.4486C76.4891 52.3265 74.6189 51.4288 72.6365 50.6433C70.5046 49.7083 68.2978 48.8854 66.4276 48.1747L64.8567 47.5763L63.0239 46.903C62.0514 46.5664 61.079 46.1924 60.1065 45.8558C58.3111 45.2199 56.4784 44.584 54.683 43.9482C52.2518 43.1253 49.7832 42.2277 47.3146 41.3674C43.6865 40.0583 40.582 38.7866 37.8142 37.5148C37.2905 37.2904 37.1035 37.1782 37.0287 37.1408C34.8219 36.1309 32.6151 34.934 30.2213 33.5127L28.7626 32.615C26.855 31.3807 25.0223 30.0342 23.2269 28.6129C17.8783 24.1993 13.4273 19.0377 9.9862 13.3524C8.82671 11.4448 7.77942 9.46245 6.84434 7.44268L6.76953 7.29308L7.33058 7.03125L7.40538 7.18087C8.41527 9.12584 9.57477 11.0334 10.7717 12.8661C11.8938 14.5867 13.2029 16.3072 14.7364 18.1774C17.4294 21.4689 20.6461 24.5733 24.2742 27.3412C26.0322 28.6877 27.9023 29.9594 29.7725 31.0441C36.0936 34.8218 43.275 37.4026 48.1375 39.0484C50.9427 39.9834 53.7853 40.8437 56.5906 41.704C58.0867 42.1528 59.5828 42.6017 61.0789 43.0879C61.5652 43.2375 62.014 43.3871 62.5003 43.5367L62.7247 43.6116C67.1757 45.0329 70.729 46.4168 73.9082 47.9503C76.3394 49.1098 78.2844 50.1197 80.005 51.1296C81.8751 52.2143 83.8201 53.486 85.7276 54.9447L87.0742 55.992C90.0664 58.3484 92.9091 61.4903 95.0784 64.8192L95.1532 64.9314L95.0784 65.0436C94.9662 65.2306 94.4426 65.455 94.1808 65.455H94.1434C94.0686 65.4176 93.9938 65.3802 93.9189 65.3428ZM86.9245 56.2538L85.578 55.2066C83.6705 53.7478 81.7629 52.4761 79.8928 51.3914C78.1722 50.3815 76.2272 49.3716 73.8334 48.2121C70.6542 46.716 67.1009 45.3321 62.6873 43.9108L62.4629 43.836C61.9766 43.6864 61.5278 43.5367 61.0415 43.3871C59.5454 42.9383 58.0493 42.4521 56.5532 42.0032C53.7853 41.143 50.9053 40.2827 48.1 39.3476C43.2376 37.7019 36.0188 35.121 29.6603 31.3059C27.7901 30.1838 25.92 28.9121 24.1246 27.5656C20.4591 24.7978 17.2424 21.6933 14.512 18.3644C12.9785 16.4943 11.6693 14.7737 10.5098 13.0532C9.68698 11.8563 8.93892 10.5845 8.19085 9.31283C8.86411 10.6219 9.57477 11.8937 10.3228 13.128C13.7265 18.8132 18.1775 23.9001 23.4514 28.3137C25.2093 29.735 27.0795 31.0815 28.9496 32.3158L30.4083 33.2135C32.7647 34.6348 35.0089 35.7943 37.1783 36.8042C37.2157 36.8042 37.9638 37.1782 37.9638 37.1782C40.7316 38.4499 43.8361 39.6842 47.4268 40.9934C49.8954 41.891 52.364 42.7513 54.7952 43.5741C56.628 44.21 58.4233 44.8459 60.2187 45.4817C61.1912 45.8184 62.1636 46.1924 63.1361 46.529L66.5398 47.7633C68.41 48.474 70.6168 49.2968 72.7487 50.2319C74.6937 51.0174 76.6013 51.9525 78.8081 53.0372C80.6034 53.9348 82.4736 55.0196 84.5681 56.3287L85.9521 57.2263C88.7573 59.2461 91.1137 61.7895 93.3953 64.2207L94.0686 64.9688C94.1808 64.9688 94.4426 64.8566 94.5922 64.7818C92.6098 61.6025 89.842 58.5728 86.9245 56.2538Z" fill="url(#paint37_linear_0_24898)"/>
<path d="M3.77762 6.65765C1.79525 3.96462 1.79525 0.411331 2.01967 0.261719C2.01967 0.261719 2.80514 1.49601 5.98441 3.6654C8.67744 5.46075 8.86445 10.4728 8.86445 10.4728C8.86445 10.4728 5.75999 9.35068 3.77762 6.65765Z" fill="url(#paint38_linear_0_24898)"/>
<path d="M8.7903 10.6599C8.67809 10.6225 5.61103 9.463 3.62866 6.76997C1.7959 4.26395 1.64629 1.08469 1.7585 0.374032C1.7959 0.224419 1.8333 0.149608 1.90811 0.112205L2.05772 0L2.16993 0.149599C2.16993 0.149599 2.9554 1.38391 6.05986 3.47849C8.7903 5.31125 9.01472 10.2111 9.01472 10.4355V10.6973L8.7903 10.6599ZM3.92788 6.54556C5.49882 8.67754 7.85522 9.83704 8.64068 10.1737C8.56588 9.08898 8.07964 5.31126 5.87285 3.81513C3.59125 2.2816 2.54396 1.19689 2.13253 0.710647C2.05772 1.68313 2.35695 4.41358 3.92788 6.54556Z" fill="url(#paint39_linear_0_24898)"/>
<defs>
<linearGradient id="paint0_linear_0_24898" x1="105.128" y1="36.794" x2="122.222" y2="36.794" gradientUnits="userSpaceOnUse">
<stop stop-color="#A57D24"/>
<stop offset="0.2112" stop-color="#D8BE62"/>
<stop offset="0.328" stop-color="#F1DD80"/>
<stop offset="0.524" stop-color="#FBF2A8"/>
<stop offset="0.7298" stop-color="#F1DD80"/>
<stop offset="1" stop-color="#A57D24"/>
</linearGradient>
<linearGradient id="paint1_linear_0_24898" x1="104.73" y1="45.6859" x2="122.487" y2="27.9292" gradientUnits="userSpaceOnUse">
<stop stop-color="#A57D24"/>
<stop offset="0.2112" stop-color="#D8BE62"/>
<stop offset="0.328" stop-color="#F1DD80"/>
<stop offset="0.524" stop-color="#FBF2A8"/>
<stop offset="0.7298" stop-color="#F1DD80"/>
<stop offset="1" stop-color="#A57D24"/>
</linearGradient>
<linearGradient id="paint2_linear_0_24898" x1="88.6683" y1="46.625" x2="114.366" y2="46.625" gradientUnits="userSpaceOnUse">
<stop stop-color="#A57D24"/>
<stop offset="0.2112" stop-color="#D8BE62"/>
<stop offset="0.328" stop-color="#F1DD80"/>
<stop offset="0.524" stop-color="#FBF2A8"/>
<stop offset="0.7298" stop-color="#F1DD80"/>
<stop offset="1" stop-color="#A57D24"/>
</linearGradient>
<linearGradient id="paint3_linear_0_24898" x1="105.608" y1="48.2059" x2="130.33" y2="48.2059" gradientUnits="userSpaceOnUse">
<stop stop-color="#A57D24"/>
<stop offset="0.2112" stop-color="#D8BE62"/>
<stop offset="0.328" stop-color="#F1DD80"/>
<stop offset="0.524" stop-color="#FBF2A8"/>
<stop offset="0.7298" stop-color="#F1DD80"/>
<stop offset="1" stop-color="#A57D24"/>
</linearGradient>
<linearGradient id="paint4_linear_0_24898" x1="122.472" y1="35.6865" x2="143.207" y2="35.6865" gradientUnits="userSpaceOnUse">
<stop stop-color="#A57D24"/>
<stop offset="0.2112" stop-color="#D8BE62"/>
<stop offset="0.328" stop-color="#F1DD80"/>
<stop offset="0.524" stop-color="#FBF2A8"/>
<stop offset="0.7298" stop-color="#F1DD80"/>
<stop offset="1" stop-color="#A57D24"/>
</linearGradient>
<linearGradient id="paint5_linear_0_24898" x1="134.205" y1="28.163" x2="155.089" y2="28.163" gradientUnits="userSpaceOnUse">
<stop stop-color="#A57D24"/>
<stop offset="0.2112" stop-color="#D8BE62"/>
<stop offset="0.328" stop-color="#F1DD80"/>
<stop offset="0.524" stop-color="#FBF2A8"/>
<stop offset="0.7298" stop-color="#F1DD80"/>
<stop offset="1" stop-color="#A57D24"/>
</linearGradient>
<linearGradient id="paint6_linear_0_24898" x1="142.88" y1="22.8239" x2="161.787" y2="22.8239" gradientUnits="userSpaceOnUse">
<stop stop-color="#A57D24"/>
<stop offset="0.2112" stop-color="#D8BE62"/>
<stop offset="0.328" stop-color="#F1DD80"/>
<stop offset="0.524" stop-color="#FBF2A8"/>
<stop offset="0.7298" stop-color="#F1DD80"/>
<stop offset="1" stop-color="#A57D24"/>
</linearGradient>
<linearGradient id="paint7_linear_0_24898" x1="150.165" y1="17.0702" x2="166.433" y2="17.0702" gradientUnits="userSpaceOnUse">
<stop stop-color="#A57D24"/>
<stop offset="0.2112" stop-color="#D8BE62"/>
<stop offset="0.328" stop-color="#F1DD80"/>
<stop offset="0.524" stop-color="#FBF2A8"/>
<stop offset="0.7298" stop-color="#F1DD80"/>
<stop offset="1" stop-color="#A57D24"/>
</linearGradient>
<linearGradient id="paint8_linear_0_24898" x1="155.474" y1="10.8435" x2="169.935" y2="10.8435" gradientUnits="userSpaceOnUse">
<stop stop-color="#A57D24"/>
<stop offset="0.2112" stop-color="#D8BE62"/>
<stop offset="0.328" stop-color="#F1DD80"/>
<stop offset="0.524" stop-color="#FBF2A8"/>
<stop offset="0.7298" stop-color="#F1DD80"/>
<stop offset="1" stop-color="#A57D24"/>
</linearGradient>
<linearGradient id="paint9_linear_0_24898" x1="93.7747" y1="58.7955" x2="111.277" y2="41.2934" gradientUnits="userSpaceOnUse">
<stop stop-color="#A57D24"/>
<stop offset="0.2112" stop-color="#D8BE62"/>
<stop offset="0.328" stop-color="#F1DD80"/>
<stop offset="0.524" stop-color="#FBF2A8"/>
<stop offset="0.7298" stop-color="#F1DD80"/>
<stop offset="1" stop-color="#A57D24"/>
</linearGradient>
<linearGradient id="paint10_linear_0_24898" x1="112.44" y1="53.9631" x2="123.442" y2="42.9604" gradientUnits="userSpaceOnUse">
<stop stop-color="#A57D24"/>
<stop offset="0.2112" stop-color="#D8BE62"/>
<stop offset="0.328" stop-color="#F1DD80"/>
<stop offset="0.524" stop-color="#FBF2A8"/>
<stop offset="0.7298" stop-color="#F1DD80"/>
<stop offset="1" stop-color="#A57D24"/>
</linearGradient>
<linearGradient id="paint11_linear_0_24898" x1="126.411" y1="45.502" x2="139.666" y2="32.2468" gradientUnits="userSpaceOnUse">
<stop stop-color="#A57D24"/>
<stop offset="0.2112" stop-color="#D8BE62"/>
<stop offset="0.328" stop-color="#F1DD80"/>
<stop offset="0.524" stop-color="#FBF2A8"/>
<stop offset="0.7298" stop-color="#F1DD80"/>
<stop offset="1" stop-color="#A57D24"/>
</linearGradient>
<linearGradient id="paint12_linear_0_24898" x1="137.814" y1="36.9715" x2="149.211" y2="25.5746" gradientUnits="userSpaceOnUse">
<stop stop-color="#A57D24"/>
<stop offset="0.2112" stop-color="#D8BE62"/>
<stop offset="0.328" stop-color="#F1DD80"/>
<stop offset="0.524" stop-color="#FBF2A8"/>
<stop offset="0.7298" stop-color="#F1DD80"/>
<stop offset="1" stop-color="#A57D24"/>
</linearGradient>
<linearGradient id="paint13_linear_0_24898" x1="145.854" y1="29.6583" x2="154.501" y2="21.0113" gradientUnits="userSpaceOnUse">
<stop stop-color="#A57D24"/>
<stop offset="0.2112" stop-color="#D8BE62"/>
<stop offset="0.328" stop-color="#F1DD80"/>
<stop offset="0.524" stop-color="#FBF2A8"/>
<stop offset="0.7298" stop-color="#F1DD80"/>
<stop offset="1" stop-color="#A57D24"/>
</linearGradient>
<linearGradient id="paint14_linear_0_24898" x1="152.208" y1="22.4047" x2="160.208" y2="14.4047" gradientUnits="userSpaceOnUse">
<stop stop-color="#A57D24"/>
<stop offset="0.2112" stop-color="#D8BE62"/>
<stop offset="0.328" stop-color="#F1DD80"/>
<stop offset="0.524" stop-color="#FBF2A8"/>
<stop offset="0.7298" stop-color="#F1DD80"/>
<stop offset="1" stop-color="#A57D24"/>
</linearGradient>
<linearGradient id="paint15_linear_0_24898" x1="157.623" y1="14.9322" x2="164.407" y2="8.14759" gradientUnits="userSpaceOnUse">
<stop stop-color="#A57D24"/>
<stop offset="0.2112" stop-color="#D8BE62"/>
<stop offset="0.328" stop-color="#F1DD80"/>
<stop offset="0.524" stop-color="#FBF2A8"/>
<stop offset="0.7298" stop-color="#F1DD80"/>
<stop offset="1" stop-color="#A57D24"/>
</linearGradient>
<linearGradient id="paint16_linear_0_24898" x1="75.175" y1="36.7022" x2="163.079" y2="36.7022" gradientUnits="userSpaceOnUse">
<stop stop-color="#A57D24"/>
<stop offset="0.2112" stop-color="#D8BE62"/>
<stop offset="0.328" stop-color="#F1DD80"/>
<stop offset="0.524" stop-color="#FBF2A8"/>
<stop offset="0.7298" stop-color="#F1DD80"/>
<stop offset="1" stop-color="#A57D24"/>
</linearGradient>
<linearGradient id="paint17_linear_0_24898" x1="83.6307" y1="74.0818" x2="156.652" y2="1.06062" gradientUnits="userSpaceOnUse">
<stop stop-color="#A57D24"/>
<stop offset="0.2112" stop-color="#D8BE62"/>
<stop offset="0.328" stop-color="#F1DD80"/>
<stop offset="0.524" stop-color="#FBF2A8"/>
<stop offset="0.7298" stop-color="#F1DD80"/>
<stop offset="1" stop-color="#A57D24"/>
</linearGradient>
<linearGradient id="paint18_linear_0_24898" x1="161.297" y1="5.82961" x2="168.226" y2="5.82961" gradientUnits="userSpaceOnUse">
<stop stop-color="#A57D24"/>
<stop offset="0.2112" stop-color="#D8BE62"/>
<stop offset="0.328" stop-color="#F1DD80"/>
<stop offset="0.524" stop-color="#FBF2A8"/>
<stop offset="0.7298" stop-color="#F1DD80"/>
<stop offset="1" stop-color="#A57D24"/>
</linearGradient>
<linearGradient id="paint19_linear_0_24898" x1="160.412" y1="10.5082" x2="169.294" y2="1.62596" gradientUnits="userSpaceOnUse">
<stop stop-color="#A57D24"/>
<stop offset="0.2112" stop-color="#D8BE62"/>
<stop offset="0.328" stop-color="#F1DD80"/>
<stop offset="0.524" stop-color="#FBF2A8"/>
<stop offset="0.7298" stop-color="#F1DD80"/>
<stop offset="1" stop-color="#A57D24"/>
</linearGradient>
<linearGradient id="paint20_linear_0_24898" x1="65.0226" y1="36.3376" x2="47.9283" y2="36.3376" gradientUnits="userSpaceOnUse">
<stop stop-color="#A57D24"/>
<stop offset="0.2112" stop-color="#D8BE62"/>
<stop offset="0.328" stop-color="#F1DD80"/>
<stop offset="0.524" stop-color="#FBF2A8"/>
<stop offset="0.7298" stop-color="#F1DD80"/>
<stop offset="1" stop-color="#A57D24"/>
</linearGradient>
<linearGradient id="paint21_linear_0_24898" x1="81.4814" y1="46.1708" x2="55.7835" y2="46.1708" gradientUnits="userSpaceOnUse">
<stop stop-color="#A57D24"/>
<stop offset="0.2112" stop-color="#D8BE62"/>
<stop offset="0.328" stop-color="#F1DD80"/>
<stop offset="0.524" stop-color="#FBF2A8"/>
<stop offset="0.7298" stop-color="#F1DD80"/>
<stop offset="1" stop-color="#A57D24"/>
</linearGradient>
<linearGradient id="paint22_linear_0_24898" x1="64.5416" y1="47.7514" x2="39.8199" y2="47.7514" gradientUnits="userSpaceOnUse">
<stop stop-color="#A57D24"/>
<stop offset="0.2112" stop-color="#D8BE62"/>
<stop offset="0.328" stop-color="#F1DD80"/>
<stop offset="0.524" stop-color="#FBF2A8"/>
<stop offset="0.7298" stop-color="#F1DD80"/>
<stop offset="1" stop-color="#A57D24"/>
</linearGradient>
<linearGradient id="paint23_linear_0_24898" x1="65.4195" y1="45.2314" x2="47.6629" y2="27.4747" gradientUnits="userSpaceOnUse">
<stop stop-color="#A57D24"/>
<stop offset="0.2112" stop-color="#D8BE62"/>
<stop offset="0.328" stop-color="#F1DD80"/>
<stop offset="0.524" stop-color="#FBF2A8"/>
<stop offset="0.7298" stop-color="#F1DD80"/>
<stop offset="1" stop-color="#A57D24"/>
</linearGradient>
<linearGradient id="paint24_linear_0_24898" x1="47.678" y1="35.232" x2="26.9426" y2="35.232" gradientUnits="userSpaceOnUse">
<stop stop-color="#A57D24"/>
<stop offset="0.2112" stop-color="#D8BE62"/>
<stop offset="0.328" stop-color="#F1DD80"/>
<stop offset="0.524" stop-color="#FBF2A8"/>
<stop offset="0.7298" stop-color="#F1DD80"/>
<stop offset="1" stop-color="#A57D24"/>
</linearGradient>
<linearGradient id="paint25_linear_0_24898" x1="35.9449" y1="27.7085" x2="15.0613" y2="27.7085" gradientUnits="userSpaceOnUse">
<stop stop-color="#A57D24"/>
<stop offset="0.2112" stop-color="#D8BE62"/>
<stop offset="0.328" stop-color="#F1DD80"/>
<stop offset="0.524" stop-color="#FBF2A8"/>
<stop offset="0.7298" stop-color="#F1DD80"/>
<stop offset="1" stop-color="#A57D24"/>
</linearGradient>
<linearGradient id="paint26_linear_0_24898" x1="27.2689" y1="22.3678" x2="8.36188" y2="22.3678" gradientUnits="userSpaceOnUse">
<stop stop-color="#A57D24"/>
<stop offset="0.2112" stop-color="#D8BE62"/>
<stop offset="0.328" stop-color="#F1DD80"/>
<stop offset="0.524" stop-color="#FBF2A8"/>
<stop offset="0.7298" stop-color="#F1DD80"/>
<stop offset="1" stop-color="#A57D24"/>
</linearGradient>
<linearGradient id="paint27_linear_0_24898" x1="19.9844" y1="16.6157" x2="3.71643" y2="16.6157" gradientUnits="userSpaceOnUse">
<stop stop-color="#A57D24"/>
<stop offset="0.2112" stop-color="#D8BE62"/>
<stop offset="0.328" stop-color="#F1DD80"/>
<stop offset="0.524" stop-color="#FBF2A8"/>
<stop offset="0.7298" stop-color="#F1DD80"/>
<stop offset="1" stop-color="#A57D24"/>
</linearGradient>
<linearGradient id="paint28_linear_0_24898" x1="14.6765" y1="10.389" x2="0.215296" y2="10.389" gradientUnits="userSpaceOnUse">
<stop stop-color="#A57D24"/>
<stop offset="0.2112" stop-color="#D8BE62"/>
<stop offset="0.328" stop-color="#F1DD80"/>
<stop offset="0.524" stop-color="#FBF2A8"/>
<stop offset="0.7298" stop-color="#F1DD80"/>
<stop offset="1" stop-color="#A57D24"/>
</linearGradient>
<linearGradient id="paint29_linear_0_24898" x1="76.3751" y1="58.3407" x2="58.8728" y2="40.8386" gradientUnits="userSpaceOnUse">
<stop stop-color="#A57D24"/>
<stop offset="0.2112" stop-color="#D8BE62"/>
<stop offset="0.328" stop-color="#F1DD80"/>
<stop offset="0.524" stop-color="#FBF2A8"/>
<stop offset="0.7298" stop-color="#F1DD80"/>
<stop offset="1" stop-color="#A57D24"/>
</linearGradient>
<linearGradient id="paint30_linear_0_24898" x1="57.7107" y1="53.5082" x2="46.7079" y2="42.5056" gradientUnits="userSpaceOnUse">
<stop stop-color="#A57D24"/>
<stop offset="0.2112" stop-color="#D8BE62"/>
<stop offset="0.328" stop-color="#F1DD80"/>
<stop offset="0.524" stop-color="#FBF2A8"/>
<stop offset="0.7298" stop-color="#F1DD80"/>
<stop offset="1" stop-color="#A57D24"/>
</linearGradient>
<linearGradient id="paint31_linear_0_24898" x1="43.7382" y1="45.0455" x2="30.4831" y2="31.7903" gradientUnits="userSpaceOnUse">
<stop stop-color="#A57D24"/>
<stop offset="0.2112" stop-color="#D8BE62"/>
<stop offset="0.328" stop-color="#F1DD80"/>
<stop offset="0.524" stop-color="#FBF2A8"/>
<stop offset="0.7298" stop-color="#F1DD80"/>
<stop offset="1" stop-color="#A57D24"/>
</linearGradient>
<linearGradient id="paint32_linear_0_24898" x1="32.3363" y1="36.5186" x2="20.9395" y2="25.1217" gradientUnits="userSpaceOnUse">
<stop stop-color="#A57D24"/>
<stop offset="0.2112" stop-color="#D8BE62"/>
<stop offset="0.328" stop-color="#F1DD80"/>
<stop offset="0.524" stop-color="#FBF2A8"/>
<stop offset="0.7298" stop-color="#F1DD80"/>
<stop offset="1" stop-color="#A57D24"/>
</linearGradient>
<linearGradient id="paint33_linear_0_24898" x1="24.2953" y1="29.2038" x2="15.6484" y2="20.5568" gradientUnits="userSpaceOnUse">
<stop stop-color="#A57D24"/>
<stop offset="0.2112" stop-color="#D8BE62"/>
<stop offset="0.328" stop-color="#F1DD80"/>
<stop offset="0.524" stop-color="#FBF2A8"/>
<stop offset="0.7298" stop-color="#F1DD80"/>
<stop offset="1" stop-color="#A57D24"/>
</linearGradient>
<linearGradient id="paint34_linear_0_24898" x1="17.941" y1="21.9502" x2="9.94093" y2="13.9502" gradientUnits="userSpaceOnUse">
<stop stop-color="#A57D24"/>
<stop offset="0.2112" stop-color="#D8BE62"/>
<stop offset="0.328" stop-color="#F1DD80"/>
<stop offset="0.524" stop-color="#FBF2A8"/>
<stop offset="0.7298" stop-color="#F1DD80"/>
<stop offset="1" stop-color="#A57D24"/>
</linearGradient>
<linearGradient id="paint35_linear_0_24898" x1="12.5269" y1="14.4777" x2="5.74228" y2="7.69308" gradientUnits="userSpaceOnUse">
<stop stop-color="#A57D24"/>
<stop offset="0.2112" stop-color="#D8BE62"/>
<stop offset="0.328" stop-color="#F1DD80"/>
<stop offset="0.524" stop-color="#FBF2A8"/>
<stop offset="0.7298" stop-color="#F1DD80"/>
<stop offset="1" stop-color="#A57D24"/>
</linearGradient>
<linearGradient id="paint36_linear_0_24898" x1="94.9741" y1="36.2457" x2="7.06985" y2="36.2457" gradientUnits="userSpaceOnUse">
<stop stop-color="#A57D24"/>
<stop offset="0.2112" stop-color="#D8BE62"/>
<stop offset="0.328" stop-color="#F1DD80"/>
<stop offset="0.524" stop-color="#FBF2A8"/>
<stop offset="0.7298" stop-color="#F1DD80"/>
<stop offset="1" stop-color="#A57D24"/>
</linearGradient>
<linearGradient id="paint37_linear_0_24898" x1="86.5183" y1="73.625" x2="13.4972" y2="0.603795" gradientUnits="userSpaceOnUse">
<stop stop-color="#A57D24"/>
<stop offset="0.2112" stop-color="#D8BE62"/>
<stop offset="0.328" stop-color="#F1DD80"/>
<stop offset="0.524" stop-color="#FBF2A8"/>
<stop offset="0.7298" stop-color="#F1DD80"/>
<stop offset="1" stop-color="#A57D24"/>
</linearGradient>
<linearGradient id="paint38_linear_0_24898" x1="8.85207" y1="5.37312" x2="1.92336" y2="5.37312" gradientUnits="userSpaceOnUse">
<stop stop-color="#A57D24"/>
<stop offset="0.2112" stop-color="#D8BE62"/>
<stop offset="0.328" stop-color="#F1DD80"/>
<stop offset="0.524" stop-color="#FBF2A8"/>
<stop offset="0.7298" stop-color="#F1DD80"/>
<stop offset="1" stop-color="#A57D24"/>
</linearGradient>
<linearGradient id="paint39_linear_0_24898" x1="9.73794" y1="10.052" x2="0.85578" y2="1.16978" gradientUnits="userSpaceOnUse">
<stop stop-color="#A57D24"/>
<stop offset="0.2112" stop-color="#D8BE62"/>
<stop offset="0.328" stop-color="#F1DD80"/>
<stop offset="0.524" stop-color="#FBF2A8"/>
<stop offset="0.7298" stop-color="#F1DD80"/>
<stop offset="1" stop-color="#A57D24"/>
</linearGradient>
</defs>
</svg>
