<svg width="24" height="30" viewBox="0 0 24 30" fill="none" xmlns="http://www.w3.org/2000/svg">
<g clip-path="url(#clip0_319_1145)">
<path fill-rule="evenodd" clip-rule="evenodd" d="M18.9562 7.38795L18.9164 7.46202C19.4106 7.67445 19.979 7.72382 20.5382 7.56306C21.8201 7.19504 22.559 5.86074 22.1898 4.58328C21.8201 3.30582 20.4817 2.56862 19.2004 2.93664C18.8616 3.0336 18.5484 3.20375 18.283 3.435L18.2749 3.44533C18.6953 3.84493 19.0184 4.35821 19.1911 4.95532C19.4411 5.82055 19.3409 6.64616 18.9562 7.38795ZM8.93963 19.38C8.59121 19.38 8.30902 19.0447 8.30902 18.6313C8.30902 18.2185 8.59121 17.8832 8.93963 17.8832H16.3652C16.7131 17.8832 16.9958 18.2185 16.9958 18.6313C16.9958 19.0447 16.7131 19.38 16.3652 19.38H8.93963ZM8.93963 23.7377C8.59121 23.7377 8.30902 23.4024 8.30902 22.9896C8.30902 22.5763 8.59121 22.241 8.93963 22.241H16.2765C16.625 22.241 16.9071 22.5763 16.9071 22.9896C16.9071 23.4024 16.625 23.7377 16.2765 23.7377H8.93963ZM4.34916 21.9103H6.23522C6.37113 21.9103 6.48171 22.0216 6.48171 22.1566V23.8227C6.48171 23.9576 6.37056 24.069 6.23522 24.069H4.34916C4.21383 24.069 4.10211 23.9582 4.10211 23.8227V22.1566C4.10211 22.0211 4.21325 21.9103 4.34916 21.9103ZM4.34916 13.0605H6.23522C6.37113 13.0605 6.48171 13.1718 6.48171 13.3068V14.9729C6.48171 15.1073 6.36998 15.2192 6.23522 15.2192H4.34916C4.21383 15.2192 4.10211 15.1084 4.10211 14.9729V13.3068C4.10211 13.1713 4.21325 13.0605 4.34916 13.0605ZM8.93963 14.8879C8.59121 14.8879 8.30902 14.5532 8.30902 14.1398C8.30902 13.7265 8.59121 13.3912 8.93963 13.3912H16.3652C16.7131 13.3912 16.9958 13.7265 16.9958 14.1398C16.9958 14.5532 16.7131 14.8879 16.3652 14.8879H8.93963ZM3.83662 18.8191C3.68458 18.6629 3.71971 18.4 3.91494 18.2329C4.11017 18.0658 4.39178 18.0572 4.54382 18.2134L4.98265 18.6652L6.08088 17.5428C6.2335 17.3872 6.49783 17.4153 6.6706 17.6054C6.84337 17.7954 6.85949 18.0761 6.70688 18.2312L5.24987 19.7199C5.09725 19.8755 4.83292 19.8474 4.66015 19.6573C4.64863 19.6447 4.63769 19.6315 4.62732 19.6177C4.60313 19.6028 4.58067 19.585 4.56052 19.5643L3.83662 18.8191ZM7.33576 7.51426C7.65999 7.31848 7.89841 7.1382 8.30039 7.19849C9.05538 7.30987 9.52877 8.23768 8.96094 8.87498C8.79911 9.0564 8.5175 9.24874 8.21458 9.42959C7.88228 9.62882 7.5235 9.81542 7.26838 9.96067L6.57212 10.358L6.23465 9.80049C5.82864 9.12874 5.11395 8.22964 5.30515 7.40288C5.43876 6.82357 5.99162 6.57727 6.51223 6.72367C6.97698 6.85458 7.11116 7.1382 7.33576 7.51426ZM6.169 5.53979C6.67002 5.23665 7.03975 4.95819 7.66172 5.05063C8.57163 5.18498 9.21664 6.08523 9.04271 6.94242C8.84418 6.80453 8.61632 6.71433 8.37698 6.67889C8.01129 6.62435 7.75386 6.68922 7.51371 6.80577C7.3277 6.54454 7.09964 6.34359 6.6539 6.21843L6.57673 6.19891C6.20758 6.11394 5.82979 6.16044 5.51363 6.32809C5.18594 6.50205 4.92736 6.79946 4.81103 7.21054L4.79203 7.28576C4.59277 8.14984 5.07479 8.95937 5.51247 9.64088L4.98668 9.94058L4.46434 9.07765C3.83662 8.03845 2.7309 6.64674 3.02576 5.36698C3.23308 4.47075 4.08828 4.08952 4.89396 4.31573C5.61383 4.5184 5.82115 4.95819 6.169 5.53979ZM20.0993 29.3999H1.56068C1.13336 29.3999 0.741754 29.2248 0.458413 28.9423C0.176224 28.661 0 28.2729 0 27.844V3.03367C0 2.60479 0.175648 2.21552 0.457837 1.93419C0.740026 1.65229 1.13106 1.47775 1.56068 1.47775H11.2639C11.2219 1.66722 11.2127 1.86243 11.234 2.05304C11.2449 2.16902 11.2691 2.28614 11.3066 2.40154C11.3532 2.54565 11.42 2.6846 11.5058 2.81493H1.56068C1.50078 2.81493 1.44607 2.83961 1.40634 2.8798C1.3666 2.91942 1.34126 2.97396 1.34126 3.03367V27.844C1.34126 27.9026 1.3666 27.9565 1.40691 27.9967C1.4478 28.0375 1.50251 28.0627 1.56068 28.0627H19.4319L19.4365 10.2167C19.8736 10.2546 20.3222 10.2351 20.7726 10.1519L20.7674 28.7316C20.7674 29.0991 20.4685 29.397 20.0993 29.397V29.3999ZM18.3423 8.27385L18.3308 8.28706C17.938 8.67977 17.4416 8.98177 16.8691 9.14597C15.0672 9.66442 13.1846 8.62752 12.6657 6.83161C12.2268 5.31531 12.8983 3.74274 14.2016 2.97683L12.8885 1.98242C12.835 1.94166 12.8154 1.87334 12.8338 1.81305L13.1949 0.667641C13.2122 0.611949 13.2583 0.573482 13.3118 0.561999L15.2463 0.006231C15.2992 -0.00927079 15.3534 0.00508272 15.392 0.038957L16.2817 0.823807C16.3318 0.86859 16.3468 0.938061 16.3232 0.997197L15.779 2.51006C16.3693 2.48422 16.9452 2.6134 17.456 2.87004L17.4623 2.86086C17.8562 2.46585 18.3538 2.1627 18.9285 1.99735C20.7305 1.47947 22.6125 2.5158 23.1326 4.31228C23.652 6.10877 22.612 7.98506 20.81 8.50293C19.9542 8.74924 19.08 8.64417 18.3423 8.27385ZM16.8686 3.67614L16.849 3.70312C16.4672 4.44376 16.3572 5.32507 16.6065 6.188C16.7793 6.7851 17.1024 7.29839 17.5234 7.69856L17.5113 7.71177C17.2464 7.94114 16.9345 8.11005 16.5973 8.20668C15.3159 8.5747 13.9776 7.83808 13.6078 6.56004C13.2387 5.28258 13.9776 3.94885 15.2589 3.58025C15.7906 3.42659 16.3591 3.46045 16.8686 3.67614ZM17.6835 4.23937L17.6691 4.25831C17.4319 4.77926 17.3894 5.36757 17.5493 5.917C17.6558 6.28742 17.8504 6.62676 18.1165 6.90625L18.1257 6.89075C18.3656 6.36856 18.4091 5.77783 18.2484 5.22631C18.1422 4.85694 17.9484 4.51844 17.6835 4.23937ZM13.1748 1.76769C13.1846 1.76367 13.1949 1.76023 13.2053 1.75793L15.9707 0.963323L15.2497 0.327175L13.4673 0.839308L13.1748 1.76769Z" fill="black"/>
</g>
<defs>
<clipPath id="clip0_319_1145">
<rect width="23.2662" height="29.4" fill="white"/>
</clipPath>
</defs>
</svg>
