<svg width="224" height="224" viewBox="0 0 224 224" fill="none" xmlns="http://www.w3.org/2000/svg">
<circle cx="112" cy="112" r="74.5" stroke="#323232"/>
<path d="M117.098 202L121.473 218H119.504L116.16 204.969H116.004L112.598 218H110.41L107.004 204.969H106.848L103.504 218H101.535L105.91 202H107.91L111.441 214.75H111.566L115.098 202H117.098Z" fill="black"/>
<path d="M87.9832 198.48C89.1 198.78 89.9974 199.284 90.6752 199.994C91.3467 200.708 91.782 201.569 91.9811 202.576C92.1738 203.588 92.1111 204.687 91.793 205.875C91.4748 207.062 90.9781 208.05 90.3028 208.84C89.6211 209.633 88.8223 210.179 87.9064 210.479C86.9841 210.781 85.9997 210.793 84.9533 210.512C84.3496 210.351 83.7804 210.09 83.2457 209.731C82.711 209.372 82.2629 208.902 81.9012 208.32C81.5382 207.742 81.3124 207.046 81.2238 206.229C81.1352 205.413 81.2358 204.464 81.5257 203.382L81.7279 202.628L90.6627 205.022L90.2502 206.561L83.1265 204.652C82.9512 205.306 82.9257 205.925 83.0498 206.508C83.1689 207.09 83.4276 207.593 83.826 208.018C84.2194 208.442 84.738 208.74 85.382 208.912C86.0913 209.103 86.7523 209.091 87.3648 208.878C87.971 208.668 88.4872 208.321 88.9136 207.837C89.3399 207.352 89.6386 206.791 89.8098 206.152L90.0848 205.126C90.3194 204.25 90.3673 203.468 90.2286 202.778C90.0834 202.092 89.7817 201.518 89.3233 201.055C88.8635 200.598 88.2739 200.273 87.5545 200.08C87.0866 199.955 86.6465 199.907 86.2342 199.937C85.8154 199.97 85.432 200.083 85.0838 200.275C84.7343 200.473 84.4302 200.753 84.1714 201.115L82.5803 200.171C82.9178 199.636 83.3596 199.204 83.9059 198.876C84.4508 198.553 85.0707 198.352 85.7656 198.274C86.4592 198.201 87.1984 198.27 87.9832 198.48Z" fill="black"/>
<path d="M67.6564 190.032C68.5225 190.532 69.1607 191.192 69.5711 192.012C69.979 192.837 70.1383 193.759 70.0492 194.778C69.9574 195.802 69.5938 196.864 68.9584 197.964C68.3282 199.056 67.5941 199.895 66.7562 200.482C65.9183 201.068 65.0392 201.388 64.1191 201.44C63.1989 201.492 62.3013 201.265 61.4263 200.76C60.7497 200.37 60.2803 199.948 60.0181 199.496C59.7487 199.046 59.5924 198.619 59.5489 198.215C59.4984 197.813 59.4666 197.488 59.4535 197.24L59.3182 197.162L56.365 202.277L54.7683 201.355L62.7683 187.498L64.3109 188.389L63.389 189.986L63.5785 190.095C63.8051 189.973 64.11 189.831 64.4932 189.667C64.8738 189.508 65.3299 189.431 65.8615 189.437C66.3906 189.448 66.9889 189.646 67.6564 190.032ZM66.6118 191.341C65.9713 190.971 65.3337 190.826 64.6989 190.904C64.0616 190.987 63.456 191.26 62.8822 191.723C62.3059 192.19 61.7911 192.816 61.338 193.601C60.8901 194.376 60.6109 195.12 60.5005 195.832C60.3875 196.549 60.4582 197.197 60.7128 197.777C60.9647 198.362 61.4154 198.841 62.0649 199.216C62.7415 199.607 63.4056 199.759 64.0572 199.672C64.7016 199.587 65.3072 199.314 65.8739 198.854C66.4334 198.395 66.9241 197.8 67.346 197.069C67.7731 196.33 68.0484 195.592 68.1718 194.858C68.2881 194.125 68.2259 193.452 67.985 192.838C67.7371 192.225 67.2794 191.726 66.6118 191.341Z" fill="black"/>
<path d="M48.9709 175.897C49.678 176.604 50.1237 177.407 50.3078 178.306C50.4883 179.208 50.4036 180.14 50.0537 181.101C49.7001 182.066 49.0741 182.998 48.1754 183.896C47.2842 184.788 46.358 185.408 45.3967 185.758C44.4355 186.108 43.5038 186.189 42.6015 186.001C41.6992 185.813 40.8908 185.362 40.1763 184.648C39.6239 184.095 39.2795 183.567 39.1433 183.062C38.9996 182.558 38.9591 182.105 39.0217 181.703C39.077 181.302 39.1304 180.98 39.1819 180.737L39.0714 180.626L34.8951 184.802L33.5914 183.499L44.9051 172.185L46.1646 173.444L44.8609 174.748L45.0156 174.903C45.266 174.844 45.5975 174.785 46.0099 174.726C46.4187 174.671 46.8791 174.715 47.391 174.859C47.8992 175.006 48.4259 175.352 48.9709 175.897ZM47.623 176.892C47.1001 176.369 46.5218 176.063 45.8884 175.975C45.2513 175.89 44.5957 175.997 43.9218 176.295C43.2441 176.597 42.5849 177.068 41.9441 177.709C41.3106 178.343 40.8484 178.989 40.5575 179.648C40.2628 180.311 40.1634 180.956 40.2592 181.582C40.3512 182.212 40.6624 182.792 41.1928 183.322C41.7452 183.874 42.3473 184.193 42.9992 184.278C43.6437 184.362 44.2992 184.255 44.9658 183.957C45.6251 183.659 46.253 183.211 46.8496 182.615C47.4536 182.011 47.9103 181.37 48.2196 180.692C48.5216 180.015 48.6358 179.348 48.5621 178.693C48.4811 178.037 48.1681 177.437 47.623 176.892Z" fill="black"/>
<path d="M34.5198 157.799L24.1275 163.799L23.2057 162.202L33.598 156.202L34.5198 157.799ZM21.9267 163.987C22.1064 164.298 22.1554 164.628 22.0736 164.976C21.9892 165.319 21.7982 165.577 21.5005 165.749C21.2028 165.92 20.8841 165.957 20.5445 165.858C20.2023 165.755 19.9414 165.548 19.7617 165.237C19.582 164.926 19.5343 164.598 19.6187 164.255C19.7005 163.907 19.8903 163.647 20.188 163.475C20.4857 163.303 20.8056 163.269 21.1478 163.372C21.4874 163.471 21.7471 163.676 21.9267 163.987Z" fill="black"/>
<path d="M18.7158 139.483L25.6886 137.615L26.1658 139.396L14.5747 142.502L14.1137 140.781L15.9248 140.296L15.8844 140.145C15.223 140.031 14.6395 139.745 14.134 139.288C13.6235 138.831 13.251 138.165 13.0165 137.29C12.8062 136.505 12.7831 135.775 12.9474 135.1C13.1066 134.427 13.4669 133.84 14.0283 133.339C14.5846 132.839 15.3558 132.457 16.3419 132.193L23.707 130.22L24.1842 132.001L16.9398 133.942C16.0292 134.186 15.3832 134.612 15.0018 135.221C14.6154 135.832 14.5327 136.549 14.7538 137.375C14.9061 137.943 15.1655 138.418 15.532 138.8C15.8971 139.176 16.3505 139.43 16.8922 139.56C17.4338 139.689 18.0417 139.664 18.7158 139.483Z" fill="black"/>
<path d="M26.75 112.172C26.75 113.062 26.6354 113.828 26.4063 114.469C26.1823 115.109 25.8854 115.643 25.5156 116.07C25.151 116.492 24.7604 116.828 24.3438 117.078L23.3125 115.609C23.5313 115.443 23.7813 115.232 24.0625 114.977C24.349 114.721 24.5964 114.372 24.8047 113.93C25.0182 113.482 25.125 112.896 25.125 112.172C25.125 111.203 24.8906 110.404 24.4219 109.773C23.9531 109.143 23.2187 108.828 22.2187 108.828H19.7812V108.984C20 109.12 20.2708 109.312 20.5938 109.562C20.9115 109.807 21.1953 110.161 21.4453 110.625C21.6901 111.083 21.8125 111.703 21.8125 112.484C21.8125 113.453 21.5833 114.323 21.125 115.094C20.6667 115.859 20 116.466 19.125 116.914C18.25 117.357 17.1875 117.578 15.9375 117.578C14.7083 117.578 13.638 117.362 12.7266 116.93C11.8099 116.497 11.1016 115.896 10.6016 115.125C10.0964 114.354 9.84375 113.464 9.84375 112.453C9.84375 111.672 9.97396 111.052 10.2344 110.594C10.4896 110.13 10.7812 109.776 11.1094 109.531C11.4323 109.281 11.6979 109.089 11.9062 108.953V108.766H10V106.984H22.3438C23.375 106.984 24.2135 107.219 24.8594 107.687C25.5104 108.151 25.987 108.776 26.2891 109.562C26.5964 110.344 26.75 111.214 26.75 112.172ZM20.1562 112.234C20.1562 111.495 19.987 110.87 19.6484 110.359C19.3099 109.849 18.8229 109.461 18.1875 109.195C17.5521 108.93 16.7917 108.797 15.9062 108.797C15.0417 108.797 14.2786 108.927 13.6172 109.187C12.9557 109.448 12.4375 109.833 12.0625 110.344C11.6875 110.854 11.5 111.484 11.5 112.234C11.5 113.016 11.6979 113.667 12.0937 114.187C12.4896 114.703 13.0208 115.091 13.6875 115.352C14.3542 115.607 15.0937 115.734 15.9062 115.734C16.7396 115.734 17.4766 115.604 18.1172 115.344C18.7526 115.078 19.2526 114.687 19.6172 114.172C19.9766 113.651 20.1562 113.005 20.1562 112.234Z" fill="black"/>
<path d="M31.5096 71.4146L15.4657 67.2035L16.4501 65.4985L29.4073 69.1183L29.4855 68.983L19.9032 59.5175L20.9969 57.6231L33.9855 61.1888L34.0636 61.0535L24.4501 51.6421L25.4344 49.9371L37.1033 61.7259L36.1033 63.458L23.2959 60.1411L23.2334 60.2494L32.5096 69.6826L31.5096 71.4146Z" fill="black"/>
<path d="M49.1136 47.9601C48.296 48.7777 47.4103 49.3025 46.4564 49.5345C45.5026 49.7591 44.5395 49.7057 43.5672 49.3743C42.595 49.0355 41.6742 48.4315 40.8051 47.5623C39.9359 46.6932 39.3283 45.7688 38.9821 44.7891C38.6359 43.8021 38.5622 42.8372 38.7611 41.8944C38.96 40.9442 39.4424 40.0861 40.2085 39.3201C40.6504 38.8782 41.1605 38.5154 41.7387 38.2318C42.3169 37.9483 42.9485 37.7954 43.6335 37.7733C44.3149 37.7475 45.0312 37.9004 45.7825 38.2318C46.5338 38.5633 47.3053 39.1249 48.0971 39.9167L48.6496 40.4692L42.1088 47.0099L40.9819 45.8829L46.1968 40.668C45.718 40.1893 45.1951 39.8578 44.6279 39.6737C44.0644 39.4858 43.4991 39.4582 42.9319 39.5908C42.3685 39.7197 41.851 40.0199 41.3796 40.4913C40.8603 41.0105 40.5399 41.5887 40.4184 42.2259C40.2969 42.8556 40.3392 43.4762 40.5455 44.0876C40.7517 44.6989 41.0887 45.2384 41.5564 45.7062L42.3077 46.4575C42.9485 47.0983 43.6022 47.531 44.2688 47.7557C44.9354 47.973 45.5836 47.9987 46.2134 47.833C46.8394 47.6636 47.4158 47.3156 47.9425 46.7889C48.285 46.4464 48.5464 46.0892 48.7269 45.7172C48.9074 45.3379 49.0013 44.9493 49.0086 44.5516C49.0123 44.1502 48.9221 43.7469 48.738 43.3418L50.351 42.4358C50.6457 42.9956 50.7985 43.5941 50.8096 44.2312C50.8169 44.8646 50.6807 45.5018 50.4008 46.1426C50.1172 46.7797 49.6881 47.3855 49.1136 47.9601Z" fill="black"/>
<path d="M66.5936 34.5816C65.7275 35.0816 64.8367 35.3042 63.921 35.2495C63.0028 35.1903 62.1247 34.8673 61.2868 34.2806C60.4463 33.6893 59.7083 32.8434 59.0729 31.7428C58.4427 30.6513 58.083 29.596 57.9938 28.577C57.9046 27.558 58.0675 26.637 58.4825 25.814C58.8975 24.9911 59.5425 24.327 60.4175 23.8218C61.0941 23.4312 61.6937 23.2354 62.2163 23.2343C62.7408 23.2262 63.1889 23.3043 63.5604 23.4687C63.9339 23.6259 64.2313 23.7609 64.4528 23.8736L64.5881 23.7955L61.635 18.6805L63.2317 17.7587L71.2317 31.6151L69.6891 32.5057L68.7672 30.9089L68.5778 31.0183C68.5699 31.2755 68.541 31.6109 68.4912 32.0246C68.4387 32.4337 68.2769 32.867 68.0057 33.3243C67.7318 33.777 67.2611 34.1961 66.5936 34.5816ZM65.9819 33.0222C66.6224 32.6524 67.0674 32.173 67.3167 31.584C67.5634 30.9905 67.6299 30.3297 67.5162 29.6015C67.3999 28.8688 67.1152 28.11 66.662 27.3252C66.2141 26.5493 65.7094 25.9356 65.148 25.484C64.5839 25.0278 63.9871 24.7649 63.3576 24.6954C62.7254 24.6213 62.0846 24.7718 61.4351 25.1468C60.7585 25.5374 60.2949 26.0366 60.0444 26.6443C59.7958 27.2449 59.7293 27.9058 59.8449 28.6269C59.9624 29.3409 60.2321 30.0632 60.654 30.7939C61.0811 31.5336 61.5818 32.1406 62.1563 32.6148C62.7327 33.0819 63.3471 33.3647 63.9993 33.4632C64.6535 33.5546 65.3144 33.4076 65.9819 33.0222Z" fill="black"/>
<path d="M88.1778 25.4678C87.2119 25.7266 86.2938 25.7111 85.4235 25.4212C84.5518 25.1264 83.7873 24.5871 83.1298 23.8035C82.4709 23.0149 81.977 22.0068 81.6481 20.7793C81.3219 19.5618 81.2476 18.4494 81.4252 17.442C81.6028 16.4346 81.9985 15.5872 82.6123 14.8997C83.2261 14.2122 84.021 13.7377 84.997 13.4761C85.7517 13.2739 86.3815 13.24 86.8866 13.3742C87.3954 13.5021 87.8079 13.6935 88.1243 13.9485C88.4443 14.197 88.6967 14.4044 88.8814 14.5706L89.0323 14.5301L87.5037 8.82515L89.2846 8.34795L93.4257 23.8028L91.7052 24.2638L91.228 22.4829L91.0167 22.5395C90.9425 22.7858 90.8278 23.1023 90.6726 23.489C90.516 23.8707 90.2476 24.2472 89.8672 24.6188C89.4855 24.9852 88.9224 25.2682 88.1778 25.4678ZM87.9906 23.8032C88.705 23.6118 89.2588 23.2639 89.6521 22.7595C90.044 22.2501 90.2793 21.629 90.358 20.8962C90.4352 20.1583 90.3566 19.3517 90.1221 18.4763C89.8902 17.611 89.5615 16.8876 89.1361 16.306C88.7093 15.7194 88.2009 15.311 87.6108 15.0809C87.0194 14.8457 86.3614 14.8252 85.637 15.0193C84.8824 15.2215 84.3054 15.5837 83.9061 16.1059C83.5105 16.6217 83.2752 17.2428 83.2003 17.9693C83.129 18.6893 83.2026 19.4569 83.4209 20.2719C83.642 21.0969 83.9686 21.8128 84.4008 22.4196C84.8367 23.0199 85.3569 23.4521 85.9614 23.7161C86.5697 23.9737 87.2461 24.0027 87.9906 23.8032Z" fill="black"/>
<path d="M111.077 22V10L112.921 10V22H111.077ZM112.015 8C111.655 8 111.345 7.8776 111.085 7.63281C110.83 7.38802 110.702 7.09375 110.702 6.75C110.702 6.40625 110.83 6.11198 111.085 5.86719C111.345 5.6224 111.655 5.5 112.015 5.5C112.374 5.5 112.681 5.6224 112.937 5.86719C113.197 6.11198 113.327 6.40625 113.327 6.75C113.327 7.09375 113.197 7.38802 112.937 7.63281C112.681 7.8776 112.374 8 112.015 8Z" fill="black"/>
<path d="M134.84 17.4722L132.972 24.4449L131.191 23.9677L134.296 12.3766L136.017 12.8376L135.532 14.6488L135.683 14.6892C136.112 14.1734 136.651 13.811 137.3 13.6021C137.951 13.3882 138.714 13.3985 139.589 13.633C140.374 13.8433 141.017 14.1883 141.52 14.668C142.023 15.1427 142.352 15.7483 142.505 16.4849C142.659 17.2165 142.605 18.0753 142.34 19.0613L140.367 26.4265L138.586 25.9493L140.527 18.7049C140.771 17.7943 140.725 17.0216 140.388 16.3867C140.053 15.7469 139.472 15.3164 138.647 15.0953C138.079 14.943 137.538 14.9301 137.024 15.0567C136.515 15.1845 136.069 15.4506 135.686 15.8547C135.302 16.2589 135.02 16.798 134.84 17.4722Z" fill="black"/>
<path d="M154.476 38.0861C153.705 37.6408 153.099 37.1587 152.659 36.64C152.216 36.1257 151.902 35.6017 151.717 35.0679C151.534 34.5412 151.438 34.0349 151.43 33.5491L153.218 33.3904C153.253 33.6632 153.31 33.9851 153.391 34.3563C153.468 34.732 153.647 35.1207 153.926 35.5225C154.207 35.9314 154.661 36.3168 155.288 36.6788C156.127 37.1632 156.937 37.3599 157.717 37.2691C158.497 37.1783 159.137 36.6998 159.637 35.8338L160.856 33.7229L160.721 33.6447C160.494 33.7665 160.192 33.9047 159.814 34.0593C159.443 34.2121 158.994 34.2808 158.468 34.2655C157.948 34.2484 157.351 34.0445 156.674 33.6539C155.835 33.1695 155.196 32.5361 154.758 31.7538C154.324 30.974 154.132 30.0933 154.181 29.1116C154.236 28.1324 154.575 27.1016 155.2 26.0191C155.815 24.9546 156.537 24.1357 157.367 23.5625C158.2 22.9848 159.075 22.6722 159.993 22.6246C160.913 22.5725 161.81 22.799 162.685 23.3042C163.362 23.6949 163.834 24.1175 164.1 24.5722C164.374 25.025 164.535 25.4547 164.583 25.8612C164.638 26.2659 164.672 26.5923 164.685 26.8404L164.848 26.9342L165.801 25.2833L167.343 26.1739L161.171 36.8639C160.656 37.757 160.034 38.366 159.305 38.691C158.578 39.023 157.798 39.1232 156.966 38.9916C156.136 38.8671 155.306 38.5653 154.476 38.0861ZM157.719 32.3445C158.359 32.7143 158.985 32.8802 159.596 32.8422C160.208 32.8042 160.787 32.5765 161.335 32.159C161.883 31.7416 162.378 31.1494 162.821 30.3826C163.253 29.6339 163.522 28.908 163.627 28.2049C163.732 27.5019 163.657 26.8604 163.403 26.2804C163.148 25.7004 162.696 25.223 162.047 24.848C161.37 24.4573 160.707 24.3032 160.058 24.3856C159.414 24.4706 158.812 24.7367 158.253 25.1838C157.699 25.6335 157.219 26.2102 156.812 26.9139C156.396 27.6356 156.14 28.3389 156.045 29.0239C155.958 29.707 156.046 30.3354 156.31 30.9089C156.582 31.4805 157.051 31.9591 157.719 32.3445Z" fill="black"/>
<path d="M187.393 62.5854L199.062 50.7965L200.046 52.5015L190.433 61.9129L190.511 62.0482L203.499 58.4825L204.593 60.3769L195.011 69.8425L195.089 69.9778L208.046 66.3579L209.03 68.0629L192.987 72.2741L191.987 70.542L201.263 61.1089L201.2 61.0006L188.393 64.3174L187.393 62.5854Z" fill="black"/>
<path d="M198.903 89.5597C198.604 88.4428 198.592 87.4133 198.868 86.4713C199.151 85.5329 199.678 84.7255 200.452 84.0493C201.231 83.3767 202.215 82.8813 203.402 82.5632C204.589 82.245 205.694 82.181 206.715 82.371C207.743 82.5647 208.615 82.9833 209.332 83.627C210.056 84.2743 210.558 85.1212 210.838 86.1676C211 86.7713 211.059 87.3944 211.016 88.0369C210.972 88.6795 210.789 89.3029 210.465 89.9072C210.147 90.5101 209.656 91.054 208.994 91.5389C208.331 92.0239 207.459 92.4112 206.377 92.701L205.623 92.9033L203.228 83.9684L204.768 83.5559L206.677 90.6796C207.331 90.5044 207.879 90.2172 208.322 89.8181C208.767 89.4241 209.073 88.9483 209.242 88.3908C209.412 87.8384 209.411 87.2402 209.238 86.5962C209.048 85.8869 208.708 85.3203 208.217 84.8965C207.732 84.4764 207.174 84.2028 206.541 84.0757C205.908 83.9486 205.273 83.9707 204.634 84.1419L203.607 84.4169C202.732 84.6514 202.03 85.0012 201.503 85.4662C200.981 85.9348 200.635 86.4833 200.463 87.1115C200.297 87.7384 200.31 88.4116 200.503 89.131C200.628 89.5989 200.807 90.0039 201.039 90.3462C201.277 90.6921 201.567 90.9678 201.908 91.173C202.253 91.3769 202.648 91.5004 203.091 91.5435L203.069 93.3935C202.437 93.3687 201.842 93.2018 201.285 92.8928C200.732 92.5825 200.249 92.1459 199.834 91.5831C199.424 91.019 199.114 90.3445 198.903 89.5597Z" fill="black"/>
<path d="M201.75 111.387C201.75 110.387 202.003 109.504 202.508 108.738C203.018 107.973 203.737 107.374 204.664 106.941C205.596 106.509 206.698 106.293 207.969 106.293C209.229 106.293 210.323 106.509 211.25 106.941C212.177 107.374 212.893 107.975 213.398 108.746C213.904 109.517 214.156 110.408 214.156 111.418C214.156 112.199 214.026 112.816 213.766 113.27C213.51 113.728 213.219 114.077 212.891 114.316C212.568 114.561 212.302 114.751 212.094 114.887V115.043H218V116.887H202V115.105H203.844V114.887C203.625 114.751 203.349 114.559 203.016 114.309C202.688 114.059 202.393 113.702 202.133 113.238C201.878 112.775 201.75 112.158 201.75 111.387ZM203.406 111.637C203.406 112.376 203.599 113.001 203.984 113.512C204.375 114.022 204.914 114.41 205.602 114.676C206.294 114.941 207.094 115.074 208 115.074C208.896 115.074 209.68 114.944 210.352 114.684C211.029 114.423 211.555 114.038 211.93 113.527C212.31 113.017 212.5 112.387 212.5 111.637C212.5 110.855 212.299 110.204 211.898 109.684C211.503 109.168 210.964 108.78 210.281 108.52C209.604 108.264 208.844 108.137 208 108.137C207.146 108.137 206.37 108.267 205.672 108.527C204.979 108.793 204.427 109.184 204.016 109.699C203.609 110.22 203.406 110.866 203.406 111.637Z" fill="black"/>
<path d="M198.851 134.637C199.11 133.671 199.583 132.884 200.269 132.275C200.96 131.667 201.809 131.275 202.817 131.097C203.829 130.921 204.949 130.997 206.176 131.326C207.394 131.653 208.394 132.144 209.178 132.802C209.962 133.459 210.498 134.226 210.786 135.101C211.075 135.976 211.088 136.902 210.827 137.878C210.624 138.633 210.339 139.195 209.97 139.565C209.605 139.942 209.233 140.204 208.854 140.35C208.479 140.503 208.173 140.618 207.937 140.695L207.896 140.846L213.601 142.374L213.124 144.155L197.669 140.014L198.13 138.294L199.911 138.771L199.968 138.56C199.792 138.372 199.575 138.115 199.318 137.787C199.065 137.46 198.873 137.04 198.742 136.524C198.615 136.011 198.652 135.382 198.851 134.637ZM200.386 135.307C200.195 136.021 200.219 136.675 200.459 137.268C200.705 137.862 201.125 138.376 201.72 138.811C202.321 139.247 203.059 139.582 203.934 139.816C204.799 140.048 205.59 140.125 206.306 140.048C207.028 139.971 207.636 139.735 208.13 139.339C208.629 138.945 208.976 138.385 209.17 137.661C209.372 136.906 209.347 136.225 209.095 135.618C208.846 135.018 208.426 134.504 207.834 134.075C207.246 133.654 206.544 133.334 205.729 133.115C204.904 132.894 204.121 132.819 203.38 132.89C202.642 132.967 202.007 133.202 201.476 133.593C200.949 133.991 200.586 134.563 200.386 135.307Z" fill="black"/>
<path d="M190.403 156.201L200.795 162.201L199.873 163.798L189.481 157.798L190.403 156.201ZM202.059 164.013C202.238 163.702 202.499 163.495 202.841 163.392C203.181 163.293 203.5 163.33 203.797 163.501C204.095 163.673 204.286 163.931 204.371 164.274C204.452 164.622 204.403 164.952 204.224 165.263C204.044 165.574 203.784 165.779 203.445 165.878C203.103 165.981 202.783 165.947 202.485 165.775C202.187 165.603 201.997 165.343 201.916 164.995C201.831 164.652 201.879 164.324 202.059 164.013Z" fill="black"/>
<path d="M182.444 179.044L177.34 173.94L178.644 172.636L187.129 181.122L185.869 182.381L184.544 181.055L184.433 181.166C184.665 181.796 184.709 182.444 184.566 183.11C184.426 183.781 184.035 184.436 183.394 185.077C182.82 185.651 182.199 186.036 181.533 186.232C180.87 186.43 180.181 186.412 179.467 186.176C178.756 185.944 178.04 185.467 177.318 184.745L171.926 179.354L173.23 178.05L178.533 183.353C179.2 184.02 179.892 184.366 180.61 184.392C181.332 184.421 181.995 184.134 182.599 183.53C183.015 183.114 183.297 182.652 183.444 182.144C183.588 181.639 183.58 181.12 183.422 180.586C183.264 180.052 182.938 179.538 182.444 179.044Z" fill="black"/>
<path d="M154.774 185.742C155.545 185.297 156.266 185.013 156.935 184.891C157.602 184.765 158.213 184.755 158.768 184.862C159.315 184.967 159.801 185.137 160.226 185.373L159.47 187C159.216 186.894 158.908 186.783 158.547 186.667C158.183 186.547 157.757 186.507 157.269 186.548C156.774 186.587 156.214 186.787 155.587 187.149C154.748 187.634 154.173 188.236 153.861 188.957C153.55 189.679 153.644 190.472 154.144 191.338L155.363 193.449L155.498 193.371C155.506 193.114 155.537 192.783 155.593 192.378C155.646 191.981 155.81 191.558 156.087 191.109C156.361 190.668 156.837 190.252 157.514 189.862C158.353 189.377 159.22 189.141 160.117 189.152C161.009 189.167 161.868 189.441 162.694 189.974C163.514 190.511 164.237 191.32 164.862 192.403C165.477 193.467 165.825 194.502 165.906 195.508C165.99 196.518 165.823 197.432 165.406 198.25C164.991 199.073 164.346 199.737 163.471 200.243C162.794 200.633 162.192 200.83 161.665 200.834C161.136 200.845 160.684 200.769 160.308 200.608C159.93 200.453 159.63 200.319 159.409 200.206L159.246 200.3L160.199 201.951L158.657 202.842L152.485 192.152C151.969 191.259 151.753 190.415 151.836 189.622C151.912 188.826 152.215 188.101 152.745 187.446C153.268 186.789 153.944 186.221 154.774 185.742ZM158.125 191.421C157.485 191.791 157.028 192.25 156.755 192.798C156.483 193.347 156.39 193.963 156.478 194.646C156.565 195.329 156.831 196.054 157.273 196.82C157.706 197.569 158.2 198.165 158.756 198.608C159.312 199.05 159.905 199.306 160.535 199.376C161.164 199.445 161.804 199.293 162.453 198.918C163.13 198.527 163.595 198.03 163.848 197.427C164.097 196.826 164.167 196.172 164.059 195.465C163.947 194.76 163.688 194.055 163.281 193.352C162.865 192.63 162.383 192.057 161.838 191.632C161.29 191.215 160.701 190.977 160.073 190.919C159.442 190.868 158.793 191.036 158.125 191.421Z" fill="black"/>
<path d="M103.579 113.616L119.767 93.856C120.324 93.1973 120.78 92.488 121.135 91.728C121.489 90.968 121.743 90.2333 121.895 89.524C122.047 88.8147 122.097 88.156 122.047 87.548C122.047 86.94 121.92 86.4333 121.667 86.028V85.42H130.559V86.028C129.039 86.8387 127.468 88.004 125.847 89.524C124.225 91.044 122.452 92.944 120.527 95.224L112.243 105.028L125.239 129.272C126.657 131.907 127.975 133.883 129.191 135.2C130.407 136.517 131.775 137.581 133.295 138.392V139H118.703V138.392C119.209 137.581 119.311 136.568 119.007 135.352C118.703 134.136 118.12 132.743 117.259 131.172L106.695 111.564L103.579 115.212V131.172C103.579 132.033 103.629 132.793 103.731 133.452C103.832 134.111 104.009 134.719 104.263 135.276C104.516 135.783 104.82 136.289 105.175 136.796C105.58 137.303 106.036 137.835 106.543 138.392V139H93.1668V138.392C93.7241 137.835 94.1801 137.303 94.5348 136.796C94.9401 136.289 95.2441 135.783 95.4468 135.276C95.6494 134.719 95.7761 134.111 95.8268 133.452C95.9281 132.793 95.9788 132.033 95.9788 131.172V93.248C95.9788 92.3867 95.9281 91.6267 95.8268 90.968C95.7761 90.3093 95.6494 89.7267 95.4468 89.22C95.2441 88.6627 94.9401 88.1307 94.5348 87.624C94.1801 87.1173 93.7241 86.5853 93.1668 86.028V85.42H106.543V86.028C106.036 86.5853 105.58 87.1173 105.175 87.624C104.82 88.1307 104.516 88.6627 104.263 89.22C104.009 89.7267 103.832 90.3093 103.731 90.968C103.629 91.6267 103.579 92.3867 103.579 93.248V113.616Z" fill="black"/>
</svg>
