<svg width="25" height="30" viewBox="0 0 25 30" fill="none" xmlns="http://www.w3.org/2000/svg">
<g clip-path="url(#clip0_319_1147)">
<path d="M20.9933 12.9104C21.0475 12.9532 21.0827 13.0162 21.0912 13.0853C21.0997 13.1545 21.0808 13.2243 21.0386 13.2793C20.9963 13.3343 20.9343 13.37 20.8661 13.3786C20.7979 13.3872 20.7291 13.368 20.6748 13.3253C19.2355 12.1892 18.029 11.0565 17.0487 9.9267C16.0638 8.79173 15.3056 7.65791 14.7678 6.52582C14.7061 6.39537 14.7599 6.23848 14.8885 6.17527C15.0172 6.11263 15.1719 6.16723 15.2342 6.29768C15.751 7.38552 16.4831 8.47911 17.4374 9.57903C18.3962 10.6841 19.5794 11.7944 20.9933 12.9104ZM23.1047 17.3934H21.9719L20.7882 28.7425H24.1973L23.1047 17.3934ZM22.0337 16.8014H23.048L22.9659 15.9492H22.1227L22.0337 16.8014ZM22.0207 15.3573H22.9647C23.1551 11.3473 22.2241 8.41015 20.4362 6.31606C19.2615 4.93973 17.7117 3.9197 15.8638 3.19275C15.9278 3.03414 15.9709 2.87266 15.9947 2.71175C16.0026 2.65715 16.0083 2.60256 16.0122 2.54797C17.9933 3.31515 19.6588 4.40357 20.9247 5.88679C22.8712 8.16649 23.8618 11.3593 23.5932 15.7211L24.875 29.0407C24.892 29.2206 24.7617 29.3809 24.5837 29.3976L20.4283 29.4005C20.2492 29.4005 20.1042 29.2528 20.1042 29.0712C20.1042 29.0511 20.1059 29.031 20.1098 29.012L21.4891 15.7866C18.0795 13.4781 15.6394 11.1852 14.1059 8.90264C13.5665 8.09868 13.1386 7.29645 12.8202 6.49479C12.8921 6.49938 12.9664 6.48329 13.0338 6.44421L13.4118 6.22527C13.7138 6.99245 14.1224 7.76135 14.6403 8.53256C16.1511 10.7818 18.5861 13.0517 22.0099 15.3498L22.0207 15.3573ZM1.82842 16.8014H2.84276L2.7538 15.9492H1.91059L1.82842 16.8014ZM2.90453 17.3934H1.77175L0.679208 28.7425H4.08831L2.90453 17.3934ZM2.85296 15.3573H2.8558L2.86656 15.3498C6.2904 13.0517 8.72539 10.7818 10.2361 8.53256C10.7269 7.80158 11.1201 7.07233 11.4165 6.3448C11.5049 6.33618 11.5933 6.30802 11.6755 6.26032L12.2671 5.9161C11.9373 6.91027 11.4398 7.9056 10.7705 8.90264C9.2371 11.1852 6.797 13.4781 3.38734 15.7866L4.76662 29.012C4.77058 29.031 4.77228 29.0511 4.77228 29.0712C4.77228 29.2528 4.62722 29.4005 4.44815 29.4005H0.322771L0.292737 29.3976C0.250483 29.3936 0.209418 29.3812 0.171896 29.3611C0.134373 29.341 0.101131 29.3136 0.0740729 29.2805C0.0470151 29.2473 0.0266739 29.2091 0.0142149 29.1679C0.00175595 29.1268 -0.00257589 29.0836 0.00146763 29.0407L1.28328 15.7211C1.01468 11.3593 2.00522 8.16649 3.95174 5.88679C5.21939 4.40127 6.88824 3.31113 8.87386 2.54395C8.93733 2.75198 9.01666 2.95541 9.10733 3.15597C7.21748 3.88522 5.63476 4.91617 4.44021 6.31606C2.65236 8.41015 1.72132 11.3473 1.91172 15.3573H2.85296ZM12.7601 3.11459C12.7505 3.57088 12.7068 4.02774 12.6281 4.4846C12.5091 4.28749 12.3974 4.08463 12.317 3.88809C12.2206 3.65248 12.1668 3.42434 12.2104 3.23297L12.2155 3.21228C12.2348 3.14332 12.2705 3.09218 12.3141 3.06057L12.3368 3.04908C12.4054 3.0123 12.4938 3.0031 12.585 3.02379L12.6071 3.03069C12.666 3.04735 12.7159 3.07609 12.7601 3.11459ZM4.53938 13.3253C4.4851 13.368 4.41631 13.3872 4.34811 13.3786C4.2799 13.37 4.21786 13.3343 4.17558 13.2793C4.08774 13.1644 4.10814 12.9994 4.22148 12.9104C5.63533 11.7944 6.81854 10.6841 7.77678 9.57903C8.73106 8.47969 9.46377 7.38552 9.98057 6.29768C9.99534 6.26666 10.016 6.2389 10.0413 6.21597C10.0667 6.19305 10.0963 6.17541 10.1283 6.16407C10.1604 6.15274 10.1944 6.14791 10.2283 6.14988C10.2622 6.15185 10.2954 6.16058 10.326 6.17556C10.3565 6.19054 10.3839 6.21148 10.4065 6.23719C10.4291 6.2629 10.4465 6.29287 10.4577 6.3254C10.4689 6.35792 10.4736 6.39236 10.4717 6.42675C10.4697 6.46114 10.4611 6.4948 10.4464 6.52582C9.9086 7.65791 9.15096 8.79173 8.16609 9.9267C7.18574 11.0559 5.97873 12.1892 4.53938 13.3253Z" fill="black"/>
<path fill-rule="evenodd" clip-rule="evenodd" d="M7.62109 18.9814V19.909C7.62109 19.9641 7.66756 20.0107 7.7214 20.0107H11.8553V26.359C11.8184 26.3791 11.7861 26.4073 11.7533 26.4355L8.69777 29.0709H9.94445L11.8553 27.5704V29.0703H13.336V27.6089L15.2094 29.0709H16.4561L13.4006 26.4355C13.3791 26.4171 13.3587 26.397 13.336 26.3814V20.0107H17.1559C17.2103 20.0107 17.2568 19.9653 17.2568 19.909V18.9814H7.62109Z" fill="black"/>
<path fill-rule="evenodd" clip-rule="evenodd" d="M12.5112 1.28602C13.0031 0.983743 13.3658 0.70503 13.9766 0.797551C14.9037 0.937195 15.5503 1.89976 15.31 2.78418C15.1196 2.63476 14.8912 2.5296 14.6402 2.49167C14.2571 2.4342 13.9993 2.52558 13.7443 2.66867C13.5562 2.37272 13.3471 2.14802 12.8881 2.01757L12.8172 1.99803C12.4817 1.91988 12.1378 1.96298 11.851 2.11871C11.5609 2.2756 11.3303 2.54167 11.2232 2.90773L11.1999 2.99738C11.0084 3.84214 11.5031 4.65817 11.9349 5.34202L11.3501 5.68108L10.8373 4.81908C10.2207 3.78123 9.13555 2.39168 9.42512 1.11362C9.62855 0.218286 10.4684 -0.162144 11.2594 0.0637005C11.9661 0.265984 12.1695 0.704455 12.5112 1.28602Z" fill="black"/>
<path fill-rule="evenodd" clip-rule="evenodd" d="M13.6145 3.19847C13.9403 2.99791 14.1806 2.81345 14.5852 2.87493C15.3451 2.98929 15.8205 3.93864 15.2493 4.59089C15.0867 4.77651 14.8033 4.97305 14.499 5.15866C14.1641 5.36267 13.8032 5.55289 13.5465 5.7023L12.8455 6.10859L12.5061 5.53794C12.0981 4.85064 11.3789 3.9306 11.571 3.08411C11.7053 2.49163 12.2618 2.23935 12.7854 2.38877C13.2535 2.52324 13.3884 2.81345 13.6145 3.19847Z" fill="black"/>
</g>
<defs>
<clipPath id="clip0_319_1147">
<rect width="24.8769" height="29.4" fill="white"/>
</clipPath>
</defs>
</svg>
