<svg width="30" height="30" viewBox="0 0 30 30" fill="none" xmlns="http://www.w3.org/2000/svg">
<g clip-path="url(#clip0_319_1164)">
<path d="M16.7553 22.4346L16.0627 21.8496C15.5549 22.4543 15.3046 23.1649 15.1816 23.8091L16.0717 23.9778C16.1749 23.4359 16.3821 22.876 16.7553 22.4346Z" fill="black"/>
<path d="M19.1598 21.0612L18.626 20.3291C18.3802 20.5085 18.0814 20.6611 17.7144 20.7759C17.4192 20.8674 17.1528 20.9858 16.9141 21.1276L17.3779 21.9064C17.5529 21.8023 17.7529 21.7117 17.9818 21.6408C18.4376 21.5009 18.8297 21.3017 19.1598 21.0612Z" fill="black"/>
<path d="M19.7098 18.1709C19.6864 18.7047 19.5357 19.2745 19.1992 19.7482L19.9394 20.2704C20.397 19.6207 20.5854 18.8814 20.6151 18.2086L19.7098 18.1709Z" fill="black"/>
<path d="M9.61216 24.3843C9.47934 23.6845 9.19763 23.0798 8.83966 22.5684L8.09766 23.0879V23.0888C8.39194 23.5087 8.61445 23.9896 8.72212 24.553L9.61216 24.3843Z" fill="black"/>
<path d="M6.66888 20.6836L6.22656 21.4741C6.67428 21.7253 7.15341 22.0537 7.56972 22.4664L8.20762 21.8222C7.71505 21.3359 7.17046 20.9644 6.66888 20.6836Z" fill="black"/>
<path d="M29.389 27.4388L28.8892 26.3406L23.6898 14.8867H16.4394C16.3416 15.059 16.2528 15.2223 16.1496 15.3981C15.8706 15.8755 15.6122 16.3079 15.3726 16.6991H19.3841L19.3769 16.7062C19.4442 16.7708 19.5689 17.0059 19.6362 17.3146L20.5191 17.1136C20.4841 16.9664 20.441 16.83 20.3926 16.6991H22.5226L26.6579 25.8085H15.2605L16.0186 25.691L16.0177 25.6838C16.0115 25.6353 15.9773 25.3769 15.9773 25.0109C15.9773 24.9642 15.9783 24.9167 15.9791 24.8673L15.0738 24.8467C15.072 24.9032 15.072 24.9571 15.072 25.0109C15.072 25.4299 15.1097 25.7287 15.1205 25.8085H9.67081C9.68517 25.6605 9.69504 25.5152 9.69682 25.3734L8.79065 25.3608C8.78887 25.5044 8.77721 25.6551 8.76016 25.8085H2.74252L4.96584 20.9106C5.09865 20.9555 5.26822 21.0183 5.46472 21.1009L5.81912 20.2682C5.6379 20.1911 5.47815 20.1301 5.34178 20.0816L6.87781 16.6991H9.10831C8.86966 16.3079 8.61126 15.8755 8.33133 15.3982C8.22815 15.2223 8.13931 15.059 8.04152 14.8868H5.70962L0.0113617 27.4388C-0.00661132 27.4792 -0.00299374 27.5249 0.0203195 27.5626C0.0445516 27.5985 0.0849192 27.62 0.128904 27.62H29.2714C29.3154 27.62 29.3558 27.5985 29.38 27.5626C29.4033 27.5249 29.4069 27.4792 29.389 27.4388Z" fill="black"/>
<path d="M12.2403 19.5613C12.5275 19.5613 18.2786 11.1544 18.2786 7.81853C18.2786 4.4845 15.5753 1.78027 12.2403 1.78027C8.90448 1.78027 6.20117 4.4845 6.20117 7.81853C6.20117 11.1544 11.9532 19.5613 12.2403 19.5613ZM9.9309 7.81853C9.9309 6.54267 10.9654 5.50908 12.2403 5.50908C13.5162 5.50908 14.5507 6.54267 14.5507 7.81853C14.5507 9.09438 13.5161 10.1288 12.2403 10.1288C10.9654 10.1289 9.9309 9.09438 9.9309 7.81853Z" fill="black"/>
</g>
<defs>
<clipPath id="clip0_319_1164">
<rect width="29.4" height="29.4" fill="white"/>
</clipPath>
</defs>
</svg>
