<svg width="44" height="34" viewBox="0 0 44 34" fill="none" xmlns="http://www.w3.org/2000/svg">
<path d="M0.438599 25.9809V8.02007L14.5802 17.0005L0.438599 25.9809ZM43.2154 31.1157C42.5906 32.5149 41.1694 33.4873 39.515 33.4873H4.4822C2.8366 33.4873 1.4154 32.5193 0.786198 31.1333C0.561798 30.6405 0.438599 30.0905 0.438599 29.5141L17.3654 18.7649L21.9986 21.7129L26.6362 18.7693L43.5586 29.5141C43.5586 30.0817 43.4354 30.6229 43.2154 31.1157ZM43.5586 8.02007V25.9765L29.417 17.0005L43.5586 8.02007ZM39.515 0.513672C41.1694 0.513672 42.5906 1.49047 43.2154 2.88527C43.4354 3.37367 43.5586 3.91487 43.5586 4.48687L21.9986 18.1753L0.438599 4.48687C0.438599 3.91047 0.561798 3.36047 0.786198 2.86767C1.4154 1.48167 2.8366 0.513672 4.4822 0.513672H39.515Z" fill="#C69247"/>
</svg>
