<svg width="41" height="30" viewBox="0 0 41 30" fill="none" xmlns="http://www.w3.org/2000/svg">
<path fill-rule="evenodd" clip-rule="evenodd" d="M29.1075 7.03936C30.857 7.52165 32.6964 7.65137 34.6223 7.43185C35.0946 7.37863 35.5569 7.31543 36.006 7.25556C38.1547 6.97616 39.9508 6.81651 40.5894 8.42637C41.717 11.2702 39.1658 17.4303 37.822 19.9216C35.0547 25.0539 29.5399 30.7949 23.1603 29.0919C22.1658 28.8258 21.271 28.3934 20.4727 27.808C22.5682 26.6405 24.2247 24.8477 25.5052 22.7389L25.5019 22.7455C27.0885 22.832 28.7383 23.6702 30.2484 24.555C30.3581 22.5626 28.4323 21.2388 26.716 20.4139C28.093 17.3239 28.8214 13.8547 29.0476 10.758C29.1141 9.80008 29.1507 8.49289 29.1075 7.03936ZM0.868312 2.16652C1.38719 1.67425 2.17217 1.54453 3.06358 1.60107C4.73665 1.70419 6.46625 2.21974 8.08942 2.6588C11.6185 3.61008 15.071 3.30075 18.4338 1.74743C18.8862 1.53788 19.3285 1.32168 19.7576 1.11545C21.8065 0.124256 23.5495 -0.630784 24.7169 0.766207C26.7825 3.23422 26.2736 10.2258 25.758 13.1562C24.6937 19.1932 21.0914 26.7502 14.1564 27.1594C10.4776 27.3756 7.34104 25.3067 4.64019 21.3984C2.92056 18.7375 1.6799 16.0034 0.921531 13.1928C0.376039 11.1439 -0.818055 3.77306 0.868312 2.16652ZM4.30424 11.4099C3.66895 11.2436 3.30307 11.0374 3.18 10.7946C2.69105 9.82336 6.72569 7.37198 9.57289 9.62379C13.6208 12.7737 5.74115 11.8357 4.30424 11.4099ZM10.8535 20.8862C9.77912 20.1179 9.20369 19.1699 8.89103 17.886C12.4401 19.6821 15.7629 19.5524 18.8562 17.0811C18.7332 18.1754 18.3773 19.1566 17.7652 20.0181C15.9591 22.5626 13.3182 22.6457 10.8535 20.8862ZM22.3088 9.99965C22.9042 9.72025 23.2268 9.45083 23.3033 9.18806C23.6093 8.14365 19.1955 6.46393 16.804 9.19804C13.3947 13.0331 20.975 10.6782 22.3088 9.99965ZM30.2084 13.9944C31.8848 12.6506 34.1799 12.9234 35.7764 14.2372C36.1822 14.5731 37.2965 15.551 36.6546 16.0865C36.4783 16.2329 36.1856 16.316 35.7798 16.336C34.7886 16.4491 33.345 16.2429 32.1942 15.7672C31.2894 15.4013 30.6043 14.9124 30.2084 13.9944Z" fill="black"/>
</svg>
