<svg width="130" height="113" viewBox="0 0 130 113" fill="none" xmlns="http://www.w3.org/2000/svg">
<path opacity="0.41" d="M101.469 63.9272C110.305 56.4714 118.589 47.3588 121.351 36.0371C124.112 24.7154 119.694 11.1846 109.201 6.49018C96.7744 0.967392 82.6912 9.80387 72.7502 19.1926C57.8387 33.828 46.2409 51.2248 34.9191 68.6216C38.2328 55.0907 39.8896 41.2838 39.6135 27.4768C39.3373 17.8119 37.4043 6.21405 28.5679 2.07195C19.7314 -2.34628 8.40972 3.45266 3.99148 12.2891C-0.702886 20.8494 -0.426696 31.3428 0.677862 41.2838C2.61084 60.3374 4.26761 107.833 27.1872 105.348C50.3829 102.587 83.7958 79.1149 101.469 63.9272Z" fill="#C69247"/>
<path d="M108.469 70.9272C117.305 63.4714 125.589 54.3588 128.351 43.0371C131.112 31.7154 126.694 18.1846 116.201 13.4902C103.774 7.96739 89.6912 16.8039 79.7502 26.1926C64.8387 40.828 53.2409 58.2248 41.9191 75.6216C45.2328 62.0907 46.8896 48.2838 46.6135 34.4768C46.3373 24.8119 44.4043 13.214 35.5679 9.07195C26.7314 4.65372 15.4097 10.4527 10.9915 19.2891C6.29711 27.8494 6.5733 38.3428 7.67786 48.2838C9.61084 67.3374 11.2676 114.833 34.1872 112.348C57.3829 109.587 90.7958 86.1149 108.469 70.9272Z" stroke="#C69247"/>
</svg>
