<svg width="68" height="57" viewBox="0 0 68 57" fill="none" xmlns="http://www.w3.org/2000/svg">
<path opacity="0.41" d="M49.6125 40.5075C54.8591 37.7461 59.8297 34.1563 62.3149 28.9097C64.8002 23.663 64.2479 16.4834 59.2774 12.8936C53.7546 8.75147 45.7465 11.5128 39.9476 15.3788C31.1111 20.9016 23.3792 28.3574 15.9234 35.8132C18.961 29.462 21.4463 22.8346 22.5509 15.9311C23.3793 10.9606 23.6554 5.16167 19.7895 2.12414C15.9235 -0.913396 9.84839 0.743424 6.53471 4.60938C3.22104 8.47533 2.39267 13.722 1.84039 18.4163C0.735835 28.0812 -3.40629 51.8292 8.19157 52.9338C20.3417 54.3145 39.1192 46.0303 49.6125 40.5075Z" fill="#C69247"/>
<path d="M52.6125 43.5075C57.8591 40.7461 62.8297 37.1563 65.3149 31.9097C67.8002 26.663 67.2479 19.4834 62.2774 15.8936C56.7546 11.7515 48.7465 14.5128 42.9476 18.3788C34.1111 23.9016 26.3792 31.3574 18.9234 38.8132C21.961 32.462 24.4463 25.8346 25.5509 18.9311C26.3793 13.9606 26.6554 8.16167 22.7895 5.12414C18.9235 2.0866 12.8484 3.74342 9.53471 7.60938C6.22104 11.4753 5.39267 16.722 4.84039 21.4163C3.73583 31.0812 -0.40629 54.8292 11.1916 55.9338C23.3417 57.3145 42.1192 49.0303 52.6125 43.5075Z" stroke="#C69247"/>
</svg>
