<svg width="59" height="71" viewBox="0 0 59 71" fill="none" xmlns="http://www.w3.org/2000/svg">
<path opacity="0.41" d="M57.9384 24.5321C57.6623 18.7331 56.8339 12.6581 53.2441 7.96371C49.6543 3.26934 42.7508 0.784064 37.7803 3.54546C31.7052 6.85913 30.6007 15.1433 31.4291 22.0468C32.5337 32.5401 35.8473 42.7573 38.8848 52.6983C34.7427 47.1755 29.7723 42.205 24.2495 37.7868C20.3835 34.7492 15.1369 31.9878 10.7187 34.197C6.30043 36.4061 4.91967 42.4811 6.85264 47.1755C8.78562 51.8699 12.9277 54.9074 17.0698 57.6688C25.0779 62.9155 44.4077 77.2747 50.7589 67.3337C57.3862 56.8404 58.4907 36.4061 57.9384 24.5321Z" fill="#C69247"/>
<path d="M52.9384 23.5321C52.6623 17.7331 51.8339 11.6581 48.2441 6.96371C44.6543 2.26934 37.7508 -0.215936 32.7803 2.54546C26.7052 5.85913 25.6007 14.1433 26.4291 21.0468C27.5337 31.5401 30.8473 41.7573 33.8848 51.6983C29.7427 46.1755 24.7723 41.205 19.2495 36.7868C15.3835 33.7492 10.1369 30.9878 5.71866 33.197C1.30043 35.4061 -0.0803337 41.4811 1.85264 46.1755C3.78562 50.8699 7.92774 53.9074 12.0698 56.6688C20.0779 61.9155 39.4077 76.2747 45.7589 66.3337C52.3862 55.8404 53.4907 35.4061 52.9384 23.5321Z" stroke="#C69247"/>
</svg>
