<svg width="102" height="83" viewBox="0 0 102 83" fill="none" xmlns="http://www.w3.org/2000/svg">
<path opacity="0.41" d="M73.5401 64.7876C81.5482 61.1978 89.5561 56.5034 93.9743 48.7715C98.3926 41.3158 98.3926 30.2702 91.7652 24.4713C84.0333 17.8439 71.8833 20.8815 62.4945 25.5758C48.4114 32.7555 36.2612 42.9726 24.1111 52.9136C29.6339 44.0772 33.776 34.4123 36.5374 24.1951C38.4703 17.0155 39.575 8.45518 34.0522 3.20853C28.5294 -2.03812 19.1405 -0.105154 13.8939 5.1415C8.64724 10.3881 6.43826 18.1201 5.05756 25.2997C2.29617 39.3828 -7.09261 74.4525 10.028 77.4901C27.9771 81.6321 57.2479 71.9673 73.5401 64.7876Z" fill="#C69247"/>
<path d="M77.5401 68.7876C85.5482 65.1978 93.5561 60.5034 97.9743 52.7715C102.393 45.3158 102.393 34.2702 95.7652 28.4713C88.0333 21.8439 75.8833 24.8815 66.4945 29.5758C52.4114 36.7555 40.2612 46.9726 28.1111 56.9136C33.6339 48.0772 37.776 38.4123 40.5374 28.1951C42.4703 21.0155 43.575 12.4552 38.0522 7.20853C32.5294 1.96188 23.1405 3.89485 17.8939 9.1415C12.6472 14.3881 10.4383 22.1201 9.05756 29.2997C6.29617 43.3828 -3.09261 78.4525 14.028 81.4901C31.9771 85.6322 61.2479 75.9673 77.5401 68.7876Z" stroke="#C69247"/>
</svg>
