<svg width="114" height="95" viewBox="0 0 114 95" fill="none" xmlns="http://www.w3.org/2000/svg">
<path opacity="0.41" d="M89.2564 73.6431C98.0759 69.0012 106.431 62.967 110.609 54.1475C114.786 45.3281 113.858 33.2593 105.503 27.225C96.2191 20.2623 82.7579 24.904 73.0101 31.4026C58.1563 40.6862 45.1592 53.2192 32.6263 65.7521C37.7323 55.0759 41.91 43.9355 43.7668 32.331C45.1593 23.9757 45.6235 14.2279 39.125 9.12194C32.6264 4.01595 22.4144 6.80101 16.8442 13.2995C11.274 19.7981 9.88156 28.6175 8.95319 36.5086C7.09647 52.7549 0.133702 92.6745 19.6293 94.5312C40.0533 96.8521 71.6176 82.9267 89.2564 73.6431Z" fill="#C69247"/>
<path d="M84.2564 68.6431C93.0759 64.0012 101.431 57.967 105.609 49.1475C109.786 40.3281 108.858 28.2593 100.503 22.225C91.2191 15.2623 77.7579 19.904 68.0101 26.4026C53.1563 35.6862 40.1592 48.2192 27.6263 60.7521C32.7323 50.0759 36.91 38.9355 38.7668 27.331C40.1593 18.9757 40.6235 9.22793 34.125 4.12194C27.6264 -0.984045 17.4144 1.80101 11.8442 8.29954C6.27401 14.7981 4.88156 23.6175 3.95319 31.5086C2.09647 47.7549 -4.8663 87.6745 14.6293 89.5312C35.0533 91.8521 66.6175 77.9267 84.2564 68.6431Z" stroke="#C69247"/>
</svg>
