<svg width="92" height="47" viewBox="0 0 92 47" fill="none" xmlns="http://www.w3.org/2000/svg">
<path d="M9.748 24.956L23.806 7.796C24.29 7.224 24.686 6.608 24.994 5.948C25.302 5.288 25.522 4.65 25.654 4.034C25.786 3.418 25.83 2.846 25.786 2.318C25.786 1.79 25.676 1.35 25.456 0.997998V0.469997H33.178V0.997998C31.858 1.702 30.494 2.714 29.086 4.034C27.678 5.354 26.138 7.004 24.466 8.984L17.272 17.498L28.558 38.552C29.79 40.84 30.934 42.556 31.99 43.7C33.046 44.844 34.234 45.768 35.554 46.472V47H22.882V46.472C23.322 45.768 23.41 44.888 23.146 43.832C22.882 42.776 22.376 41.566 21.628 40.202L12.454 23.174L9.748 26.342V40.202C9.748 40.95 9.792 41.61 9.88 42.182C9.968 42.754 10.122 43.282 10.342 43.766C10.562 44.206 10.826 44.646 11.134 45.086C11.486 45.526 11.882 45.988 12.322 46.472V47H0.706V46.472C1.19 45.988 1.586 45.526 1.894 45.086C2.246 44.646 2.51 44.206 2.686 43.766C2.862 43.282 2.972 42.754 3.016 42.182C3.104 41.61 3.148 40.95 3.148 40.202V7.268C3.148 6.52 3.104 5.86 3.016 5.288C2.972 4.716 2.862 4.21 2.686 3.77C2.51 3.286 2.246 2.824 1.894 2.384C1.586 1.944 1.19 1.482 0.706 0.997998V0.469997H12.322V0.997998C11.882 1.482 11.486 1.944 11.134 2.384C10.826 2.824 10.562 3.286 10.342 3.77C10.122 4.21 9.968 4.716 9.88 5.288C9.792 5.86 9.748 6.52 9.748 7.268V24.956ZM40.3359 7.268C40.3359 6.52 40.2919 5.86 40.2039 5.288C40.1599 4.716 40.0499 4.21 39.8739 3.77C39.6979 3.286 39.4339 2.824 39.0819 2.384C38.7739 1.944 38.3779 1.482 37.8939 0.997998V0.469997H49.5099V0.997998C49.0699 1.482 48.6739 1.944 48.3219 2.384C48.0139 2.824 47.7499 3.286 47.5299 3.77C47.3099 4.21 47.1559 4.716 47.0679 5.288C46.9799 5.86 46.9359 6.52 46.9359 7.268V40.202C46.9359 40.95 46.9799 41.61 47.0679 42.182C47.1559 42.754 47.3099 43.282 47.5299 43.766C47.7499 44.206 48.0139 44.646 48.3219 45.086C48.6739 45.526 49.0699 45.988 49.5099 46.472V47H37.8939V46.472C38.3779 45.988 38.7739 45.526 39.0819 45.086C39.4339 44.646 39.6979 44.206 39.8739 43.766C40.0499 43.282 40.1599 42.754 40.2039 42.182C40.2919 41.61 40.3359 40.95 40.3359 40.202V7.268ZM72.3676 0.469997H73.0276L87.0856 37.76C87.9216 40.004 88.6916 41.94 89.3956 43.568C90.1436 45.152 90.9356 46.12 91.7716 46.472V47H79.5616V46.472C80.4856 45.988 81.0136 45.086 81.1456 43.766C81.3216 42.402 81.1456 40.994 80.6176 39.542L77.5816 31.16L61.9396 30.962V30.566L58.3756 39.938C58.1116 40.642 57.9796 41.346 57.9796 42.05C57.9796 42.754 58.0676 43.414 58.2436 44.03C58.4196 44.602 58.6616 45.108 58.9696 45.548C59.2776 45.944 59.6076 46.252 59.9596 46.472V47H52.1056V46.472C52.6336 46.032 53.1176 45.636 53.5576 45.284C54.0416 44.932 54.4816 44.536 54.8776 44.096C55.3176 43.612 55.7356 43.018 56.1316 42.314C56.5276 41.61 56.9456 40.708 57.3856 39.608L72.3676 0.469997ZM77.2516 30.17L69.8596 9.842L62.2036 29.972L77.2516 30.17Z" fill="black"/>
</svg>
