<svg width="20" height="20" viewBox="0 0 20 20" fill="none" xmlns="http://www.w3.org/2000/svg">
<path d="M19 10C19 10.2486 18.8862 10.4871 18.6837 10.6629C18.4811 10.8387 18.2064 10.9375 17.92 10.9375H2.08C1.79357 10.9375 1.51886 10.8387 1.31632 10.6629C1.11379 10.4871 1 10.2486 1 10C1 9.75136 1.11379 9.5129 1.31632 9.33709C1.51886 9.16127 1.79357 9.0625 2.08 9.0625H17.92C18.2064 9.0625 18.4811 9.16127 18.6837 9.33709C18.8862 9.5129 19 9.75136 19 10Z" fill="black" stroke="black" stroke-width="0.3"/>
<path d="M19 3.9375C19 4.18614 18.8862 4.4246 18.6837 4.60041C18.4811 4.77623 18.2064 4.875 17.92 4.875H2.08C1.79357 4.875 1.51886 4.77623 1.31632 4.60041C1.11379 4.4246 1 4.18614 1 3.9375C1 3.68886 1.11379 3.4504 1.31632 3.27459C1.51886 3.09877 1.79357 3 2.08 3H17.92C18.2064 3 18.4811 3.09877 18.6837 3.27459C18.8862 3.4504 19 3.68886 19 3.9375Z" fill="black" stroke="black" stroke-width="0.3"/>
<path d="M19 16.0576C19 16.3063 18.8862 16.5447 18.6837 16.7205C18.4811 16.8963 18.2064 16.9951 17.92 16.9951H2.08C1.79357 16.9951 1.51886 16.8963 1.31632 16.7205C1.11379 16.5447 1 16.3063 1 16.0576C1 15.809 1.11379 15.5705 1.31632 15.3947C1.51886 15.2189 1.79357 15.1201 2.08 15.1201H17.92C18.2064 15.1201 18.4811 15.2189 18.6837 15.3947C18.8862 15.5705 19 15.809 19 16.0576Z" fill="black" stroke="black" stroke-width="0.3"/>
</svg>
