<svg width="22" height="20" viewBox="0 0 22 20" fill="none" xmlns="http://www.w3.org/2000/svg">
<path d="M16.7148 12.8588L19.572 12.1445L20.2863 15.0017" stroke="#F8F8F8" stroke-width="2" stroke-linecap="round" stroke-linejoin="round"/>
<path d="M19.572 12.1448C18.9375 13.9428 17.7849 15.5128 16.2596 16.6568C14.7342 17.8008 12.9043 18.4677 11.0006 18.5734C9.24072 18.5737 7.52344 18.0323 6.08196 17.0228C4.64049 16.0132 3.54469 14.5845 2.94342 12.9305M5.28627 7.14481L2.42913 7.8591L1.71484 5.00195" stroke="#F8F8F8" stroke-width="2" stroke-linecap="round" stroke-linejoin="round"/>
<path d="M2.42969 7.85826C3.62969 4.57254 7.3154 1.42969 11.0011 1.42969C12.7695 1.43466 14.4931 1.98648 15.9356 3.00951C17.3781 4.03254 18.4688 5.47669 19.0583 7.14397" stroke="#F8F8F8" stroke-width="2" stroke-linecap="round" stroke-linejoin="round"/>
</svg>
