<svg width="133" height="73" viewBox="0 0 133 73" fill="none" xmlns="http://www.w3.org/2000/svg">
<path d="M10.3323 37.6124L22.6962 22.5203C23.1219 22.0172 23.4702 21.4754 23.7411 20.895C24.012 20.3145 24.2055 19.7534 24.3216 19.2116C24.4376 18.6699 24.4763 18.1668 24.4376 17.7024C24.4376 17.238 24.3409 16.8511 24.1474 16.5415V16.0771H30.9389V16.5415C29.7779 17.1606 28.5783 18.0507 27.34 19.2116C26.1016 20.3726 24.7472 21.8237 23.2767 23.5651L16.9496 31.0531L26.8756 49.57C27.9591 51.5823 28.9653 53.0915 29.894 54.0977C30.8228 55.1038 31.8676 55.9165 33.0286 56.5356V57H21.8836V56.5356C22.2706 55.9165 22.348 55.1425 22.1158 54.2138C21.8836 53.285 21.4386 52.2208 20.7807 51.0212L12.7122 36.0452L10.3323 38.8314V51.0212C10.3323 51.6791 10.371 52.2595 10.4484 52.7626C10.5258 53.2657 10.6612 53.73 10.8547 54.1557C11.0482 54.5427 11.2804 54.9297 11.5513 55.3166C11.8609 55.7036 12.2091 56.11 12.5961 56.5356V57H2.37991V56.5356C2.80559 56.11 3.15387 55.7036 3.42475 55.3166C3.73434 54.9297 3.96652 54.5427 4.12131 54.1557C4.2761 53.73 4.37285 53.2657 4.41155 52.7626C4.48894 52.2595 4.52764 51.6791 4.52764 51.0212V22.0559C4.52764 21.398 4.48894 20.8176 4.41155 20.3145C4.37285 19.8114 4.2761 19.3664 4.12131 18.9794C3.96652 18.5538 3.73434 18.1474 3.42475 17.7605C3.15387 17.3735 2.80559 16.9672 2.37991 16.5415V16.0771H12.5961V16.5415C12.2091 16.9672 11.8609 17.3735 11.5513 17.7605C11.2804 18.1474 11.0482 18.5538 10.8547 18.9794C10.6612 19.3664 10.5258 19.8114 10.4484 20.3145C10.371 20.8176 10.3323 21.398 10.3323 22.0559V37.6124ZM37.2342 22.0559C37.2342 21.398 37.1955 20.8176 37.1181 20.3145C37.0794 19.8114 36.9827 19.3664 36.8279 18.9794C36.6731 18.5538 36.4409 18.1474 36.1313 17.7605C35.8604 17.3735 35.5122 16.9672 35.0865 16.5415V16.0771H45.3027V16.5415C44.9157 16.9672 44.5674 17.3735 44.2579 17.7605C43.987 18.1474 43.7548 18.5538 43.5613 18.9794C43.3678 19.3664 43.2324 19.8114 43.155 20.3145C43.0776 20.8176 43.0389 21.398 43.0389 22.0559V51.0212C43.0389 51.6791 43.0776 52.2595 43.155 52.7626C43.2324 53.2657 43.3678 53.73 43.5613 54.1557C43.7548 54.5427 43.987 54.9297 44.2579 55.3166C44.5674 55.7036 44.9157 56.11 45.3027 56.5356V57H35.0865V56.5356C35.5122 56.11 35.8604 55.7036 36.1313 55.3166C36.4409 54.9297 36.6731 54.5427 36.8279 54.1557C36.9827 53.73 37.0794 53.2657 37.1181 52.7626C37.1955 52.2595 37.2342 51.6791 37.2342 51.0212V22.0559ZM65.4059 16.0771H65.9864L78.3503 48.8735C79.0856 50.8471 79.7628 52.5498 80.3819 53.9816C81.0398 55.3747 81.7364 56.226 82.4716 56.5356V57H71.733V56.5356C72.5456 56.11 73.01 55.3166 73.1261 54.1557C73.2809 52.9561 73.1261 51.7178 72.6617 50.4407L69.9916 43.0688L56.2345 42.8947V42.5464L53.1 50.789C52.8678 51.4082 52.7517 52.0273 52.7517 52.6465C52.7517 53.2657 52.8291 53.8461 52.9839 54.3879C53.1387 54.891 53.3515 55.336 53.6224 55.723C53.8933 56.0713 54.1835 56.3421 54.4931 56.5356V57H47.5856V56.5356C48.0499 56.1486 48.4756 55.8004 48.8626 55.4908C49.2883 55.1812 49.6752 54.8329 50.0235 54.4459C50.4105 54.0203 50.7781 53.4979 51.1264 52.8787C51.4747 52.2595 51.8423 51.4662 52.2293 50.4988L65.4059 16.0771ZM69.7013 42.1981L63.2001 24.3197L56.4667 42.024L69.7013 42.1981Z" fill="black"/>
<path d="M91.2119 46.7758L94.3203 54.2115L97.51 45.252C97.6725 44.7915 97.6928 44.3717 97.5709 43.9924C97.4626 43.5996 97.3204 43.3084 97.1443 43.1188V42.9563H99.501V43.1188C99.0947 43.3355 98.7357 43.6944 98.4242 44.1956C98.1262 44.6832 97.8486 45.2791 97.5912 45.9834L93.5483 57.2793H93.3451L90.1352 49.5388L87.0877 57.2793H86.8845L82.1305 45.8006C81.8596 45.1234 81.6091 44.5545 81.3788 44.094C81.1486 43.6335 80.8167 43.3084 80.3833 43.1188V42.9563H84.3653V43.1188C84.0809 43.2678 83.9184 43.5522 83.8777 43.9721C83.8506 44.3784 83.9319 44.8051 84.1215 45.252L87.8597 54.2115L89.932 49.0512L88.5911 45.8006C88.3202 45.1234 88.0697 44.5545 87.8394 44.094C87.6092 43.6335 87.2773 43.3084 86.8439 43.1188V42.9563H90.8259V43.1188C90.5415 43.2678 90.3789 43.5522 90.3383 43.9721C90.3112 44.3784 90.3925 44.8051 90.5821 45.252L91.0291 46.3288L91.4557 45.252C91.5505 45.0218 91.5979 44.7983 91.5979 44.5816C91.6115 44.3649 91.5912 44.1685 91.537 43.9924C91.4963 43.8028 91.4286 43.6335 91.3338 43.4845C91.2525 43.3355 91.1713 43.2136 91.09 43.1188V42.9563H93.4467V43.1188C93.0404 43.3355 92.6882 43.6944 92.3903 44.1956C92.0923 44.6832 91.8079 45.2791 91.537 45.9834L91.2119 46.7758ZM107.714 51.6923H101.111C101.098 51.8277 101.084 51.9632 101.07 52.0986C101.07 52.2205 101.07 52.356 101.07 52.505C101.07 53.0738 101.158 53.5817 101.335 54.0287C101.524 54.4756 101.768 54.8549 102.066 55.1664C102.377 55.4779 102.73 55.7217 103.122 55.8978C103.529 56.0739 103.949 56.1687 104.382 56.1822C104.951 56.2093 105.533 56.1077 106.129 55.8775C106.725 55.6337 107.24 55.1935 107.673 54.5569L107.836 54.6991C107.606 55.0377 107.362 55.3628 107.104 55.6743C106.847 55.9858 106.556 56.2635 106.231 56.5073C105.906 56.7375 105.533 56.9271 105.113 57.0761C104.707 57.2116 104.24 57.2793 103.712 57.2793C102.994 57.2793 102.337 57.1642 101.741 56.9339C101.158 56.7037 100.657 56.3854 100.237 55.9791C99.8311 55.5592 99.5128 55.058 99.2826 54.4756C99.0523 53.8797 98.9372 53.2228 98.9372 52.505C98.9372 51.7871 99.0523 51.137 99.2826 50.5546C99.5128 49.9586 99.8311 49.4575 100.237 49.0512C100.657 48.6313 101.158 48.3062 101.741 48.076C102.337 47.8457 102.994 47.7306 103.712 47.7306C104.24 47.7306 104.748 47.8254 105.235 48.015C105.723 48.2047 106.149 48.4756 106.515 48.8277C106.881 49.1799 107.172 49.5997 107.389 50.0873C107.606 50.5614 107.714 51.0964 107.714 51.6923ZM105.601 51.3469C105.642 50.9948 105.628 50.6291 105.56 50.2498C105.506 49.8571 105.398 49.4981 105.235 49.1731C105.086 48.848 104.883 48.5771 104.626 48.3604C104.368 48.1437 104.064 48.0354 103.712 48.0354C103.034 48.0354 102.472 48.3333 102.025 48.9293C101.578 49.5252 101.287 50.3311 101.152 51.3469H105.601ZM115.866 56.5682C115.555 56.7578 115.223 56.9271 114.871 57.0761C114.519 57.2116 114.106 57.2793 113.632 57.2793C112.914 57.2793 112.257 57.1642 111.661 56.9339C111.079 56.7037 110.577 56.3854 110.158 55.9791C109.751 55.5592 109.433 55.058 109.203 54.4756C108.972 53.8797 108.857 53.2228 108.857 52.505C108.857 51.7871 108.972 51.1302 109.203 50.5343C109.433 49.9383 109.751 49.4236 110.158 48.9902C110.577 48.5568 111.079 48.225 111.661 47.9947C112.257 47.7509 112.914 47.629 113.632 47.629C114.024 47.629 114.397 47.6764 114.749 47.7713C115.101 47.8525 115.433 47.9676 115.745 48.1166V45.0489C115.745 44.5748 115.677 44.2024 115.541 43.9315C115.406 43.6606 115.162 43.3897 114.81 43.1188V42.9563L117.776 42.55V55.2883C117.776 55.4644 117.81 55.6269 117.878 55.7759C117.945 55.9113 118.033 56.0332 118.142 56.1416C118.25 56.2499 118.365 56.338 118.487 56.4057C118.609 56.4734 118.717 56.514 118.812 56.5276V56.6901L116.029 57.2793L115.866 56.5682ZM113.632 56.9746C114.024 56.9746 114.404 56.8933 114.769 56.7308C115.149 56.5547 115.474 56.3109 115.745 55.9994V49.3559C115.487 48.9496 115.182 48.611 114.83 48.3401C114.492 48.0692 114.092 47.9338 113.632 47.9338C113.239 47.9338 112.88 48.0489 112.555 48.2792C112.23 48.4959 111.952 48.8074 111.722 49.2137C111.492 49.62 111.309 50.1009 111.173 50.6562C111.051 51.2115 110.991 51.8277 110.991 52.505C110.991 53.1686 111.051 53.7781 111.173 54.3334C111.309 54.8887 111.492 55.3628 111.722 55.7556C111.952 56.1348 112.23 56.4328 112.555 56.6495C112.88 56.8662 113.239 56.9746 113.632 56.9746ZM123.809 47.7306C124.323 47.7306 124.845 47.7713 125.373 47.8525C125.901 47.9338 126.395 47.988 126.856 48.015L127.161 50.2905H127.018C126.626 49.5591 126.179 49.0038 125.678 48.6245C125.176 48.2318 124.553 48.0354 123.809 48.0354C123.321 48.0354 122.894 48.164 122.529 48.4214C122.176 48.6652 121.987 49.0512 121.96 49.5794C121.946 49.8638 121.987 50.0941 122.082 50.2702C122.176 50.4462 122.298 50.5885 122.447 50.6968C122.596 50.7916 122.752 50.8661 122.915 50.9203C123.077 50.9745 123.226 51.0151 123.362 51.0422C123.849 51.1641 124.344 51.2928 124.845 51.4282C125.346 51.5636 125.806 51.7533 126.226 51.9971C126.646 52.2273 126.985 52.5388 127.242 52.9316C127.513 53.3108 127.648 53.8052 127.648 54.4147C127.648 54.97 127.52 55.4305 127.262 55.7962C127.005 56.1619 126.673 56.4599 126.267 56.6901C125.86 56.9068 125.407 57.0626 124.906 57.1574C124.404 57.2387 123.917 57.2793 123.443 57.2793C123.199 57.2793 122.921 57.2454 122.61 57.1777C122.298 57.11 122 57.0355 121.716 56.9542C121.432 56.873 121.174 56.7917 120.944 56.7104C120.727 56.6292 120.585 56.5818 120.517 56.5682H120.314L120.03 54.0287H120.192C120.558 54.9361 120.991 55.654 121.492 56.1822C121.994 56.7104 122.65 56.9746 123.463 56.9746C123.748 56.9746 124.032 56.9475 124.316 56.8933C124.601 56.8256 124.851 56.724 125.068 56.5885C125.298 56.4396 125.481 56.2567 125.617 56.04C125.766 55.8097 125.84 55.5389 125.84 55.2273C125.84 54.8346 125.752 54.5163 125.576 54.2725C125.414 54.0287 125.19 53.8323 124.906 53.6833C124.635 53.5343 124.316 53.4124 123.951 53.3176C123.599 53.2093 123.233 53.1009 122.854 52.9926C121.784 52.6946 121.045 52.3492 120.639 51.9564C120.233 51.5501 120.03 51.049 120.03 50.453C120.03 49.9383 120.145 49.5117 120.375 49.1731C120.605 48.8209 120.903 48.5365 121.269 48.3198C121.635 48.1031 122.041 47.9541 122.488 47.8728C122.935 47.778 123.375 47.7306 123.809 47.7306Z" fill="black"/>
<path d="M129.488 56.0603C129.488 55.7217 129.603 55.4373 129.834 55.207C130.078 54.9632 130.369 54.8413 130.707 54.8413C131.046 54.8413 131.33 54.9632 131.561 55.207C131.804 55.4373 131.926 55.7217 131.926 56.0603C131.926 56.3989 131.804 56.6901 131.561 56.9339C131.33 57.1642 131.046 57.2793 130.707 57.2793C130.369 57.2793 130.078 57.1642 129.834 56.9339C129.603 56.6901 129.488 56.3989 129.488 56.0603Z" fill="#A57D24"/>
</svg>
