<svg width="18" height="20" viewBox="0 0 18 20" fill="none" xmlns="http://www.w3.org/2000/svg">
<path d="M17.2561 8.45522C17.2561 3.89522 13.5601 0.199219 9.00014 0.199219C4.44014 0.199219 0.744141 3.89522 0.744141 8.45522C0.744141 11.0252 1.91814 13.3212 3.76014 14.8352L8.02614 19.3112C8.24614 19.6072 8.59814 19.7992 8.99414 19.7992C9.36014 19.7992 9.68814 19.6352 9.90814 19.3792L14.3901 14.7072C14.7841 14.3672 15.1441 13.9912 15.4681 13.5832L15.6501 13.3932H15.6141C16.6461 12.0172 17.2561 10.3072 17.2561 8.45522ZM8.99814 12.5532C6.47214 12.5532 4.42614 10.5072 4.42614 7.98122C4.42614 5.45522 6.47214 3.40922 8.99814 3.40922C11.5221 3.40922 13.5701 5.45522 13.5701 7.98122C13.5701 10.5072 11.5241 12.5532 8.99814 12.5532Z" fill="black"/>
</svg>
