<svg width="120" height="66" viewBox="0 0 120 66" fill="none" xmlns="http://www.w3.org/2000/svg">
<path d="M9.18428 20.5382V34.3662L20.1745 20.951C21.6708 19.1451 22.1351 16.72 21.4644 15.6365V15.2237H27.5012V15.6365C25.4374 16.72 23.3219 18.7839 20.6904 21.8797L15.0663 28.5357L23.8894 44.9952C25.7985 48.5554 27.2948 50.1033 29.3587 51.1868V51.5996H19.4521V51.1868C20.1229 50.1033 19.6069 48.4006 18.4717 46.2851L11.2998 32.9731L9.18428 35.4497V46.2851C9.18428 48.6586 9.75185 49.6389 11.1966 51.1868V51.5996H2.11548V51.1868C3.66339 49.6389 4.02457 48.6586 4.02457 46.2851V20.5382C4.02457 18.1647 3.66339 17.1844 2.11548 15.6365V15.2237H11.1966V15.6365C9.75185 17.1844 9.18428 18.1647 9.18428 20.5382ZM33.0971 20.5382C33.0971 18.1647 32.7359 17.1844 31.188 15.6365V15.2237H40.2691V15.6365C38.8244 17.1844 38.2568 18.1647 38.2568 20.5382V46.2851C38.2568 48.6586 38.8244 49.6389 40.2691 51.1868V51.5996H31.188V51.1868C32.7359 49.6389 33.0971 48.6586 33.0971 46.2851V20.5382ZM46.4261 45.8207L58.1386 15.2237H58.6546L69.6447 44.376C70.9347 47.833 72.0182 50.6193 73.3081 51.1868V51.5996H63.7627V51.1868C65.2074 50.4129 65.4138 48.0394 64.5882 45.7691L62.2148 39.2163L49.9863 39.0615V38.7519L47.2 46.0787C46.3229 48.349 47.3548 50.5677 48.4384 51.1868V51.5996H42.2983V51.1868C44.001 49.8453 45.0845 49.3293 46.4261 45.8207ZM50.1927 38.2876L61.9568 38.4424L56.1779 22.5505L50.1927 38.2876Z" fill="black"/>
<path d="M81.3653 40.8074L81.0764 41.5117L83.8394 48.1212L86.6747 40.1572C86.9636 39.3446 86.6566 38.6042 86.3496 38.261V38.1166H88.4445V38.261C87.7221 38.6403 87.1984 39.5613 86.7469 40.8074L83.1532 50.8481H82.9726L80.1193 43.9677L77.4104 50.8481H77.2298L73.004 40.6448C72.5164 39.4529 72.2275 38.6042 71.451 38.261V38.1166H74.9905V38.261C74.4849 38.5319 74.4488 39.3626 74.7738 40.1572L78.0967 48.1212L79.9387 43.5343L78.7468 40.6448C78.2592 39.4529 77.9703 38.6042 77.1937 38.261V38.1166H80.7333V38.261C80.2276 38.5319 80.1915 39.3626 80.5166 40.1572L80.9139 41.1144L81.2931 40.1572C81.6182 39.3446 81.275 38.6042 80.968 38.261V38.1166H83.0629V38.261C82.3405 38.6403 81.8529 39.5613 81.3653 40.8074ZM95.7448 45.8819H89.8756C89.8576 46.1167 89.8395 46.3515 89.8395 46.6043C89.8395 48.6088 91.2481 49.8188 92.7831 49.873C93.7944 49.9091 94.9502 49.5479 95.7087 48.4282L95.8532 48.5547C95.0224 49.7465 94.0834 50.8481 92.1872 50.8481C89.6409 50.8481 87.9433 49.1506 87.9433 46.6043C87.9433 44.058 89.6409 42.3604 92.1872 42.3604C94.0834 42.3604 95.7448 43.7871 95.7448 45.8819ZM89.9117 45.5749H93.8667C94.0111 44.3469 93.4513 42.6313 92.1872 42.6313C90.9953 42.6313 90.1465 43.769 89.9117 45.5749ZM103.136 50.8481L102.992 50.2161C102.45 50.5592 101.836 50.8481 101.005 50.8481C98.4587 50.8481 96.7612 49.1506 96.7612 46.6043C96.7612 44.058 98.4587 42.2701 101.005 42.2701C101.709 42.2701 102.341 42.4507 102.883 42.7035V39.9766C102.883 39.1459 102.685 38.7306 102.052 38.261V38.1166L104.689 37.7554V49.0784C104.689 49.6924 105.249 50.1258 105.61 50.18V50.3244L103.136 50.8481ZM101.005 50.5773C101.709 50.5773 102.396 50.2703 102.883 49.7104V43.8051C102.432 43.0828 101.818 42.541 101.005 42.541C99.5964 42.541 98.6574 44.2205 98.6574 46.6043C98.6574 48.9881 99.5964 50.5773 101.005 50.5773ZM110.051 42.3604C110.954 42.3604 111.947 42.5771 112.76 42.6133L113.031 44.6359H112.904C112.218 43.3356 111.369 42.6313 110.051 42.6313C109.184 42.6313 108.444 43.0647 108.408 44.0038C108.372 45.0151 109.184 45.1957 109.654 45.304C111.369 45.7194 113.464 46.1167 113.464 48.3018C113.464 50.2703 111.424 50.8481 109.726 50.8481C108.841 50.8481 107.378 50.2883 107.126 50.2161H106.945L106.692 47.9587H106.837C107.487 49.566 108.299 50.5773 109.744 50.5773C110.755 50.5773 111.857 50.1438 111.857 49.0242C111.857 47.6336 110.539 47.4169 109.202 47.0377C107.306 46.514 106.692 45.8277 106.692 44.7803C106.692 42.9564 108.516 42.3604 110.051 42.3604Z" fill="black"/>
<path d="M115.1 49.7646C115.1 49.1687 115.588 48.6811 116.183 48.6811C116.779 48.6811 117.267 49.1687 117.267 49.7646C117.267 50.3606 116.779 50.8481 116.183 50.8481C115.588 50.8481 115.1 50.3606 115.1 49.7646Z" fill="#A57D24"/>
<g clip-path="url(#clip0_373_2203)">
<mask id="mask0_373_2203" style="mask-type:alpha" maskUnits="userSpaceOnUse" x="68" y="6" width="54" height="32">
<path d="M68.4453 28.8532L70.6675 10.631L90.2231 6.18652L106.668 6.63097L119.556 11.0754L121.779 19.9643L118.223 24.8532L112.445 30.1865L107.112 37.2977H75.112L69.3342 35.5199L68.4453 28.8532Z" fill="#D9D9D9"/>
</mask>
<g mask="url(#mask0_373_2203)">
<path d="M70.2924 24.0791C70.4732 22.7145 71.196 21.5907 72.19 20.788C73.2743 20.0655 74.6296 19.8247 75.985 20.0655C75.8043 19.7444 75.7139 19.4233 75.7139 19.1023C75.6236 18.0587 75.985 17.0955 76.6175 16.4533C77.3404 15.7309 78.515 15.4098 79.5993 15.5703C80.2318 15.6506 80.8643 15.8914 81.3161 16.2125C81.1354 14.8479 81.4064 13.4832 82.8522 12.1989C83.8461 11.3159 85.3822 10.9948 87.0086 11.3159C88.0929 11.4764 89.1772 11.9581 90.0808 12.4397C90.3518 10.3526 92.2494 8.50638 94.5986 8.26557C96.9479 7.94448 99.2973 9.22883 100.201 11.0751C100.653 10.5935 101.014 10.2724 101.556 9.95128C102.46 9.38938 103.544 9.14857 104.448 9.38938C105.351 9.6302 106.074 10.1921 106.526 11.0751C106.616 11.2356 106.707 11.4764 106.797 11.637C108.152 10.5132 110.411 10.3526 112.038 11.1554C113.483 11.9581 114.206 13.4832 114.026 15.0084C115.11 14.607 116.556 14.8479 117.55 15.5703C118.724 16.4533 119.357 17.9785 119.086 19.5036C118.905 20.7077 118.182 21.992 117.007 23.1961C115.562 24.7213 113.754 25.9254 112.038 27.1294L111.586 27.4505C109.779 28.6546 107.881 30.0192 106.526 31.7852C105.171 33.5512 104.628 35.558 105.08 37.2437C105.08 37.2437 105.08 37.2437 105.08 37.324V37.4042C107.881 40.294 111.224 42.8627 115.2 45.1906C114.568 43.7457 114.116 42.06 113.935 40.3743C111.857 39.0899 110.953 36.6015 111.134 34.675C111.134 34.4342 111.405 34.2736 111.676 34.2736C111.947 34.2736 112.128 34.5144 112.128 34.7552C111.947 36.2001 112.489 38.0464 113.845 39.2505C113.754 36.6818 114.206 33.9525 115.381 31.7049C115.019 31.3838 114.748 30.9022 114.748 30.4206C114.748 29.377 115.652 28.5743 116.827 28.4941C117.369 28.4941 117.911 28.6546 118.272 28.9757C118.634 29.2968 118.905 29.7784 118.905 30.26C118.905 31.2233 118.092 32.026 117.007 32.1063C116.917 32.1063 116.917 32.1063 116.827 32.1063C116.646 32.1063 116.375 32.1063 116.194 32.026C113.845 36.3607 114.568 42.3811 116.646 45.9933C121.073 48.3212 126.224 50.4082 132.278 52.2545C132.639 52.3348 132.91 52.415 133.272 52.5756C128.844 46.1538 129.567 36.2804 132.639 29.9389C132.639 29.8587 132.73 29.8587 132.73 29.7784C132.73 29.7784 132.73 29.7784 132.82 29.7784L132.91 29.6981C132.91 29.6981 132.91 29.6981 133.001 29.6981C133.091 29.6981 133.091 29.6981 133.181 29.6981C133.181 29.6981 133.181 29.6981 133.272 29.6981C133.362 29.6981 133.362 29.6981 133.452 29.7784C136.434 32.3471 138.422 36.441 138.603 40.8559C138.874 45.2709 137.519 50.0069 135.169 53.0572C139.145 54.181 143.211 55.1443 147.277 56.1075C148.361 56.3484 149.536 56.5892 150.62 56.9103C153.512 57.5524 156.494 58.1946 159.385 58.917C158.12 57.713 156.945 56.2681 156.042 54.5021C154.144 53.4586 152.608 52.2545 151.343 50.8899C151.253 50.8899 146.554 47.4382 142.579 48.7225C142.307 48.8028 142.036 48.7225 141.946 48.4817C141.856 48.2409 141.946 48.0001 142.217 47.9198C145.018 47.0368 148 48.0804 149.898 49.0436C148.452 46.796 147.729 44.3076 147.729 41.3375C146.374 41.0967 145.38 40.0532 145.38 38.7688C145.38 38.0464 145.651 37.4042 146.193 36.8423C146.735 36.3607 147.458 36.0396 148.271 36.0396C149.084 36.0396 149.807 36.2804 150.44 36.762C150.982 37.2437 151.343 37.8858 151.343 38.6083C151.343 39.3307 151.072 39.9729 150.53 40.5348C150.078 41.0165 149.355 41.2573 148.723 41.3375C148.723 46.3947 150.982 50.1674 155.409 52.9769C154.596 50.9701 154.054 48.8831 153.964 46.796C152.97 46.5552 152.247 45.8328 152.247 44.8695C152.247 44.3076 152.428 43.826 152.879 43.4246C153.331 43.0232 153.873 42.8627 154.415 42.7824C155.048 42.7824 155.59 42.943 156.042 43.3443C156.494 43.7457 156.765 44.2273 156.765 44.709C156.765 45.2709 156.584 45.7525 156.132 46.1538C155.771 46.4749 155.409 46.6355 154.958 46.7157C155.048 49.0436 155.771 51.6123 156.945 53.8599C158.12 56.1878 159.746 58.0341 161.554 59.2381C164.535 59.9606 167.517 60.8436 170.409 61.7266H170.499C171.854 62.1279 173.119 62.6096 174.475 63.0912C175.649 63.4926 176.734 63.9742 177.908 64.4558C177.095 63.4123 176.372 62.2082 175.921 60.8436C174.656 56.83 175.469 52.2545 177.999 48.9634L178.089 48.8831C178.089 48.8831 178.179 48.8831 178.179 48.8028C178.179 48.8028 178.179 48.8028 178.27 48.8028C178.27 48.8028 178.27 48.8028 178.36 48.8028H178.451C178.451 48.8028 178.451 48.8028 178.541 48.8028C178.541 48.8028 178.631 48.8028 178.631 48.8831C182.517 51.7729 184.776 56.1075 184.866 60.6028C184.866 62.3687 184.504 64.7769 182.878 66.8639C190.468 70.717 196.522 75.6136 200.498 81.0721C200.678 81.2326 200.588 81.5537 200.317 81.6339C200.227 81.6339 200.136 81.7142 200.136 81.7142C199.956 81.7142 199.775 81.634 199.685 81.5537C194.444 74.3292 185.408 68.068 174.113 63.9742C172.939 63.5728 171.764 63.1714 170.68 62.7701C168.602 69.4326 163.27 73.1252 153.873 74.249C153.783 74.249 153.693 74.249 153.602 74.249C153.602 74.249 153.602 74.249 153.512 74.249C153.512 74.249 153.421 74.249 153.421 74.1687C153.421 74.1687 153.421 74.1687 153.421 74.0884V74.0081V73.9279C153.421 73.8476 153.421 73.8476 153.421 73.7673C154.415 69.1116 157.126 63.6531 168.421 62.0476C162.548 60.2817 156.494 58.917 150.62 57.6327C149.536 57.3919 148.452 57.1511 147.277 56.9103C144.837 56.5089 142.307 56.7497 139.687 57.6327C136.163 59.2381 135.802 64.9374 137.157 68.1483H137.247C138.693 68.1483 139.868 69.1116 139.868 70.3959C139.868 71.6 138.874 72.6435 137.519 72.7238C137.428 72.7238 137.338 72.7238 137.338 72.7238C135.892 72.7238 134.717 71.7605 134.717 70.4762C134.717 69.5129 135.35 68.7102 136.254 68.3089C135.079 65.5796 135.169 61.4055 137.067 58.7565C135.169 59.7198 133.452 61.0041 131.916 62.449C132.187 62.7701 132.368 63.1715 132.368 63.6531C132.368 64.6966 131.465 65.5796 130.38 65.6599C130.29 65.6599 130.29 65.6599 130.2 65.6599C129.567 65.6599 129.025 65.4993 128.573 65.098C128.121 64.6966 127.85 64.215 127.85 63.7334C127.85 63.1715 128.031 62.6898 128.483 62.2885C128.935 61.8871 129.477 61.7266 130.019 61.6463C130.38 61.6463 130.742 61.7266 131.103 61.8871C133.452 59.6395 136.344 57.8735 139.326 56.83C140.681 56.3484 141.946 56.1075 143.301 55.947C140.32 55.2245 137.338 54.5021 134.446 53.6191C133.724 53.3783 132.91 53.2178 132.187 52.9769C130.109 52.3348 128.121 51.6926 126.314 50.9701C125.953 52.4953 124.146 56.7497 116.465 58.1143C115.2 58.3551 114.026 58.5157 112.941 58.596C104.177 59.3987 101.827 56.5089 101.737 56.3484C101.737 56.3484 101.737 56.3484 101.737 56.2681C101.737 56.2681 101.737 56.2681 101.737 56.1878V56.1075C101.737 56.0273 101.737 56.0273 101.827 55.947C101.827 55.947 101.827 55.8667 101.918 55.8667C106.616 51.6926 115.471 49.1239 122.519 49.5253C120.351 48.6423 118.363 47.679 116.465 46.6355C116.465 46.6355 116.465 46.6355 116.375 46.6355C115.11 45.913 113.845 45.1906 112.67 44.4681C109.779 42.5416 106.345 42.06 103.906 41.9797C102.189 41.8994 100.472 42.06 98.8455 42.1403C98.484 42.1403 98.1226 42.2205 97.6708 42.2205C96.3155 42.2205 94.3276 42.8627 93.1529 43.826C92.9722 44.4681 93.424 47.8396 95.4119 50.5688C96.0444 51.5321 96.6769 52.8967 96.2251 53.8599C96.0444 54.2613 95.5926 54.7429 94.689 54.9837C94.5987 54.9837 94.5083 54.9837 94.4179 55.064C93.6951 55.1443 93.0626 54.8232 92.6108 54.3416C92.6108 54.4218 92.5204 54.5021 92.4301 54.5021C91.9783 55.064 91.1651 55.3048 90.3519 55.3048C89.629 55.2246 88.9965 54.9035 88.4543 54.2613C88.0026 53.6994 87.8219 52.8967 87.7315 52.2545C87.2797 52.4953 86.7375 52.6558 86.2858 52.6558C85.4725 52.7361 84.7497 52.415 84.3882 51.7729C83.6654 50.6491 84.2979 49.0436 85.1111 48.0001C85.9243 46.8763 89.0868 43.5049 92.7915 43.1035C93.1529 42.7824 93.6047 42.5416 94.1469 42.3008C91.8879 42.2205 89.9904 41.8994 88.364 41.2573L88.2736 41.3375C87.9122 41.6586 87.3701 41.8994 86.8279 41.9797C86.7376 41.9797 86.7375 41.9797 86.6472 41.9797C85.3822 41.9797 84.2979 41.0967 84.2075 39.9729C84.2075 39.411 84.3882 38.8491 84.84 38.4478C85.2918 38.0464 85.834 37.8056 86.4665 37.8056C87.7315 37.8056 88.8158 38.6886 88.9061 39.8124C88.9061 40.0532 88.9061 40.2137 88.8158 40.4545C90.5326 41.0967 92.6108 41.4178 95.1408 41.4178C96.4058 41.4178 97.7612 41.3375 99.0262 41.2573C100.743 41.177 102.46 41.0165 104.267 41.0967C105.713 41.177 107.429 41.3375 109.237 41.8192C107.61 40.5348 106.164 39.2505 104.899 37.8859C101.556 36.2804 97.8515 35.7185 94.3276 35.3172C92.4301 35.0763 90.5326 35.0763 88.7254 34.9961C87.37 34.9158 85.9243 34.9158 84.569 34.8355C80.4125 34.5144 77.4307 33.7117 74.9911 32.1866C71.5575 30.0192 69.8407 26.8886 70.2924 24.0791ZM117.098 31.0628C117.73 31.0628 118.182 30.5811 118.182 30.0192C118.182 29.7784 118.092 29.5376 117.821 29.2968C117.64 29.1362 117.278 28.9757 117.007 29.056H116.917C116.375 29.1362 115.923 29.5376 115.923 30.0995C116.013 30.6614 116.465 31.0628 117.098 31.0628ZM150.801 38.528C150.801 38.0464 150.53 37.5648 150.169 37.2437C149.807 36.9226 149.265 36.762 148.723 36.762C148.633 36.762 148.633 36.762 148.542 36.762C148.09 36.8423 147.639 37.0029 147.277 37.324C146.916 37.645 146.735 38.1267 146.735 38.6083C146.735 39.0899 147.006 39.5716 147.368 39.8926C147.729 40.2137 148.271 40.3743 148.813 40.3743C149.355 40.3743 149.898 40.1335 150.259 39.8124C150.62 39.411 150.801 39.0097 150.801 38.528ZM156.042 44.709C156.042 44.3879 155.861 44.147 155.68 43.9062C155.409 43.6654 155.138 43.5851 154.777 43.5851H154.686C154.415 43.5851 154.144 43.7457 153.873 43.9062C153.602 44.147 153.512 44.3879 153.512 44.709C153.512 45.3511 154.144 45.8328 154.867 45.8328C155.229 45.8328 155.5 45.6722 155.771 45.5117C155.951 45.3511 156.042 45.03 156.042 44.709ZM177.095 60.5225C177.547 61.9674 178.27 63.2517 179.173 64.215C179.987 65.098 180.981 65.6599 182.065 66.0612C181.794 58.7565 179.444 52.2545 178.541 50.0872C176.553 53.1375 176.011 57.0708 177.095 60.5225ZM179.896 50.7293C180.89 53.4586 182.788 58.9973 183.149 65.3388C184.053 63.6531 184.324 61.8871 184.324 60.5225C184.233 56.9103 182.607 53.3783 179.896 50.7293ZM169.595 63.5728C167.246 65.5796 162.186 69.6735 156.403 72.9646C163.451 71.6803 167.608 68.7102 169.595 63.5728ZM154.777 72.8843C161.192 69.3524 166.975 64.6164 169.234 62.6898C162.999 63.4926 156.855 65.4993 154.777 72.8843ZM135.802 70.3157C135.802 71.1184 136.615 71.7605 137.519 71.7605C138.422 71.7605 139.145 71.0381 139.145 70.2354C139.145 69.4327 138.332 68.7905 137.428 68.7905C136.525 68.7905 135.802 69.5129 135.802 70.3157ZM130.2 62.3687H130.109C129.838 62.3687 129.567 62.5293 129.296 62.6898C129.025 62.9307 128.935 63.1715 128.935 63.4926C128.935 63.8136 129.115 64.0545 129.296 64.2953C129.567 64.5361 129.838 64.6164 130.2 64.6164C130.561 64.6164 130.832 64.4558 131.103 64.2953C131.374 64.0545 131.465 63.8136 131.465 63.4926C131.465 63.1715 131.284 62.9307 131.103 62.6898C130.832 62.449 130.561 62.3687 130.2 62.3687ZM134.446 51.9334C135.802 41.4178 134.175 33.9525 133.362 31.2233C130.742 37.3239 130.38 46.0736 134.446 51.9334ZM134.446 31.4641C135.26 34.5947 136.705 41.5784 135.531 51.2912C137.247 48.4014 138.241 44.3879 138.061 40.6954C137.79 37.1634 136.525 33.8723 134.446 31.4641ZM86.3761 38.4478H86.2858C85.5629 38.528 85.0208 39.0899 85.0208 39.7321C85.0208 40.3743 85.6532 40.9362 86.4665 40.9362C86.8279 40.9362 87.1893 40.7756 87.4604 40.5348C87.7315 40.294 87.8218 39.9729 87.8218 39.6518C87.7315 39.0097 87.099 38.4478 86.3761 38.4478ZM85.7436 48.3212C85.1111 49.2042 84.6593 50.4885 85.1111 51.211C85.2918 51.532 85.6533 51.6926 86.105 51.6926C86.7375 51.6926 87.5508 51.211 87.7315 50.7293C87.8219 50.4885 88.0929 50.4082 88.364 50.4885C88.6351 50.5688 88.7254 50.8096 88.7254 50.9701C88.5447 51.4518 88.4544 52.8164 89.0869 53.6191C89.4483 54.1007 89.8097 54.2613 90.2615 54.3416C90.8036 54.3416 91.2554 54.181 91.5265 53.8599C91.7072 53.6191 91.7976 53.3783 91.7072 53.0572C91.6169 52.8164 91.7976 52.5756 91.9783 52.4953C92.2494 52.415 92.5204 52.5756 92.6108 52.7361C92.8819 53.3783 93.5144 54.181 94.3276 54.0205C94.7794 53.9402 95.0504 53.6994 95.2312 53.3783C95.5022 52.7361 95.1408 51.6123 94.5083 50.8096C92.9722 48.6423 92.3397 46.2341 92.159 44.709C91.5265 45.7525 91.3458 47.2776 91.8879 50.0872C91.8879 50.328 91.7072 50.5688 91.5265 50.5688C91.2554 50.5688 91.0747 50.4082 90.9843 50.2477C90.6229 48.0804 90.5326 46.4749 90.9843 45.2709C90.5326 45.8328 90.0808 46.6355 89.8097 47.679C89.8097 47.8395 89.629 48.0001 89.3579 48.0001C89.2676 48.0001 89.2676 48.0001 89.1772 48.0001C88.9061 47.9198 88.7254 47.7593 88.8158 47.5185C89.1772 46.1538 89.8097 45.1103 90.4422 44.4681C88.1833 45.5117 86.3761 47.5185 85.7436 48.3212ZM105.893 11.2356C105.532 10.5935 104.99 10.1921 104.448 10.0316C103.815 9.87101 103.002 10.0316 102.369 10.4329C101.737 10.8343 101.195 11.3962 100.653 12.0384C100.562 12.1989 100.382 12.1989 100.201 12.1989C100.02 12.1989 99.8394 12.0383 99.8394 11.8778C99.3876 10.0315 97.1287 8.66693 94.9601 8.90775C92.8819 9.14856 91.0747 11.0751 91.1651 12.9213C91.1651 13.0819 91.0747 13.2424 90.894 13.3227C90.7133 13.403 90.5326 13.403 90.4422 13.3227C89.3579 12.7608 88.1833 12.1989 87.0086 11.9581C86.0147 11.7975 84.569 11.8778 83.7557 12.6003C81.7679 14.3662 82.4004 16.373 83.3039 18.4601C85.5629 23.6778 93.2433 29.2165 98.8455 32.8287C93.7854 27.7716 92.6108 23.1159 92.5204 22.875C92.4301 22.6342 92.6108 22.3934 92.8819 22.3934C93.1529 22.3131 93.424 22.4737 93.424 22.7145C93.424 22.7948 95.1408 29.1362 102.46 34.9158C98.6648 28.8151 99.9297 20.4669 100.02 20.0655C100.02 19.8247 100.291 19.6642 100.562 19.6642C100.833 19.6642 101.014 19.905 101.014 20.1458C101.014 20.2261 99.8394 28.0927 103.092 33.9525C103.002 33.6314 102.912 33.3104 102.912 33.0695C102.369 29.8587 103.092 26.8886 103.996 24.1594C104.177 23.5172 104.448 22.875 104.628 22.2329C105.622 19.3431 106.616 16.2928 106.436 13.1622C106.255 12.6805 106.255 11.8778 105.893 11.2356ZM111.134 26.5675L111.586 26.2464C113.303 25.1226 115.019 23.9186 116.375 22.4737C117.459 21.3499 118.001 20.2261 118.182 19.1825C118.363 17.8982 117.911 16.6941 117.007 15.9717C116.013 15.2492 114.387 15.2492 113.664 16.0519C113.483 16.2125 113.212 16.2125 113.032 16.1322C112.851 15.9717 112.761 15.8111 112.851 15.5703C113.574 14.2057 113.032 12.4397 111.586 11.7173C110.14 10.9145 108.152 11.3159 107.158 12.4397C107.158 12.6805 107.249 12.9213 107.249 13.1622C107.429 16.4533 106.436 19.5036 105.351 22.5539C105.171 23.1961 104.899 23.8383 104.719 24.4805C103.905 27.1294 103.183 30.0192 103.725 33.0695C103.725 33.1498 103.725 33.3104 103.815 33.4709C103.905 26.5675 109.779 22.6342 109.869 22.6342C110.05 22.4737 110.411 22.5539 110.502 22.7145C110.682 22.875 110.592 23.1961 110.411 23.2764C110.14 23.4369 104.99 26.8886 104.719 33.0695C104.99 32.4274 105.351 31.7852 105.803 31.143C107.339 29.2968 109.327 27.8519 111.134 26.5675ZM116.375 57.1511C122.881 56.0273 124.778 52.8164 125.32 51.211C122.971 52.4953 116.284 55.5456 107.972 56.3484C106.616 56.5089 105.171 56.5089 103.725 56.5089C105.171 57.3116 108.875 58.4354 116.375 57.1511ZM103.363 55.5456C113.483 55.7865 121.887 51.8531 124.688 50.4082C118.092 49.3647 108.604 51.6123 103.363 55.5456ZM75.1718 31.2233C77.4307 32.5879 80.3222 33.3906 84.2075 33.7117C85.5629 33.792 87.0086 33.8723 88.364 33.8723C90.2615 33.9525 92.159 33.9525 94.0565 34.1933C96.3155 34.4342 98.8455 34.8355 101.285 35.4777C101.104 35.3974 100.924 35.2369 100.743 35.1566C93.1529 31.3036 85.0208 31.4641 85.0208 31.4641C84.7497 31.4641 84.569 31.3036 84.569 31.0628C84.569 30.8219 84.7497 30.6614 85.0208 30.6614C85.2918 30.6614 90.5326 30.5811 96.5865 32.5879C91.1651 28.8954 84.4786 23.758 82.31 18.8615C82.2197 18.6206 82.1293 18.3798 81.9486 18.139C81.4064 17.1757 80.5029 16.5336 79.5089 16.373C78.6957 16.2927 77.8825 16.5336 77.3404 17.0152C76.7982 17.4968 76.5271 18.2193 76.6175 19.022C76.7078 19.7444 77.0693 20.3866 77.6114 20.788C77.7018 20.788 77.7018 20.8682 77.7922 20.8682C77.9729 21.0288 78.0632 21.2696 77.8825 21.4301C77.7018 21.5907 77.4307 21.671 77.25 21.5104C77.1596 21.5104 77.1596 21.4301 77.0693 21.3499C75.8043 20.5471 73.9971 20.6274 72.8225 21.4301C72.0093 21.992 71.3768 22.9553 71.196 24.1594C70.8346 26.7281 72.3707 29.5376 75.1718 31.2233Z" fill="#C69247"/>
</g>
</g>
<defs>
<clipPath id="clip0_373_2203">
<rect x="65.7773" y="7.0752" width="54.2223" height="30.2222" rx="8.88889" fill="white"/>
</clipPath>
</defs>
</svg>
