<svg width="168" height="91" viewBox="0 0 168 91" fill="none" xmlns="http://www.w3.org/2000/svg">
<path d="M12.858 27.514V46.8732L28.2442 28.0919C30.3391 25.5637 30.9892 22.1686 30.0501 20.6516V20.0737H38.5017V20.6516C35.6123 22.1686 32.6506 25.058 28.9666 29.3922L21.0929 38.7106L33.4452 61.7538C36.1179 66.7381 38.2128 68.9052 41.1022 70.4221V71H27.2329V70.4221C28.172 68.9052 27.4496 66.5214 25.8604 63.5597L15.8196 44.9229L12.858 48.3902V63.5597C12.858 66.8826 13.6526 68.255 15.6752 70.4221V71H2.96167V70.4221C5.12874 68.255 5.6344 66.8826 5.6344 63.5597V27.514C5.6344 24.1912 5.12874 22.8187 2.96167 20.6516V20.0737H15.6752V20.6516C13.6526 22.8187 12.858 24.1912 12.858 27.514ZM46.3359 27.514C46.3359 24.1912 45.8303 22.8187 43.6632 20.6516V20.0737H56.3767V20.6516C54.3541 22.8187 53.5595 24.1912 53.5595 27.514V63.5597C53.5595 66.8826 54.3541 68.255 56.3767 70.4221V71H43.6632V70.4221C45.8303 68.255 46.3359 66.8826 46.3359 63.5597V27.514ZM64.9965 62.9096L81.394 20.0737H82.1164L97.5026 60.887C99.3085 65.7268 100.825 69.6275 102.631 70.4221V71H89.2677V70.4221C91.2903 69.3386 91.5792 66.0157 90.4235 62.8373L87.1006 53.6634L69.9807 53.4467V53.0133L66.08 63.2708C64.852 66.4491 66.2967 69.5553 67.8137 70.4221V71H59.2176V70.4221C61.6014 68.544 63.1183 67.8216 64.9965 62.9096ZM70.2697 52.3632L86.7394 52.5799L78.649 30.3312L70.2697 52.3632Z" fill="black"/>
<path d="M113.912 56.0913L113.508 57.0774L117.376 66.3308L121.345 55.1812C121.75 54.0435 121.32 53.0069 120.89 52.5265V52.3242H123.823V52.5265C122.812 53.0574 122.079 54.3468 121.446 56.0913L116.415 70.1484H116.162L112.168 60.5158L108.375 70.1484H108.123L102.206 55.8638C101.524 54.1952 101.119 53.0069 100.032 52.5265V52.3242H104.988V52.5265C104.28 52.9057 104.229 54.0687 104.684 55.1812L109.336 66.3308L111.915 59.909L110.246 55.8638C109.564 54.1952 109.159 53.0069 108.072 52.5265V52.3242H113.027V52.5265C112.319 52.9057 112.269 54.0687 112.724 55.1812L113.28 56.5211L113.811 55.1812C114.266 54.0435 113.786 53.0069 113.356 52.5265V52.3242H116.289V52.5265C115.278 53.0574 114.595 54.3468 113.912 56.0913ZM134.043 63.1957H125.827C125.801 63.5244 125.776 63.8531 125.776 64.207C125.776 67.0134 127.748 68.7073 129.897 68.7832C131.313 68.8337 132.931 68.3281 133.993 66.7606L134.195 66.9376C133.032 68.6062 131.717 70.1484 129.063 70.1484C125.498 70.1484 123.121 67.7719 123.121 64.207C123.121 60.6422 125.498 58.2656 129.063 58.2656C131.717 58.2656 134.043 60.263 134.043 63.1957ZM125.877 62.7659H131.414C131.616 61.0467 130.833 58.6449 129.063 58.6449C127.394 58.6449 126.206 60.2377 125.877 62.7659ZM144.391 70.1484L144.189 69.2635C143.43 69.7439 142.571 70.1484 141.408 70.1484C137.843 70.1484 135.466 67.7719 135.466 64.207C135.466 60.6422 137.843 58.1392 141.408 58.1392C142.394 58.1392 143.279 58.3921 144.037 58.746V54.9283C144.037 53.7653 143.759 53.1838 142.874 52.5265V52.3242L146.565 51.8186V67.6707C146.565 68.5304 147.349 69.1371 147.855 69.213V69.4152L144.391 70.1484ZM141.408 69.7692C142.394 69.7692 143.355 69.3394 144.037 68.5556V60.2882C143.405 59.2769 142.546 58.5185 141.408 58.5185C139.436 58.5185 138.121 60.8697 138.121 64.207C138.121 67.5443 139.436 69.7692 141.408 69.7692ZM154.072 58.2656C155.337 58.2656 156.727 58.569 157.865 58.6196L158.244 61.4512H158.067C157.106 59.6309 155.918 58.6449 154.072 58.6449C152.859 58.6449 151.822 59.2517 151.772 60.5664C151.721 61.9822 152.859 62.235 153.516 62.3867C155.918 62.9682 158.851 63.5244 158.851 66.5836C158.851 69.3394 155.994 70.1484 153.617 70.1484C152.378 70.1484 150.331 69.3647 149.977 69.2635H149.724L149.37 66.1032H149.572C150.482 68.3534 151.62 69.7692 153.643 69.7692C155.058 69.7692 156.601 69.1624 156.601 67.5949C156.601 65.6481 154.755 65.3448 152.884 64.8138C150.229 64.0806 149.37 63.1199 149.37 61.6535C149.37 59.1 151.923 58.2656 154.072 58.2656ZM161.141 68.6315C161.141 67.7972 161.823 67.1145 162.658 67.1145C163.492 67.1145 164.175 67.7972 164.175 68.6315C164.175 69.4658 163.492 70.1484 162.658 70.1484C161.823 70.1484 161.141 69.4658 161.141 68.6315Z" fill="black"/>
<g clip-path="url(#clip0_373_2197)">
<mask id="mask0_373_2197" style="mask-type:alpha" maskUnits="userSpaceOnUse" x="95" y="7" width="76" height="45">
<path d="M95.8223 39.5536L98.9334 14.0425L126.311 7.82031L149.333 8.44253L167.378 14.6648L170.489 27.1092L165.511 33.9536L157.422 41.4203L149.956 51.3759H105.156L97.0667 48.887L95.8223 39.5536Z" fill="#D9D9D9"/>
</mask>
<g mask="url(#mask0_373_2197)">
<path d="M98.4101 32.87C98.6631 30.9596 99.6751 29.3862 101.067 28.2624C102.585 27.251 104.482 26.9139 106.38 27.251C106.127 26.8015 106 26.3519 106 25.9024C105.874 24.4415 106.38 23.0929 107.265 22.1939C108.277 21.1825 109.922 20.7329 111.44 20.9577C112.325 21.0701 113.211 21.4072 113.843 21.8567C113.59 19.9463 113.97 18.0358 115.994 16.2377C117.385 15.0015 119.536 14.552 121.813 15.0015C123.331 15.2263 124.849 15.9006 126.114 16.5749C126.493 13.653 129.15 11.0682 132.439 10.7311C135.728 10.2816 139.017 12.0796 140.282 14.6644C140.914 13.9901 141.42 13.5406 142.179 13.0911C143.444 12.3044 144.962 11.9673 146.227 12.3044C147.492 12.6416 148.504 13.4282 149.137 14.6644C149.263 14.8891 149.39 15.2263 149.516 15.4511C151.414 13.8777 154.576 13.653 156.853 14.7768C158.877 15.9006 159.889 18.0358 159.636 20.171C161.154 19.6091 163.178 19.9463 164.57 20.9577C166.214 22.1939 167.1 24.3291 166.72 26.4643C166.467 28.15 165.455 29.9481 163.811 31.6338C161.787 33.7691 159.257 35.4548 156.853 37.1405L156.221 37.59C153.691 39.2757 151.034 41.1862 149.137 43.6585C147.239 46.1309 146.48 48.9404 147.113 51.3004C147.113 51.3004 147.113 51.3004 147.113 51.4128V51.5252C151.034 55.5709 155.715 59.167 161.281 62.4261C160.395 60.4032 159.763 58.0432 159.51 55.6832C156.6 53.8851 155.335 50.4014 155.588 47.7042C155.588 47.3671 155.968 47.1423 156.347 47.1423C156.727 47.1423 156.98 47.4795 156.98 47.8166C156.727 49.8395 157.486 52.4242 159.383 54.1099C159.257 50.5137 159.889 46.6928 161.534 43.5462C161.028 43.0966 160.648 42.4223 160.648 41.7481C160.648 40.2871 161.913 39.1633 163.558 39.0509C164.317 39.0509 165.076 39.2757 165.582 39.7252C166.088 40.1747 166.467 40.849 166.467 41.5233C166.467 42.8719 165.329 43.9957 163.811 44.1081C163.684 44.1081 163.684 44.1081 163.558 44.1081C163.305 44.1081 162.925 44.1081 162.672 43.9957C159.383 50.0642 160.395 58.4927 163.305 63.5499C169.503 66.8089 176.714 69.7308 185.19 72.3155C185.696 72.4279 186.075 72.5403 186.581 72.7651C180.383 63.7746 181.395 49.9518 185.696 41.0738C185.696 40.9614 185.822 40.9614 185.822 40.849C185.822 40.849 185.822 40.849 185.949 40.849L186.075 40.7367C186.075 40.7367 186.075 40.7367 186.202 40.7367C186.328 40.7367 186.328 40.7367 186.455 40.7367C186.455 40.7367 186.455 40.7367 186.581 40.7367C186.708 40.7367 186.708 40.7366 186.834 40.849C191.009 44.4452 193.792 50.1766 194.045 56.3575C194.424 62.5384 192.527 69.1689 189.238 73.4393C194.804 75.0127 200.496 76.3612 206.189 77.7098C207.707 78.0469 209.351 78.3841 210.869 78.8336C214.917 79.7326 219.092 80.6317 223.14 81.6431C221.369 79.9574 219.724 77.9346 218.459 75.4622C215.803 74.0012 213.652 72.3155 211.881 70.4051C211.755 70.4051 205.177 65.5727 199.611 67.3708C199.231 67.4832 198.852 67.3708 198.725 67.0337C198.599 66.6965 198.725 66.3594 199.105 66.247C203.026 65.0108 207.201 66.4718 209.857 67.8203C207.833 64.6737 206.821 61.1899 206.821 57.0318C204.924 56.6947 203.532 55.2337 203.532 53.4356C203.532 52.4242 203.912 51.5252 204.671 50.7385C205.43 50.0642 206.442 49.6147 207.58 49.6147C208.719 49.6147 209.731 49.9518 210.616 50.6261C211.375 51.3004 211.881 52.1994 211.881 53.2109C211.881 54.2223 211.502 55.1213 210.743 55.908C210.11 56.5823 209.098 56.9194 208.213 57.0318C208.213 64.1118 211.375 69.3937 217.574 73.327C216.435 70.5175 215.676 67.5956 215.55 64.6737C214.158 64.3365 213.146 63.3251 213.146 61.9765C213.146 61.1899 213.399 60.5156 214.032 59.9537C214.664 59.3918 215.423 59.167 216.182 59.0546C217.068 59.0546 217.827 59.2794 218.459 59.8413C219.092 60.4032 219.471 61.0775 219.471 61.7518C219.471 62.5384 219.218 63.2127 218.586 63.7746C218.08 64.2242 217.574 64.4489 216.941 64.5613C217.068 67.8203 218.08 71.4165 219.724 74.5631C221.369 77.8222 223.646 80.4069 226.176 82.0926C230.35 83.104 234.525 84.3402 238.573 85.5764H238.699C240.597 86.1383 242.368 86.8126 244.265 87.4869C245.91 88.0488 247.428 88.7231 249.072 89.3974C247.934 87.9364 246.922 86.2507 246.289 84.3402C244.518 78.7212 245.657 72.3155 249.199 67.7079L249.325 67.5956C249.325 67.5956 249.452 67.5956 249.452 67.4832C249.452 67.4832 249.452 67.4832 249.578 67.4832C249.578 67.4832 249.578 67.4832 249.705 67.4832H249.831C249.831 67.4832 249.831 67.4832 249.958 67.4832C249.958 67.4832 250.084 67.4832 250.084 67.5956C255.524 71.6413 258.686 77.7098 258.813 84.0031C258.813 86.4755 258.307 89.8469 256.03 92.7688C266.656 98.163 275.131 105.018 280.697 112.66C280.95 112.885 280.824 113.334 280.444 113.447C280.318 113.447 280.191 113.559 280.191 113.559C279.938 113.559 279.685 113.447 279.559 113.334C272.222 103.22 259.572 94.4545 243.759 88.7231C242.115 88.1612 240.47 87.5993 238.952 87.0374C236.043 96.3649 228.579 101.534 215.423 103.108C215.297 103.108 215.17 103.108 215.044 103.108C215.044 103.108 215.044 103.108 214.917 103.108C214.917 103.108 214.791 103.108 214.791 102.995C214.791 102.995 214.791 102.995 214.791 102.883V102.771V102.658C214.791 102.546 214.791 102.546 214.791 102.433C216.182 95.9154 219.977 88.2736 235.79 86.0259C227.567 83.5536 219.092 81.6431 210.869 79.845C209.351 79.5079 207.833 79.1707 206.189 78.8336C202.773 78.2717 199.231 78.6088 195.563 79.845C190.629 82.0926 190.123 90.0716 192.021 94.5669H192.147C194.171 94.5669 195.816 95.9154 195.816 97.7135C195.816 99.3992 194.424 100.86 192.527 100.973C192.4 100.973 192.274 100.973 192.274 100.973C190.25 100.973 188.605 99.624 188.605 97.8259C188.605 96.4773 189.491 95.3535 190.756 94.7916C189.111 90.9707 189.238 85.1269 191.894 81.4184C189.238 82.7669 186.834 84.565 184.684 86.5878C185.063 87.0374 185.316 87.5993 185.316 88.2736C185.316 89.7345 184.051 90.9707 182.533 91.0831C182.407 91.0831 182.407 91.0831 182.28 91.0831C181.395 91.0831 180.636 90.8583 180.003 90.2964C179.371 89.7345 178.991 89.0602 178.991 88.3859C178.991 87.5993 179.244 86.925 179.877 86.3631C180.509 85.8012 181.268 85.5764 182.027 85.464C182.533 85.464 183.039 85.5764 183.545 85.8012C186.834 82.6545 190.882 80.1822 195.057 78.7212C196.954 78.0469 198.725 77.7098 200.623 77.485C196.448 76.4736 192.274 75.4622 188.226 74.226C187.214 73.8889 186.075 73.6641 185.063 73.327C182.154 72.4279 179.371 71.5289 176.84 70.5175C176.334 72.6527 173.804 78.6088 163.052 80.5193C161.281 80.8564 159.636 81.0812 158.118 81.1936C145.848 82.3174 142.559 78.2717 142.432 78.0469C142.432 78.0469 142.432 78.0469 142.432 77.9345C142.432 77.9345 142.432 77.9346 142.432 77.8222V77.7098C142.432 77.5974 142.432 77.5974 142.559 77.485C142.559 77.485 142.559 77.3727 142.685 77.3727C149.263 71.5289 161.66 67.9327 171.527 68.4946C168.491 67.2584 165.708 65.9098 163.052 64.4489C163.052 64.4489 163.052 64.4489 162.925 64.4489C161.154 63.4375 159.383 62.4261 157.739 61.4146C153.691 58.7175 148.884 58.0432 145.468 57.9308C143.065 57.8185 140.661 58.0432 138.384 58.1556C137.878 58.1556 137.372 58.268 136.74 58.268C134.842 58.268 132.059 59.167 130.415 60.5156C130.162 61.4146 130.794 66.1346 133.577 69.9556C134.463 71.3041 135.348 73.2146 134.716 74.5631C134.463 75.125 133.83 75.7993 132.565 76.1365C132.439 76.1365 132.312 76.1365 132.186 76.2488C131.174 76.3612 130.288 75.9117 129.656 75.2374C129.656 75.3498 129.529 75.4622 129.403 75.4622C128.77 76.2488 127.632 76.586 126.493 76.586C125.481 76.4736 124.596 76.0241 123.837 75.125C123.204 74.3384 122.951 73.2146 122.825 72.3155C122.192 72.6527 121.433 72.8774 120.801 72.8774C119.662 72.9898 118.65 72.5403 118.144 71.6413C117.132 70.0679 118.018 67.8203 119.156 66.3594C120.295 64.786 124.722 60.0661 129.909 59.5042C130.415 59.0547 131.047 58.7175 131.806 58.3804C128.644 58.268 125.987 57.8185 123.71 56.9194L123.584 57.0318C123.078 57.4813 122.319 57.8185 121.56 57.9308C121.433 57.9308 121.433 57.9308 121.307 57.9308C119.536 57.9308 118.018 56.6947 117.891 55.1213C117.891 54.3347 118.144 53.548 118.777 52.9861C119.409 52.4242 120.168 52.0871 121.054 52.0871C122.825 52.0871 124.343 53.3232 124.469 54.8966C124.469 55.2337 124.469 55.4585 124.343 55.7956C126.746 56.6947 129.656 57.1442 133.198 57.1442C134.969 57.1442 136.866 57.0318 138.637 56.9194C141.041 56.807 143.444 56.5823 145.974 56.6947C147.998 56.807 150.402 57.0318 152.932 57.7061C150.655 55.908 148.631 54.1099 146.86 52.1994C142.179 49.9518 136.993 49.1652 132.059 48.6033C129.403 48.2661 126.746 48.2661 124.216 48.1537C122.319 48.0414 120.295 48.0414 118.397 47.929C112.578 47.4795 108.404 46.3557 104.988 44.2204C100.181 41.1862 97.7776 36.8033 98.4101 32.87ZM163.937 42.6471C164.823 42.6471 165.455 41.9728 165.455 41.1862C165.455 40.849 165.329 40.5119 164.949 40.1747C164.696 39.95 164.19 39.7252 163.811 39.8376H163.684C162.925 39.95 162.293 40.5119 162.293 41.2986C162.419 42.0852 163.052 42.6471 163.937 42.6471ZM211.122 53.0985C211.122 52.4242 210.743 51.7499 210.237 51.3004C209.731 50.8509 208.972 50.6261 208.213 50.6261C208.086 50.6261 208.086 50.6261 207.96 50.6261C207.327 50.7385 206.695 50.9633 206.189 51.4128C205.683 51.8623 205.43 52.5366 205.43 53.2109C205.43 53.8851 205.809 54.5594 206.315 55.009C206.821 55.4585 207.58 55.6832 208.339 55.6832C209.098 55.6832 209.857 55.3461 210.363 54.8966C210.869 54.3347 211.122 53.7728 211.122 53.0985ZM218.459 61.7518C218.459 61.3023 218.206 60.9651 217.953 60.628C217.574 60.2908 217.194 60.1784 216.688 60.1784H216.562C216.182 60.1784 215.803 60.4032 215.423 60.628C215.044 60.9651 214.917 61.3023 214.917 61.7518C214.917 62.6508 215.803 63.3251 216.815 63.3251C217.321 63.3251 217.7 63.1003 218.08 62.8756C218.333 62.6508 218.459 62.2013 218.459 61.7518ZM247.934 83.8907C248.566 85.9136 249.578 87.7117 250.843 89.0602C251.982 90.2964 253.373 91.0831 254.891 91.645C254.512 81.4183 251.223 72.3155 249.958 69.2813C247.175 73.5517 246.416 79.0584 247.934 83.8907ZM251.855 70.1803C253.247 74.0012 255.903 81.7555 256.409 90.6335C257.674 88.2736 258.054 85.8012 258.054 83.8907C257.927 78.8336 255.65 73.8889 251.855 70.1803ZM237.434 88.1612C234.145 90.9707 227.061 96.7021 218.965 101.31C228.832 99.5116 234.651 95.3535 237.434 88.1612ZM216.688 101.197C225.67 96.2526 233.766 89.6221 236.928 86.925C228.2 88.0488 219.598 90.8583 216.688 101.197ZM190.123 97.6011C190.123 98.7249 191.262 99.624 192.527 99.624C193.792 99.624 194.804 98.6126 194.804 97.4888C194.804 96.365 193.665 95.4659 192.4 95.4659C191.135 95.4659 190.123 96.4773 190.123 97.6011ZM182.28 86.4755H182.154C181.774 86.4755 181.395 86.7002 181.015 86.925C180.636 87.2621 180.509 87.5993 180.509 88.0488C180.509 88.4983 180.762 88.8355 181.015 89.1726C181.395 89.5098 181.774 89.6221 182.28 89.6221C182.786 89.6221 183.166 89.3974 183.545 89.1726C183.925 88.8355 184.051 88.4983 184.051 88.0488C184.051 87.5993 183.798 87.2621 183.545 86.925C183.166 86.5879 182.786 86.4755 182.28 86.4755ZM188.226 71.866C190.123 57.1442 187.846 46.6928 186.708 42.8719C183.039 51.4128 182.533 63.6622 188.226 71.866ZM188.226 43.209C189.364 47.5919 191.388 57.3689 189.744 70.967C192.147 66.9213 193.539 61.3023 193.286 56.1328C192.906 51.188 191.135 46.5804 188.226 43.209ZM120.927 52.9861H120.801C119.789 53.0985 119.03 53.8852 119.03 54.7842C119.03 55.6832 119.915 56.4699 121.054 56.4699C121.56 56.4699 122.066 56.2451 122.445 55.908C122.825 55.5709 122.951 55.1213 122.951 54.6718C122.825 53.7728 121.939 52.9861 120.927 52.9861ZM120.042 66.8089C119.156 68.0451 118.524 69.8432 119.156 70.8546C119.409 71.3041 119.915 71.5289 120.548 71.5289C121.433 71.5289 122.572 70.8546 122.825 70.1803C122.951 69.8432 123.331 69.7308 123.71 69.8432C124.09 69.9555 124.216 70.2927 124.216 70.5175C123.963 71.1917 123.837 73.1022 124.722 74.226C125.228 74.9003 125.734 75.1251 126.367 75.2374C127.126 75.2374 127.758 75.0127 128.138 74.5631C128.391 74.226 128.517 73.8889 128.391 73.4393C128.264 73.1022 128.517 72.7651 128.77 72.6527C129.15 72.5403 129.529 72.7651 129.656 72.9898C130.035 73.8889 130.921 75.0127 132.059 74.7879C132.692 74.6755 133.071 74.3384 133.324 73.8889C133.704 72.9898 133.198 71.4165 132.312 70.2927C130.162 67.2584 129.276 63.887 129.023 61.7518C128.138 63.2127 127.885 65.3479 128.644 69.2813C128.644 69.6184 128.391 69.9556 128.138 69.9556C127.758 69.9556 127.505 69.7308 127.379 69.506C126.873 66.4717 126.746 64.2242 127.379 62.5384C126.746 63.3251 126.114 64.4489 125.734 65.9099C125.734 66.1346 125.481 66.3594 125.102 66.3594C124.975 66.3594 124.975 66.3594 124.849 66.3594C124.469 66.247 124.216 66.0222 124.343 65.6851C124.849 63.7746 125.734 62.3137 126.62 61.4146C123.457 62.8756 120.927 65.6851 120.042 66.8089ZM148.251 14.8892C147.745 13.9901 146.986 13.4282 146.227 13.2035C145.342 12.9787 144.203 13.2035 143.318 13.7654C142.432 14.3273 141.673 15.1139 140.914 16.013C140.788 16.2377 140.535 16.2377 140.282 16.2377C140.029 16.2377 139.776 16.013 139.776 15.7882C139.143 13.2034 135.981 11.293 132.945 11.6301C130.035 11.9673 127.505 14.6644 127.632 17.2491C127.632 17.4739 127.505 17.6987 127.252 17.811C126.999 17.9234 126.746 17.9234 126.62 17.811C125.102 17.0244 123.457 16.2377 121.813 15.9006C120.421 15.6758 118.397 15.7882 117.259 16.7996C114.476 19.272 115.361 22.0815 116.626 25.0034C119.789 32.3081 130.541 40.0624 138.384 45.1195C131.3 38.0395 129.656 31.5215 129.529 31.1843C129.403 30.8472 129.656 30.51 130.035 30.51C130.415 30.3976 130.794 30.6224 130.794 30.9595C130.794 31.0719 133.198 39.95 143.444 48.0414C138.131 39.5005 139.902 27.8129 140.029 27.251C140.029 26.9139 140.408 26.6891 140.788 26.6891C141.167 26.6891 141.42 27.0262 141.42 27.3634C141.42 27.4758 139.776 38.489 144.33 46.6928C144.203 46.2433 144.077 45.7938 144.077 45.4566C143.318 40.9614 144.33 36.8033 145.595 32.9824C145.848 32.0834 146.227 31.1843 146.48 30.2853C147.872 26.2396 149.263 21.9691 149.01 17.5863C148.757 16.912 148.757 15.7882 148.251 14.8892ZM155.588 36.3538L156.221 35.9043C158.624 34.331 161.028 32.6453 162.925 30.6224C164.443 29.0491 165.202 27.4758 165.455 26.0148C165.708 24.2167 165.076 22.531 163.811 21.5196C162.419 20.5082 160.142 20.5082 159.13 21.632C158.877 21.8567 158.498 21.8567 158.245 21.7444C157.992 21.5196 157.865 21.2948 157.992 20.9577C159.004 19.0472 158.245 16.5749 156.221 15.5634C154.197 14.4396 151.414 15.0015 150.022 16.5749C150.022 16.912 150.149 17.2491 150.149 17.5863C150.402 22.1939 149.01 26.4643 147.492 30.7348C147.239 31.6338 146.86 32.5329 146.607 33.4319C145.468 37.1405 144.456 41.1862 145.215 45.4566C145.215 45.569 145.215 45.7938 145.342 46.0185C145.468 36.3538 153.691 30.8472 153.817 30.8472C154.07 30.6224 154.576 30.7348 154.703 30.9595C154.956 31.1843 154.829 31.6338 154.576 31.7462C154.197 31.971 146.986 36.8033 146.607 45.4566C146.986 44.5576 147.492 43.6585 148.125 42.7595C150.275 40.1747 153.058 38.1519 155.588 36.3538ZM162.925 79.1707C172.033 77.5974 174.69 73.1022 175.449 70.8546C172.16 72.6527 162.799 76.9231 151.161 78.0469C149.263 78.2717 147.239 78.2717 145.215 78.2717C147.239 79.3955 152.426 80.9688 162.925 79.1707ZM144.709 76.9231C158.877 77.2603 170.642 71.7536 174.563 69.7308C165.329 68.2698 152.046 71.4165 144.709 76.9231ZM105.241 42.8719C108.404 44.7823 112.452 45.9062 117.891 46.3557C119.789 46.4681 121.813 46.5804 123.71 46.5804C126.367 46.6928 129.023 46.6928 131.68 47.0299C134.842 47.3671 138.384 47.929 141.8 48.828C141.547 48.7157 141.294 48.4909 141.041 48.3785C130.415 42.9842 119.03 43.209 119.03 43.209C118.65 43.209 118.397 42.9843 118.397 42.6471C118.397 42.31 118.65 42.0852 119.03 42.0852C119.409 42.0852 126.746 41.9728 135.222 44.7823C127.632 39.6128 118.271 32.4205 115.235 25.5653C115.108 25.2282 114.982 24.891 114.729 24.5539C113.97 23.2053 112.705 22.3063 111.313 22.0815C110.175 21.9691 109.036 22.3063 108.277 22.9805C107.518 23.6548 107.139 24.6663 107.265 25.7901C107.392 26.8015 107.898 27.7005 108.657 28.2624C108.783 28.2624 108.783 28.3748 108.91 28.3748C109.163 28.5996 109.289 28.9367 109.036 29.1615C108.783 29.3862 108.404 29.4986 108.151 29.2738C108.024 29.2738 108.024 29.1615 107.898 29.0491C106.127 27.9253 103.597 28.0377 101.952 29.1615C100.814 29.9481 99.9281 31.2967 99.6751 32.9824C99.1691 36.5786 101.32 40.5119 105.241 42.8719Z" fill="white"/>
</g>
</g>
<defs>
<clipPath id="clip0_373_2197">
<rect x="92.0889" y="9.06641" width="75.9111" height="42.3111" rx="12.4444" fill="white"/>
</clipPath>
</defs>
</svg>
