<svg width="30" height="30" viewBox="0 0 30 30" fill="none" xmlns="http://www.w3.org/2000/svg">
<g clip-path="url(#clip0_319_1117)">
<path d="M28.9091 8.81994C29.1801 8.81994 29.3991 8.60094 29.3991 8.32996C29.3991 8.05899 29.1801 7.83998 28.9091 7.83998H26.4591V7.34994H28.9091C29.1801 7.34994 29.3991 7.13094 29.3991 6.85996C29.3991 6.58899 29.1801 6.36998 28.9091 6.36998H26.4591V5.87994H28.4191C28.69 5.87994 28.909 5.66094 28.909 5.38996C28.909 5.11899 28.69 4.89998 28.4191 4.89998H26.4591V4.40994H27.9291C28.2001 4.40994 28.4191 4.19094 28.4191 3.91996C28.4191 3.64899 28.2001 3.42998 27.9291 3.42998H26.4591V2.93994H27.4391C27.7101 2.93994 27.9291 2.72094 27.9291 2.44996C27.9291 2.17899 27.7101 1.95998 27.4391 1.95998H26.4591V1.46994H26.9491C27.22 1.46994 27.439 1.25094 27.439 0.979962C27.439 0.708988 27.22 0.489981 26.9491 0.489981H26.4591C26.4591 0.219007 26.2401 0 25.9691 0C25.6981 0 25.4791 0.219007 25.4791 0.489981H24.9891C24.7181 0.489981 24.4991 0.708988 24.4991 0.979962C24.4991 1.25094 24.7181 1.46994 24.9891 1.46994H25.4791V1.95992H24.499C24.2281 1.95992 24.0091 2.17893 24.0091 2.4499C24.0091 2.72088 24.2281 2.93989 24.499 2.93989H25.4791V3.42987H24.0091C23.7381 3.42987 23.5191 3.64887 23.5191 3.91985C23.5191 4.19082 23.7381 4.40983 24.0091 4.40983H25.4791V4.89981H23.5191C23.2481 4.89981 23.0291 5.11882 23.0291 5.38979C23.0291 5.66076 23.2481 5.87977 23.5191 5.87977H25.4791V6.36975H23.029C22.7581 6.36975 22.5391 6.58876 22.5391 6.85973C22.5391 7.13071 22.7581 7.34971 23.029 7.34971H25.4791V7.83969H23.029C22.7581 7.83969 22.5391 8.0587 22.5391 8.32967C22.5391 8.60065 22.7581 8.81966 23.029 8.81966H25.4791V9.30964H23.029C22.7581 9.30964 22.5391 9.52864 22.5391 9.79962C22.5391 10.0706 22.7581 10.2896 23.029 10.2896H25.4791V10.7796H23.029C22.7581 10.7796 22.5391 10.9986 22.5391 11.2696C22.5391 11.5405 22.7581 11.7595 23.029 11.7595H25.4791V12.2495H23.5191C23.2481 12.2495 23.0291 12.4685 23.0291 12.7395C23.0291 13.0105 23.2481 13.2295 23.5191 13.2295H25.4791V13.7195H24.0091C23.7381 13.7195 23.5191 13.9385 23.5191 14.2094C23.5191 14.4804 23.7381 14.6994 24.0091 14.6994H25.4791V15.1894H24.499C24.2281 15.1894 24.0091 15.4084 24.0091 15.6794C24.0091 15.9504 24.2281 16.1694 24.499 16.1694H25.4791V18.1293H24.8862C24.1326 18.1293 23.5191 18.7428 23.5191 19.4964V20.5799H22.5391V29.3999H29.3991V20.5799H28.4191V19.497C28.4191 18.7434 27.8056 18.1299 27.052 18.1299H26.4591V16.1699H27.4391C27.7101 16.1699 27.9291 15.9509 27.9291 15.68C27.9291 15.409 27.7101 15.19 27.4391 15.19H26.4591V14.6999H27.9291C28.2001 14.6999 28.4191 14.4809 28.4191 14.21C28.4191 13.939 28.2001 13.72 27.9291 13.72H26.4591V13.2299H28.4191C28.69 13.2299 28.909 13.0109 28.909 12.74C28.909 12.469 28.69 12.25 28.4191 12.25H26.4591V11.7599H28.9091C29.1801 11.7599 29.3991 11.5409 29.3991 11.27C29.3991 10.999 29.1801 10.78 28.9091 10.78H26.4591V10.2899H28.9091C29.1801 10.2899 29.3991 10.0709 29.3991 9.79996C29.3991 9.52899 29.1801 9.30998 28.9091 9.30998H26.4591V8.81994H28.9091ZM27.052 19.1099C27.2656 19.1099 27.439 19.2834 27.439 19.497V20.5799H24.499V19.497C24.499 19.2834 24.6725 19.1099 24.8861 19.1099H27.052Z" fill="black"/>
<path d="M18.6202 7.60565C18.7334 7.05538 18.6491 6.56488 18.3214 6.23706C17.9421 5.85779 17.3497 5.77843 16.6529 6.00921C16.0713 6.20375 15.4558 6.60456 14.9212 7.13962C13.9584 8.10247 13.5223 9.20497 13.7203 9.9816V16.1703H12.7402V18.6203H19.6003V16.1703H18.6202V7.60565ZM17.6402 16.1704H14.7002V10.8774C14.7766 10.8896 14.857 10.895 14.9398 10.8955C14.9447 10.896 14.9497 10.897 14.9551 10.897C14.9698 10.897 14.9869 10.8931 15.0021 10.8926C15.0844 10.8906 15.1692 10.8828 15.2564 10.8696C15.2887 10.8647 15.3206 10.8593 15.3539 10.8529C15.4622 10.8314 15.5729 10.8049 15.6876 10.7667C16.2692 10.5731 16.8841 10.1723 17.4193 9.63724C17.4957 9.56029 17.5692 9.48191 17.6403 9.40204L17.6402 16.1704ZM17.6647 7.42385C17.6618 7.4327 17.6559 7.43953 17.6535 7.44837C17.6265 7.56058 17.5854 7.67772 17.5344 7.79578C17.528 7.80996 17.5216 7.8242 17.5153 7.8389C17.4687 7.94082 17.4129 8.0447 17.3506 8.14858C17.3369 8.1716 17.3251 8.19417 17.3104 8.2172C17.2438 8.32256 17.1688 8.4269 17.088 8.53078C17.0738 8.54892 17.063 8.56655 17.0483 8.5847C16.9498 8.70718 16.8425 8.82776 16.7264 8.94433C16.303 9.36718 15.8116 9.69254 15.3774 9.83758C15.0046 9.96104 14.786 9.91993 14.712 9.84643C14.6973 9.83121 14.6895 9.8048 14.6792 9.78223C14.6767 9.77534 14.6748 9.7739 14.6718 9.76558C14.6694 9.75771 14.663 9.75237 14.6596 9.7445C14.5739 9.42943 14.8184 8.62828 15.6141 7.83253C16.3109 7.13577 17.0136 6.86083 17.3884 6.86083C17.5006 6.86083 17.5834 6.88535 17.6285 6.92991C17.7025 7.00439 17.7201 7.18274 17.6647 7.42385Z" fill="black"/>
<path d="M9.30998 1.4702C9.58095 1.4702 9.79996 1.25119 9.79996 0.980215C9.79996 0.709241 9.58095 0.490234 9.30998 0.490234H4.41H3.92002H2.3706C1.06328 0.490177 0 1.55352 0 2.86084V26.0496C0 27.3569 1.06328 28.4202 2.3706 28.4202H3.91996H4.41H9.30998C9.58095 28.4202 9.79996 28.2012 9.79996 27.9302C9.79996 27.6592 9.58095 27.4402 9.30998 27.4402H4.41V25.9702H9.30998C9.58095 25.9702 9.79996 25.7512 9.79996 25.4802C9.79996 25.2093 9.58095 24.9903 9.30998 24.9903H4.41V23.5203H9.30998C9.58095 23.5203 9.79996 23.3012 9.79996 23.0303C9.79996 22.7593 9.58095 22.5403 9.30998 22.5403H4.41V21.0703H9.30998C9.58095 21.0703 9.79996 20.8513 9.79996 20.5803C9.79996 20.3093 9.58095 20.0903 9.30998 20.0903H4.41V18.6203H9.30998C9.58095 18.6203 9.79996 18.4013 9.79996 18.1303C9.79996 17.8594 9.58095 17.6404 9.30998 17.6404H4.41V16.1704H9.30998C9.58095 16.1704 9.79996 15.9514 9.79996 15.6804C9.79996 15.4094 9.58095 15.1904 9.30998 15.1904H4.41V13.7204H9.30998C9.58095 13.7204 9.79996 13.5014 9.79996 13.2304C9.79996 12.9595 9.58095 12.7404 9.30998 12.7404H4.41V11.2704H9.30998C9.58095 11.2704 9.79996 11.0514 9.79996 10.7805C9.79996 10.5095 9.58095 10.2905 9.30998 10.2905H4.41V8.82048H9.30998C9.58095 8.82048 9.79996 8.60148 9.79996 8.3305C9.79996 8.05953 9.58095 7.84052 9.30998 7.84052H4.41V6.37052H9.30998C9.58095 6.37052 9.79996 6.15151 9.79996 5.88054C9.79996 5.60957 9.58095 5.39056 9.30998 5.39056H4.41V3.92056H9.30998C9.58095 3.92056 9.79996 3.70155 9.79996 3.43058C9.79996 3.15961 9.58095 2.9406 9.30998 2.9406H4.41V1.4702H9.30998Z" fill="black"/>
<path d="M19.6003 19.5996H12.7402V29.3996H19.6003V19.5996Z" fill="black"/>
</g>
<defs>
<clipPath id="clip0_319_1117">
<rect width="29.4" height="29.4" fill="white"/>
</clipPath>
</defs>
</svg>
