<svg width="20" height="15" viewBox="0 0 20 15" fill="none" xmlns="http://www.w3.org/2000/svg">
<path d="M0.199806 11.5819V3.41786L6.62781 7.49986L0.199806 11.5819ZM19.6438 13.9159C19.3598 14.5519 18.7138 14.9939 17.9618 14.9939H2.03781C1.28981 14.9939 0.643806 14.5539 0.357807 13.9239C0.255808 13.6999 0.199806 13.4499 0.199806 13.1879L7.89381 8.30186L9.99981 9.64186L12.1078 8.30386L19.7998 13.1879C19.7998 13.4459 19.7438 13.6919 19.6438 13.9159ZM19.7998 3.41786V11.5799L13.3718 7.49986L19.7998 3.41786ZM17.9618 0.00585938C18.7138 0.00585938 19.3598 0.449859 19.6438 1.08386C19.7438 1.30586 19.7998 1.55186 19.7998 1.81186L9.99981 8.03386L0.199806 1.81186C0.199806 1.54986 0.255808 1.29986 0.357807 1.07586C0.643806 0.445859 1.28981 0.00585938 2.03781 0.00585938H17.9618Z" fill="black"/>
</svg>
