<svg width="45" height="44" viewBox="0 0 45 44" fill="none" xmlns="http://www.w3.org/2000/svg">
<path d="M1.08124 8.7815C1.08124 8.7815 5.16004 3.1891 6.92444 1.8163C8.68884 0.443496 9.63485 -0.260504 12.0372 1.4511C14.4396 3.1627 16.2656 5.0547 17.6384 7.1931C19.0068 9.3315 19.4644 11.2543 17.2732 12.6931C15.082 14.1319 11.1572 15.8083 12.7676 19.4163C14.3824 23.0243 19.3412 27.6047 19.3412 27.6047C19.3412 27.6047 23.0548 31.2391 25.5496 32.0047C28.0444 32.7703 29.2632 31.2699 30.0552 29.9279C30.8472 28.5859 32.462 25.0087 35.0492 25.8931C37.6364 26.7775 39.7968 28.5507 41.746 30.7815C43.6952 33.0123 45.3056 34.9351 42.7184 37.7467C40.1312 40.5583 35.8984 43.4887 35.8984 43.4887C35.8984 43.4887 34.0108 43.8539 31.0276 42.8771C28.0444 41.9003 17.5152 38.2659 9.96484 29.1887C8.46884 27.3891 2.26484 17.9159 1.32324 11.8351C1.32764 11.8351 0.654444 9.3931 1.08124 8.7815Z" fill="#C69247"/>
</svg>
