<svg width="30" height="28" viewBox="0 0 30 28" fill="none" xmlns="http://www.w3.org/2000/svg">
<path d="M18.375 3.62598L18.46 3.63086C18.5443 3.6408 18.627 3.66582 18.7031 3.7041C18.8047 3.75524 18.8928 3.82992 18.959 3.92285L20.585 6.20996H23.8867C24.5571 6.20996 25.203 6.45952 25.6816 6.9082C26.1609 7.35748 26.4336 7.97048 26.4336 8.61328V20.6719C26.4336 21.3147 26.1609 21.9277 25.6816 22.377C25.203 22.8256 24.5571 23.0752 23.8867 23.0752H5.51172C4.84133 23.0752 4.19547 22.8256 3.7168 22.377C3.23756 21.9277 2.96484 21.3147 2.96484 20.6719V8.61328C2.96484 7.97048 3.23756 7.35748 3.7168 6.9082C4.19547 6.45952 4.84133 6.20996 5.51172 6.20996H8.81152L10.4395 3.92285C10.5056 3.82993 10.5938 3.75524 10.6953 3.7041C10.7969 3.65304 10.9098 3.62623 11.0234 3.62598H18.375ZM9.77246 7.27441C9.70605 7.36771 9.61768 7.443 9.51562 7.49414C9.41362 7.54525 9.30054 7.57136 9.18652 7.57129H5.51172C5.20751 7.57129 4.91852 7.68449 4.70801 7.88184C4.49804 8.07868 4.38379 8.34232 4.38379 8.61328V20.6719C4.38379 20.9428 4.49804 21.2065 4.70801 21.4033C4.91852 21.6007 5.20751 21.7139 5.51172 21.7139H23.8867C24.1909 21.7139 24.4799 21.6007 24.6904 21.4033C24.9004 21.2065 25.0146 20.9428 25.0146 20.6719V8.61328C25.0146 8.34233 24.9004 8.07868 24.6904 7.88184C24.4799 7.68449 24.1909 7.57129 23.8867 7.57129H20.2119C20.0979 7.57136 19.9848 7.54525 19.8828 7.49414C19.7808 7.443 19.6924 7.36771 19.626 7.27441L17.999 4.9873H11.3975L9.77246 7.27441ZM14.6992 9.65527C15.9788 9.65527 17.2087 10.1318 18.1182 10.9844C19.0281 11.8375 19.543 12.998 19.543 14.2119C19.543 15.1169 19.2569 16.0004 18.7227 16.75C18.1886 17.4993 17.4309 18.0809 16.5479 18.4238C15.6648 18.7667 14.6934 18.8563 13.7568 18.6816C12.8205 18.507 11.9585 18.0752 11.2803 17.4395C10.6018 16.8034 10.1374 15.9906 9.94922 15.1035C9.76111 14.2165 9.85789 13.2973 10.2266 12.4629C10.5952 11.6285 11.2185 10.9177 12.0146 10.4189C12.8106 9.92044 13.7448 9.65527 14.6992 9.65527ZM16.0146 11.2617C15.387 11.0181 14.6955 10.9538 14.0283 11.0781C13.3609 11.2026 12.7496 11.5098 12.2715 11.958C11.7936 12.406 11.4707 12.9751 11.3398 13.5918C11.209 14.2083 11.2751 14.8478 11.5322 15.4297C11.7894 16.0116 12.2266 16.5112 12.79 16.8643C13.3538 17.2174 14.0184 17.4072 14.6992 17.4072C15.6126 17.4072 16.4857 17.067 17.127 16.4658C17.7677 15.8652 18.124 15.054 18.124 14.2119C18.124 13.5839 17.9258 12.9684 17.5518 12.4434C17.1773 11.918 16.6424 11.5055 16.0146 11.2617Z" fill="black" stroke="black" stroke-width="0.5"/>
<ellipse cx="22.2882" cy="10.2241" rx="0.948387" ry="0.889113" fill="black"/>
</svg>
