<svg width="46" height="33" viewBox="0 0 46 33" fill="none" xmlns="http://www.w3.org/2000/svg">
<path d="M11.9489 14.4865C14.5904 14.4865 16.7367 15.2707 18.3876 16.8391C20.0386 18.3662 20.8641 20.4712 20.8641 23.154C20.8641 25.8369 19.956 28.045 18.14 29.7785C16.3652 31.512 13.8268 32.3788 10.5249 32.3788C7.14042 32.3788 4.54015 31.2644 2.72409 29.0356C0.908031 26.7655 0 23.8763 0 20.368C0 16.9836 0.825482 14.0118 2.47645 11.4528C4.12741 8.89382 6.19112 6.72693 8.66756 4.95214C11.1853 3.13608 13.6824 1.73276 16.1588 0.742188L18.14 4.76641C16.4477 5.4268 14.7555 6.35547 13.0633 7.55242C11.4123 8.74936 10.0296 10.0908 8.91521 11.5766C7.80081 13.0625 7.22297 14.569 7.1817 16.0962C7.34679 15.8072 7.84208 15.477 8.66756 15.1056C9.53432 14.6928 10.6281 14.4865 11.9489 14.4865ZM37.0848 14.4865C39.7263 14.4865 41.8726 15.2707 43.5236 16.8391C45.1745 18.3662 46 20.4712 46 23.154C46 25.8369 45.092 28.045 43.2759 29.7785C41.5011 31.512 38.9628 32.3788 35.6608 32.3788C32.2764 32.3788 29.6761 31.2644 27.86 29.0356C26.044 26.7655 25.1359 23.8763 25.1359 20.368C25.1359 16.9836 25.9614 14.0118 27.6124 11.4528C29.2633 8.89382 31.3271 6.72693 33.8035 4.95214C36.3212 3.13608 38.8183 1.73276 41.2948 0.742188L43.2759 4.76641C41.5837 5.4268 39.8914 6.35547 38.1992 7.55242C36.5482 8.74936 35.1656 10.0908 34.0512 11.5766C32.9367 13.0625 32.3589 14.569 32.3176 16.0962C32.4827 15.8072 32.978 15.477 33.8035 15.1056C34.6703 14.6928 35.764 14.4865 37.0848 14.4865Z" fill="#C69247"/>
</svg>
