<svg width="108" height="69" viewBox="0 0 108 69" fill="none" xmlns="http://www.w3.org/2000/svg">
<path d="M107.445 14.9764C107.296 13.7111 106.7 12.669 105.882 11.9247C104.988 11.2548 103.872 11.0315 102.755 11.2548C102.904 10.9571 102.979 10.6593 102.979 10.3616C103.053 9.39399 102.755 8.50081 102.234 7.90535C101.639 7.23546 100.671 6.93773 99.7781 7.08659C99.2571 7.16103 98.7361 7.38433 98.3639 7.68205C98.5128 6.41671 98.2895 5.15136 97.0986 3.96044C96.2798 3.14169 95.0145 2.84395 93.6747 3.14168C92.7815 3.29055 91.8883 3.73715 91.144 4.18374C90.9207 2.2485 89.3576 0.536552 87.4224 0.313256C85.4872 0.0155266 83.5519 1.20644 82.8076 2.91838C82.4354 2.47179 82.1377 2.17407 81.6911 1.87634C80.9468 1.35531 80.0536 1.13202 79.3093 1.35531C78.5649 1.57861 77.9695 2.09963 77.5973 2.91838C77.5229 3.06725 77.4485 3.29055 77.374 3.43942C76.2576 2.39737 74.3967 2.2485 73.057 2.99282C71.8661 3.73714 71.2706 5.15136 71.4195 6.56557C70.5263 6.19341 69.3354 6.4167 68.5166 7.08659C67.549 7.90535 67.028 9.31956 67.2513 10.7338C67.4001 11.8503 67.9956 13.0412 68.9632 14.1577C70.1541 15.5719 71.6428 16.6883 73.057 17.8048L73.4291 18.1026C74.9178 19.2191 76.4809 20.4844 77.5973 22.1219C78.7138 23.7594 79.1604 25.6202 78.7883 27.1833C78.7883 27.1833 78.7883 27.1833 78.7883 27.2577V27.3322C76.4809 30.0117 73.7269 32.3936 70.4518 34.5521C70.9729 33.2123 71.345 31.6492 71.4939 30.0862C73.2058 28.8952 73.9501 26.5878 73.8013 24.8015C73.8013 24.5782 73.578 24.4293 73.3547 24.4293C73.1314 24.4293 72.9825 24.6526 72.9825 24.8759C73.1314 26.2157 72.6848 27.9276 71.5683 29.0441C71.6428 26.6623 71.2706 24.1316 70.303 22.0475C70.6007 21.7498 70.824 21.3032 70.824 20.8566C70.824 19.8889 70.0797 19.1446 69.1121 19.0702C68.6655 19.0702 68.2189 19.219 67.9211 19.5168C67.6234 19.8145 67.4001 20.2611 67.4001 20.7077C67.4001 21.6009 68.07 22.3452 68.9632 22.4196C69.0376 22.4196 69.0376 22.4196 69.1121 22.4196C69.2609 22.4196 69.4842 22.4196 69.6331 22.3452C71.5683 26.3645 70.9729 31.947 69.2609 35.2964C65.6137 37.4549 61.3711 39.3902 56.3841 41.1021C56.0864 41.1766 55.8631 41.251 55.5654 41.3999C59.2126 35.4453 58.6171 26.2901 56.0864 20.41C56.0864 20.3355 56.012 20.3355 56.012 20.2611C56.012 20.2611 56.012 20.2611 55.9375 20.2611L55.8631 20.1867C55.8631 20.1867 55.8631 20.1867 55.7887 20.1867C55.7143 20.1867 55.7143 20.1867 55.6398 20.1867C55.6398 20.1867 55.6398 20.1867 55.5654 20.1867C55.491 20.1867 55.491 20.1867 55.4165 20.2611C52.9603 22.6429 51.3228 26.439 51.1739 30.5328C50.9506 34.6265 52.0671 39.018 54.0023 41.8465C50.7273 42.8885 47.3778 43.7817 44.0284 44.6749C43.1352 44.8982 42.1676 45.1215 41.2744 45.4192C38.8926 46.0147 36.4363 46.6101 34.0545 47.28C35.0965 46.1635 36.0641 44.8237 36.8085 43.1862C38.3715 42.2186 39.6369 41.1021 40.6789 39.8368C40.7534 39.8368 44.6239 36.6362 47.8989 37.8271C48.1222 37.9015 48.3455 37.8271 48.4199 37.6038C48.4943 37.3805 48.4199 37.1572 48.1966 37.0828C45.8892 36.264 43.4329 37.2317 41.8699 38.1248C43.0608 36.0407 43.6562 33.7333 43.6562 30.9794C44.7727 30.7561 45.5915 29.7884 45.5915 28.5975C45.5915 27.9276 45.3682 27.3322 44.9216 26.8111C44.475 26.3645 43.8795 26.0668 43.2096 26.0668C42.5398 26.0668 41.9443 26.2901 41.4233 26.7367C40.9767 27.1833 40.6789 27.7788 40.6789 28.4486C40.6789 29.1185 40.9022 29.714 41.3488 30.235C41.721 30.6816 42.3165 30.9049 42.8375 30.9794C42.8375 35.6686 40.9767 39.1669 37.3295 41.772C37.9994 39.9112 38.446 37.976 38.5204 36.0407C39.3392 35.8174 39.9346 35.1476 39.9346 34.2544C39.9346 33.7333 39.7858 33.2867 39.4136 32.9146C39.0414 32.5424 38.5948 32.3936 38.1482 32.3191C37.6272 32.3191 37.1806 32.468 36.8085 32.8402C36.4363 33.2123 36.213 33.6589 36.213 34.1055C36.213 34.6265 36.3619 35.0731 36.734 35.4453C37.0318 35.743 37.3295 35.8919 37.7016 35.9663C37.6272 38.1248 37.0318 40.5067 36.0641 42.5908C35.0965 44.7493 33.7567 46.4613 32.2681 47.5777C29.8118 48.2476 27.3556 49.0664 24.9737 49.8851H24.8993C23.7828 50.2573 22.7408 50.7039 21.6243 51.1505C20.6567 51.5227 19.7635 51.9692 18.7959 52.4158C19.4658 51.4482 20.0612 50.3317 20.4334 49.0664C21.4754 45.3448 20.8055 41.1021 18.7214 38.0504L18.647 37.976C18.647 37.976 18.5726 37.976 18.5726 37.9015C18.5726 37.9015 18.5726 37.9015 18.4981 37.9015C18.4981 37.9015 18.4981 37.9015 18.4237 37.9015H18.3493C18.3493 37.9015 18.3493 37.9015 18.2748 37.9015C18.2748 37.9015 18.2004 37.9015 18.2004 37.976C14.9998 40.6555 13.139 44.6749 13.0646 48.8431C13.0646 50.4806 13.3623 52.7136 14.7021 54.6488C8.44978 58.2215 3.46282 62.7619 0.1878 67.8233C0.0389358 67.9722 0.113366 68.2699 0.336663 68.3443C0.411095 68.3443 0.485525 68.4188 0.485525 68.4188C0.634389 68.4188 0.783254 68.3443 0.857686 68.2699C5.17476 61.571 12.618 55.7653 21.922 51.9692C22.8896 51.5971 23.8573 51.2249 24.7504 50.8527C26.4624 57.0306 30.8539 60.4545 38.5948 61.4966C38.6693 61.4966 38.7437 61.4966 38.8181 61.4966C38.8181 61.4966 38.8181 61.4966 38.8926 61.4966C38.8926 61.4966 38.967 61.4966 38.967 61.4221C38.967 61.4221 38.967 61.4221 38.967 61.3477V61.2733V61.1988C38.967 61.1244 38.967 61.1244 38.967 61.05C38.1483 56.7329 35.9153 51.6715 26.6112 50.1829C31.4493 48.5454 36.4363 47.28 41.2744 46.0891C42.1676 45.8658 43.0608 45.6425 44.0284 45.4192C46.0381 45.047 48.1222 45.2703 50.2807 46.0891C53.1836 47.5777 53.4813 52.8624 52.3648 55.8397H52.2904C51.0995 55.8397 50.1318 56.7329 50.1318 57.9238C50.1318 59.0403 50.9506 60.0079 52.0671 60.0824C52.1415 60.0824 52.2159 60.0824 52.2159 60.0824C53.4068 60.0824 54.3745 59.1892 54.3745 57.9982C54.3745 57.1051 53.8535 56.3608 53.1091 55.9886C54.0768 53.4579 54.0023 49.5874 52.4392 47.1311C54.0023 48.0243 55.4165 49.2152 56.6819 50.555C56.4586 50.8528 56.3097 51.2249 56.3097 51.6715C56.3097 52.6391 57.054 53.4579 57.9472 53.5323C58.0217 53.5323 58.0217 53.5323 58.0961 53.5323C58.6171 53.5323 59.0637 53.3835 59.4359 53.0113C59.808 52.6391 60.0313 52.1925 60.0313 51.7459C60.0313 51.2249 59.8825 50.7783 59.5103 50.4062C59.1381 50.034 58.6915 49.8851 58.245 49.8107C57.9472 49.8107 57.6495 49.8851 57.3518 50.034C55.4165 47.9499 53.0347 46.3124 50.5784 45.3448C49.4619 44.8982 48.4199 44.6749 47.3034 44.526C49.7597 43.8561 52.2159 43.1862 54.5978 42.3675C55.1932 42.1442 55.8631 41.9953 56.4586 41.772C58.1705 41.1766 59.808 40.5811 61.2967 39.9112C61.5944 41.3254 63.083 45.2703 69.4098 46.5357C70.4518 46.759 71.4195 46.9079 72.3126 46.9823C79.5326 47.7266 81.4678 45.047 81.5422 44.8982C81.5422 44.8982 81.5422 44.8982 81.5422 44.8237C81.5422 44.8237 81.5422 44.8237 81.5422 44.7493V44.6749C81.5422 44.6004 81.5423 44.6004 81.4678 44.526C81.4678 44.526 81.4678 44.4516 81.3934 44.4516C77.5229 40.5811 70.2285 38.1993 64.4228 38.5714C66.2092 37.7527 67.8467 36.8595 69.4098 35.8919C69.4098 35.8919 69.4098 35.8919 69.4842 35.8919C70.5263 35.222 71.5683 34.5521 72.5359 33.8822C74.9178 32.0958 77.7462 31.6492 79.7559 31.5748C81.1701 31.5004 82.5843 31.6492 83.9241 31.7237C84.2218 31.7237 84.5195 31.7981 84.8917 31.7981C86.0082 31.7981 87.6457 32.3936 88.6133 33.2867C88.7622 33.8822 88.39 37.0084 86.7525 39.5391C86.2315 40.4322 85.7104 41.6976 86.0826 42.5908C86.2315 42.9629 86.6036 43.4095 87.348 43.6328C87.4224 43.6328 87.4968 43.6328 87.5713 43.7073C88.1667 43.7817 88.6877 43.484 89.0599 43.0374C89.0599 43.1118 89.1343 43.1862 89.2088 43.1862C89.5809 43.7073 90.2508 43.9306 90.9207 43.9306C91.5162 43.8561 92.0372 43.5584 92.4838 42.9629C92.8559 42.4419 93.0048 41.6976 93.0792 41.1021C93.4514 41.3254 93.898 41.4743 94.2702 41.4743C94.94 41.5487 95.5355 41.251 95.8332 40.6555C96.4287 39.6135 95.9077 38.1248 95.2378 37.1572C94.5679 36.1152 91.9628 32.989 88.911 32.6169C88.6133 32.3191 88.2412 32.0958 87.7946 31.8725C89.6554 31.7981 91.2184 31.5004 92.5582 30.9049L92.6327 30.9794C92.9304 31.2771 93.377 31.5004 93.8236 31.5748C93.898 31.5748 93.898 31.5748 93.9724 31.5748C95.0145 31.5748 95.9077 30.756 95.9821 29.714C95.9821 29.193 95.8332 28.6719 95.4611 28.2998C95.0889 27.9276 94.6423 27.7043 94.1213 27.7043C93.0793 27.7043 92.1861 28.5231 92.1116 29.5651C92.1116 29.7884 92.1116 29.9373 92.1861 30.1606C90.7719 30.756 89.0599 31.0538 86.9758 31.0538C85.9338 31.0538 84.8173 30.9793 83.7752 30.9049C82.361 30.8305 80.9468 30.6816 79.4581 30.7561C78.2672 30.8305 76.853 30.9793 75.3644 31.4259C76.7041 30.235 77.8951 29.0441 78.9371 27.7788C81.6911 26.2901 84.7428 25.7691 87.6457 25.3969C89.2088 25.1736 90.7719 25.1736 92.2605 25.0992C93.377 25.0248 94.5679 25.0248 95.6844 24.9503C99.1082 24.6526 101.565 23.9083 103.574 22.4941C106.403 20.4844 107.817 17.5815 107.445 14.9764ZM68.8888 21.452C68.3677 21.452 67.9956 21.0054 67.9956 20.4844C67.9956 20.2611 68.07 20.0378 68.2933 19.8145C68.4422 19.6656 68.7399 19.5168 68.9632 19.5912H69.0376C69.4842 19.6656 69.8564 20.0378 69.8564 20.5588C69.782 21.0799 69.4098 21.452 68.8888 21.452ZM41.1255 28.3742C41.1255 27.9276 41.3488 27.481 41.6466 27.1833C41.9443 26.8856 42.3909 26.7367 42.8375 26.7367C42.9119 26.7367 42.9119 26.7367 42.9863 26.7367C43.3585 26.8111 43.7307 26.96 44.0284 27.2577C44.3261 27.5555 44.475 28.0021 44.475 28.4486C44.475 28.8952 44.2517 29.3418 43.954 29.6396C43.6562 29.9373 43.2096 30.0862 42.763 30.0862C42.3165 30.0862 41.8699 29.8629 41.5721 29.5651C41.2744 29.193 41.1255 28.8208 41.1255 28.3742ZM36.8085 34.1055C36.8085 33.8078 36.9573 33.5845 37.1062 33.3612C37.3295 33.1379 37.5528 33.0634 37.8505 33.0634H37.9249C38.1482 33.0634 38.3715 33.2123 38.5948 33.3612C38.8181 33.5845 38.8926 33.8078 38.8926 34.1055C38.8926 34.701 38.3715 35.1475 37.7761 35.1475C37.4784 35.1475 37.2551 34.9987 37.0318 34.8498C36.8829 34.701 36.8085 34.4032 36.8085 34.1055ZM19.4657 48.7687C19.0936 50.1084 18.4981 51.2994 17.7538 52.1925C17.0839 53.0113 16.2652 53.5323 15.372 53.9045C15.5953 47.1311 17.5305 41.1021 18.2748 39.0925C19.9123 41.9209 20.3589 45.5681 19.4657 48.7687ZM17.1584 39.6879C16.3396 42.2186 14.7765 47.3544 14.4788 53.2346C13.7345 51.6715 13.5112 50.034 13.5112 48.7687C13.5856 45.4192 14.9254 42.1442 17.1584 39.6879ZM25.6436 51.5971C27.5789 53.4579 31.7471 57.2539 36.5107 60.3057C30.705 59.1147 27.2811 56.3607 25.6436 51.5971ZM37.8505 60.2312C32.5658 56.9562 27.8022 52.5647 25.9414 50.7783C31.0772 51.5227 36.1386 53.3834 37.8505 60.2312ZM53.4813 57.8494C53.4813 58.5937 52.8114 59.1892 52.0671 59.1892C51.3228 59.1892 50.7273 58.5193 50.7273 57.775C50.7273 57.0306 51.3972 56.4352 52.1415 56.4352C52.8858 56.4352 53.4813 57.1051 53.4813 57.8494ZM58.0961 50.4806H58.1705C58.3938 50.4806 58.6171 50.6295 58.8404 50.7783C59.0637 51.0016 59.1381 51.2249 59.1381 51.5227C59.1381 51.8204 58.9893 52.0437 58.8404 52.267C58.6171 52.4903 58.3938 52.5647 58.0961 52.5647C57.7984 52.5647 57.5751 52.4158 57.3518 52.267C57.1285 52.0437 57.054 51.8204 57.054 51.5227C57.054 51.2249 57.2029 51.0016 57.3518 50.7783C57.5751 50.555 57.7984 50.4806 58.0961 50.4806ZM54.5978 40.8044C53.4813 31.0538 54.8211 24.1316 55.491 21.6009C57.6495 27.2577 57.9472 35.3708 54.5978 40.8044ZM54.5978 21.8242C53.9279 24.727 52.737 31.2026 53.7046 40.2089C52.2904 37.5294 51.4716 33.8078 51.6205 30.3839C51.8438 27.1089 52.8858 24.0571 54.5978 21.8242ZM94.1957 28.2998H94.2702C94.8656 28.3742 95.3122 28.8952 95.3122 29.4907C95.3122 30.0862 94.7912 30.6072 94.1213 30.6072C93.8236 30.6072 93.5258 30.4583 93.3025 30.235C93.0792 30.0117 93.0048 29.714 93.0048 29.4163C93.0793 28.8208 93.6003 28.2998 94.1957 28.2998ZM94.7168 37.455C95.2378 38.2737 95.6099 39.4646 95.2378 40.1345C95.0889 40.4322 94.7912 40.5811 94.419 40.5811C93.898 40.5811 93.2281 40.1345 93.0792 39.6879C93.0048 39.4646 92.7815 39.3902 92.5582 39.4646C92.3349 39.5391 92.2605 39.7624 92.2605 39.9112C92.4094 40.3578 92.4838 41.6232 91.9628 42.3675C91.665 42.8141 91.3673 42.9629 90.9951 43.0374C90.5485 43.0374 90.1764 42.8885 89.9531 42.5908C89.8042 42.3675 89.7298 42.1442 89.8042 41.8465C89.8787 41.6232 89.7298 41.3999 89.5809 41.3254C89.3576 41.251 89.1343 41.3999 89.0599 41.5487C88.8366 42.1442 88.3156 42.8885 87.6457 42.7396C87.2735 42.6652 87.0502 42.4419 86.9014 42.1442C86.6781 41.5487 86.9758 40.5067 87.4968 39.7623C88.7622 37.7527 89.2832 35.5197 89.4321 34.1055C89.9531 35.0731 90.102 36.4873 89.6554 39.0925C89.6554 39.3158 89.8042 39.5391 89.9531 39.5391C90.1764 39.5391 90.3253 39.3902 90.3997 39.2413C90.6974 37.2317 90.7719 35.743 90.3997 34.6265C90.7719 35.1476 91.144 35.8919 91.3673 36.8595C91.3673 37.0084 91.5162 37.1572 91.7395 37.1572C91.8139 37.1572 91.8139 37.1572 91.8883 37.1572C92.1116 37.0828 92.2605 36.9339 92.1861 36.7106C91.8883 35.4453 91.3673 34.4777 90.8463 33.8822C92.7071 34.8498 94.1957 36.7106 94.7168 37.455ZM78.1184 3.06726C78.4161 2.4718 78.8627 2.09964 79.3093 1.95077C79.8303 1.80191 80.5002 1.95077 81.0212 2.32294C81.5423 2.6951 81.9888 3.21612 82.4354 3.81158C82.5099 3.96044 82.6587 3.96044 82.8076 3.96044C82.9565 3.96044 83.1053 3.81157 83.1053 3.66271C83.4775 1.95077 85.3383 0.685419 87.1247 0.908716C88.8366 1.13201 90.3252 2.91839 90.2508 4.63033C90.2508 4.77919 90.3252 4.92806 90.4741 5.00249C90.623 5.07692 90.7718 5.07692 90.8463 5.00249C91.7395 4.48146 92.7071 3.96044 93.6747 3.73714C94.4935 3.58828 95.6844 3.66271 96.3543 4.3326C97.9918 5.97011 97.4708 7.83092 96.7264 9.76616C94.8656 14.6043 88.5389 19.7401 83.9241 23.0895C88.0923 18.4003 89.0599 14.0832 89.1343 13.8599C89.2088 13.6366 89.0599 13.4133 88.8366 13.4133C88.6133 13.3389 88.39 13.4878 88.39 13.7111C88.39 13.7855 86.9758 19.6656 80.9468 25.0248C84.0729 19.3679 83.0309 11.627 82.9565 11.2548C82.9565 11.0315 82.7332 10.8826 82.5099 10.8826C82.2866 10.8826 82.1377 11.1059 82.1377 11.3292C82.1377 11.4037 83.1053 18.698 80.4258 24.1316C80.5002 23.8338 80.5746 23.5361 80.5746 23.3128C81.0212 20.3355 80.4258 17.5815 79.6814 15.0508C79.5326 14.4554 79.3093 13.8599 79.1604 13.2645C78.3417 10.5849 77.5229 7.75648 77.6718 4.85363C77.8206 4.40703 77.8206 3.66272 78.1184 3.06726ZM73.8013 17.2838L73.4291 16.9861C72.0149 15.944 70.6007 14.8276 69.4842 13.4878C68.591 12.4457 68.1444 11.4037 67.9956 10.436C67.8467 9.24513 68.2189 8.12865 68.9632 7.45876C69.7819 6.78887 71.1217 6.78887 71.7172 7.53319C71.8661 7.68206 72.0893 7.68205 72.2382 7.60762C72.3871 7.45875 72.4615 7.30989 72.3871 7.08659C71.7916 5.82125 72.2382 4.18373 73.4291 3.51384C74.62 2.76952 76.2575 3.14169 77.0763 4.18374C77.0763 4.40704 77.0019 4.63033 77.0019 4.85363C76.853 7.90535 77.6718 10.7338 78.5649 13.5622C78.7138 14.1577 78.9371 14.7531 79.086 15.3486C79.7559 17.8048 80.3513 20.4844 79.9047 23.3128C79.9047 23.3873 79.9047 23.5361 79.8303 23.685C79.7559 17.2838 74.9178 13.6366 74.8433 13.6366C74.6945 13.4878 74.3968 13.5622 74.3223 13.7111C74.1735 13.8599 74.2479 14.1577 74.3968 14.2321C74.6201 14.381 78.8627 17.5815 79.086 23.3128C78.8627 22.7174 78.5649 22.1219 78.1928 21.5264C76.9274 19.8145 75.2899 18.4747 73.8013 17.2838ZM69.4842 45.6425C64.1251 44.6004 62.562 41.6232 62.1154 40.1345C64.0507 41.3254 69.5586 44.1539 76.4064 44.8982C77.5229 45.047 78.7138 45.047 79.9047 45.047C78.7138 45.7914 75.6621 46.8334 69.4842 45.6425ZM80.2025 44.1539C71.8661 44.3772 64.9438 40.73 62.6364 39.3902C68.07 38.4226 75.8854 40.5067 80.2025 44.1539ZM103.425 21.6009C101.565 22.8662 99.1827 23.6106 95.9821 23.9083C94.8656 23.9827 93.6747 24.0571 92.5582 24.0571C90.9951 24.1316 89.4321 24.1316 87.869 24.3549C86.0082 24.5782 83.9241 24.9503 81.9144 25.5458C82.0633 25.4714 82.2121 25.3225 82.361 25.2481C88.6133 21.6753 95.3122 21.8242 95.3122 21.8242C95.5355 21.8242 95.6844 21.6753 95.6844 21.452C95.6844 21.2287 95.5355 21.0799 95.3122 21.0799C95.0889 21.0799 90.7718 21.0054 85.7849 22.8662C90.2508 19.4423 95.7588 14.6787 97.5452 10.1383C97.6196 9.91502 97.6941 9.69172 97.8429 9.46842C98.2895 8.57524 99.0338 7.97978 99.8526 7.83092C100.522 7.75648 101.192 7.97978 101.639 8.42638C102.086 8.87297 102.309 9.54286 102.234 10.2872C102.16 10.9571 101.862 11.5525 101.416 11.9247C101.341 11.9247 101.341 11.9991 101.267 11.9991C101.118 12.148 101.044 12.3713 101.192 12.5202C101.341 12.669 101.565 12.7434 101.713 12.5946C101.788 12.5946 101.788 12.5201 101.862 12.4457C102.904 11.7014 104.393 11.7758 105.361 12.5202C106.03 13.0412 106.551 13.9344 106.7 15.0508C106.998 17.4327 105.733 20.0378 103.425 21.6009Z" fill="#272525"/>
</svg>
