<svg width="28" height="28" viewBox="0 0 28 28" fill="none" xmlns="http://www.w3.org/2000/svg">
<path d="M27.5335 8.39995C27.7916 8.39995 28.0001 8.19137 28.0001 7.9333C28.0001 7.67523 27.7916 7.46665 27.5335 7.46665H25.2001V6.99995H27.5335C27.7916 6.99995 28.0001 6.79137 28.0001 6.5333C28.0001 6.27523 27.7916 6.06665 27.5335 6.06665H25.2001V5.59995H27.0668C27.3249 5.59995 27.5334 5.39137 27.5334 5.1333C27.5334 4.87523 27.3249 4.66665 27.0668 4.66665H25.2001V4.19995H26.6001C26.8582 4.19995 27.0668 3.99137 27.0668 3.7333C27.0668 3.47523 26.8582 3.26665 26.6001 3.26665H25.2001V2.79995H26.1335C26.3916 2.79995 26.6001 2.59137 26.6001 2.3333C26.6001 2.07523 26.3916 1.86665 26.1335 1.86665H25.2001V1.39995H25.6668C25.9249 1.39995 26.1334 1.19137 26.1334 0.933297C26.1334 0.675227 25.9249 0.466648 25.6668 0.466648H25.2001C25.2001 0.208578 24.9916 0 24.7335 0C24.4754 0 24.2669 0.208578 24.2669 0.466648H23.8001C23.5421 0.466648 23.3335 0.675227 23.3335 0.933297C23.3335 1.19137 23.5421 1.39995 23.8001 1.39995H24.2668V1.86659H23.3334C23.0754 1.86659 22.8668 2.07517 22.8668 2.33324C22.8668 2.59131 23.0754 2.79989 23.3334 2.79989H24.2668V3.26654H22.8668C22.6087 3.26654 22.4001 3.47512 22.4001 3.73319C22.4001 3.99126 22.6087 4.19984 22.8668 4.19984H24.2668V4.66648H22.4001C22.1421 4.66648 21.9335 4.87506 21.9335 5.13313C21.9335 5.3912 22.1421 5.59978 22.4001 5.59978H24.2668V6.06643H21.9334C21.6754 6.06643 21.4668 6.27501 21.4668 6.53308C21.4668 6.79115 21.6754 6.99973 21.9334 6.99973H24.2668V7.46637H21.9334C21.6754 7.46637 21.4668 7.67495 21.4668 7.93302C21.4668 8.19109 21.6754 8.39967 21.9334 8.39967H24.2668V8.86632H21.9334C21.6754 8.86632 21.4668 9.0749 21.4668 9.33297C21.4668 9.59104 21.6754 9.79962 21.9334 9.79962H24.2668V10.2663H21.9334C21.6754 10.2663 21.4668 10.4748 21.4668 10.7329C21.4668 10.991 21.6754 11.1996 21.9334 11.1996H24.2668V11.6662H22.4001C22.1421 11.6662 21.9335 11.8748 21.9335 12.1329C21.9335 12.3909 22.1421 12.5995 22.4001 12.5995H24.2668V13.0662H22.8668C22.6087 13.0662 22.4001 13.2747 22.4001 13.5328C22.4001 13.7909 22.6087 13.9995 22.8668 13.9995H24.2668V14.4661H23.3334C23.0754 14.4661 22.8668 14.6747 22.8668 14.9327C22.8668 15.1908 23.0754 15.3994 23.3334 15.3994H24.2668V17.266H23.7021C22.9844 17.266 22.4001 17.8503 22.4001 18.568V19.5999H21.4668V27.9999H28.0001V19.5999H27.0668V18.5686C27.0668 17.8509 26.4825 17.2666 25.7648 17.2666H25.2001V15.3999H26.1335C26.3916 15.3999 26.6001 15.1914 26.6001 14.9333C26.6001 14.6752 26.3916 14.4666 26.1335 14.4666H25.2001V13.9999H26.6001C26.8582 13.9999 27.0668 13.7914 27.0668 13.5333C27.0668 13.2752 26.8582 13.0666 26.6001 13.0666H25.2001V12.5999H27.0668C27.3249 12.5999 27.5334 12.3914 27.5334 12.1333C27.5334 11.8752 27.3249 11.6666 27.0668 11.6666H25.2001V11.1999H27.5335C27.7916 11.1999 28.0001 10.9914 28.0001 10.7333C28.0001 10.4752 27.7916 10.2666 27.5335 10.2666H25.2001V9.79994H27.5335C27.7916 9.79994 28.0001 9.59137 28.0001 9.3333C28.0001 9.07523 27.7916 8.86665 27.5335 8.86665H25.2001V8.39995H27.5335ZM25.7648 18.1999C25.9683 18.1999 26.1334 18.3652 26.1334 18.5686V19.5999H23.3334V18.5686C23.3334 18.3651 23.4987 18.1999 23.7021 18.1999H25.7648Z" fill="black"/>
<path d="M17.7338 7.2432C17.8416 6.71913 17.7613 6.25199 17.4491 5.93978C17.0879 5.57857 16.5237 5.50299 15.8601 5.72278C15.3062 5.90806 14.7201 6.28978 14.2109 6.79936C13.2939 7.71636 12.8786 8.76636 13.0671 9.506V15.4H12.1338V17.7334H18.6671V15.4H17.7338V7.2432ZM16.8004 15.4001H14.0004V10.3591C14.0732 10.3708 14.1498 10.3759 14.2286 10.3764C14.2333 10.3768 14.238 10.3778 14.2431 10.3778C14.2571 10.3778 14.2735 10.3741 14.2879 10.3736C14.3664 10.3718 14.4471 10.3643 14.5301 10.3517C14.5609 10.347 14.5913 10.3419 14.623 10.3358C14.7261 10.3153 14.8316 10.2901 14.9408 10.2537C15.4947 10.0693 16.0804 9.68762 16.59 9.17804C16.6628 9.10476 16.7328 9.03011 16.8005 8.95404L16.8004 15.4001ZM16.8238 7.07006C16.821 7.07848 16.8154 7.08499 16.8131 7.09341C16.7874 7.20027 16.7482 7.31183 16.6996 7.42427C16.6936 7.43778 16.6875 7.45134 16.6814 7.46534C16.6371 7.56241 16.5839 7.66134 16.5246 7.76027C16.5116 7.7822 16.5004 7.80369 16.4864 7.82562C16.4229 7.92597 16.3515 8.02534 16.2745 8.12427C16.261 8.14155 16.2507 8.15834 16.2367 8.17562C16.1429 8.29227 16.0407 8.40711 15.9301 8.51813C15.5269 8.92085 15.0589 9.23071 14.6454 9.36885C14.2903 9.48643 14.0821 9.44727 14.0117 9.37727C13.9977 9.36278 13.9902 9.33762 13.9804 9.31613C13.9781 9.30957 13.9762 9.3082 13.9734 9.30027C13.9711 9.29278 13.965 9.28769 13.9618 9.2802C13.8801 8.98013 14.113 8.21713 14.8708 7.45927C15.5344 6.79569 16.2036 6.53385 16.5606 6.53385C16.6675 6.53385 16.7464 6.5572 16.7893 6.59964C16.8597 6.67057 16.8765 6.84043 16.8238 7.07006Z" fill="black"/>
<path d="M8.86665 1.40009C9.12472 1.40009 9.3333 1.19152 9.3333 0.933445C9.3333 0.675375 9.12472 0.466797 8.86665 0.466797H4.2H3.73335H2.25772C1.01265 0.466742 0 1.47945 0 2.72452V24.809C0 26.0541 1.01265 27.0667 2.25772 27.0667H3.7333H4.2H8.86665C9.12472 27.0667 9.3333 26.8582 9.3333 26.6001C9.3333 26.342 9.12472 26.1334 8.86665 26.1334H4.2V24.7334H8.86665C9.12472 24.7334 9.3333 24.5249 9.3333 24.2668C9.3333 24.0087 9.12472 23.8001 8.86665 23.8001H4.2V22.4002H8.86665C9.12472 22.4002 9.3333 22.1916 9.3333 21.9335C9.3333 21.6754 9.12472 21.4669 8.86665 21.4669H4.2V20.0669H8.86665C9.12472 20.0669 9.3333 19.8583 9.3333 19.6002C9.3333 19.3421 9.12472 19.1336 8.86665 19.1336H4.2V17.7336H8.86665C9.12472 17.7336 9.3333 17.525 9.3333 17.2669C9.3333 17.0088 9.12472 16.8003 8.86665 16.8003H4.2V15.4003H8.86665C9.12472 15.4003 9.3333 15.1917 9.3333 14.9336C9.3333 14.6755 9.12472 14.467 8.86665 14.467H4.2V13.067H8.86665C9.12472 13.067 9.3333 12.8584 9.3333 12.6003C9.3333 12.3422 9.12472 12.1337 8.86665 12.1337H4.2V10.7337H8.86665C9.12472 10.7337 9.3333 10.5251 9.3333 10.267C9.3333 10.0089 9.12472 9.80037 8.86665 9.80037H4.2V8.40037H8.86665C9.12472 8.40037 9.3333 8.19179 9.3333 7.93372C9.3333 7.67565 9.12472 7.46707 8.86665 7.46707H4.2V6.06707H8.86665C9.12472 6.06707 9.3333 5.85849 9.3333 5.60042C9.3333 5.34235 9.12472 5.13377 8.86665 5.13377H4.2V3.73377H8.86665C9.12472 3.73377 9.3333 3.5252 9.3333 3.26713C9.3333 3.00905 9.12472 2.80048 8.86665 2.80048H4.2V1.40009H8.86665Z" fill="black"/>
<path d="M18.6671 18.666H12.1338V27.9994H18.6671V18.666Z" fill="black"/>
</svg>
