<svg width="28" height="23" viewBox="0 0 28 23" fill="none" xmlns="http://www.w3.org/2000/svg">
<path d="M8.31453 4.42229L8.31442 4.42246C8.24125 4.52527 8.14332 4.60793 8.0305 4.66446C7.91774 4.72097 7.79279 4.75008 7.66658 4.75M8.31453 4.42229L3.40007 4.5C2.97572 4.5 2.56875 4.65803 2.26869 4.93934C1.96864 5.22064 1.80007 5.60218 1.80007 6V20C1.80007 20.3978 1.96864 20.7794 2.26869 21.0607C2.56875 21.342 2.97572 21.5 3.40007 21.5H24.7334C25.1577 21.5 25.5647 21.342 25.8648 21.0607C26.1648 20.7794 26.3334 20.3978 26.3334 20V6C26.3334 5.60218 26.1648 5.22064 25.8648 4.93934C25.5647 4.65803 25.1577 4.5 24.7334 4.5H20.4667M8.31453 4.42229L10.2131 1.75H17.9178L19.819 4.42242L19.819 4.42246C19.8922 4.52527 19.9902 4.60793 20.103 4.66446C20.2157 4.72097 20.3407 4.75008 20.4669 4.75M8.31453 4.42229L20.4667 4.5M7.66658 4.75L7.66673 4.5V4.75H7.66658ZM7.66658 4.75H3.40007C3.037 4.75 2.6918 4.88536 2.43968 5.12172C2.18811 5.35757 2.05007 5.67388 2.05007 6V20C2.05007 20.3261 2.18811 20.6424 2.43968 20.8783C2.6918 21.1146 3.037 21.25 3.40007 21.25H24.7334C25.0965 21.25 25.4417 21.1146 25.6938 20.8783C25.9454 20.6424 26.0834 20.3261 26.0834 20V6C26.0834 5.67388 25.9454 5.35757 25.6938 5.12172C25.4417 4.88536 25.0965 4.75 24.7334 4.75H20.4669M20.4669 4.75L20.4667 4.5M20.4669 4.75H20.4667V4.5M18.9798 0.577641L18.9798 0.577542C18.9068 0.474992 18.8091 0.392492 18.6967 0.335967C18.5843 0.279469 18.4597 0.250219 18.3338 0.25H18.3334L9.80007 0.25L9.79963 0.25C9.67374 0.250219 9.54917 0.279468 9.43677 0.335967C9.32431 0.392494 9.22669 0.474996 9.15371 0.577544L7.25116 3.25H3.40007C2.63154 3.25 1.8915 3.53607 1.34346 4.04985C0.79488 4.56414 0.483398 5.26526 0.483398 6V20C0.483398 20.7347 0.79488 21.4359 1.34346 21.9502C1.8915 22.4639 2.63154 22.75 3.40007 22.75H24.7334C25.5019 22.75 26.242 22.4639 26.79 21.9502C27.3386 21.4359 27.6501 20.7347 27.6501 20V6C27.6501 5.26526 27.3386 4.56414 26.79 4.04985C26.242 3.53607 25.5019 3.25 24.7334 3.25H20.8797L18.9798 0.577641ZM14.0667 7.25C12.9659 7.25 11.8886 7.55596 10.971 8.13079C10.0532 8.7057 9.33532 9.5245 8.9107 10.4855C8.48598 11.4468 8.37455 12.5057 8.59132 13.5273C8.80806 14.5489 9.34258 15.4849 10.1245 16.2179C10.9063 16.9508 11.9004 17.4483 12.9804 17.6497C14.0604 17.8511 15.18 17.7478 16.1982 17.3524C17.2165 16.957 18.0894 16.2864 18.7048 15.4229C19.3204 14.5593 19.6501 13.5421 19.6501 12.5C19.6501 11.1022 19.0576 9.76522 18.009 8.78208C16.9608 7.79946 15.5425 7.25 14.0667 7.25ZM14.0667 16.25C13.2689 16.25 12.4901 16.0281 11.829 15.614C11.1681 15.2 10.6555 14.6132 10.3535 13.9297C10.0516 13.2465 9.97296 12.4957 10.1266 11.7715C10.2803 11.0472 10.6601 10.3796 11.2207 9.85396C11.7816 9.32818 12.498 8.96849 13.2802 8.82262C14.0624 8.67675 14.8731 8.75174 15.609 9.03753C16.3449 9.32328 16.9713 9.8062 17.4108 10.4228C17.8501 11.0392 18.0834 11.7621 18.0834 12.5C18.0834 13.4892 17.6644 14.4414 16.9127 15.146C16.1605 15.8512 15.137 16.25 14.0667 16.25Z" fill="black" stroke="black" stroke-width="0.5"/>
</svg>
