<svg width="28" height="28" viewBox="0 0 28 28" fill="none" xmlns="http://www.w3.org/2000/svg">
<path d="M26.867 0.987518C26.7217 0.862793 26.5512 0.770842 26.3671 0.717923C26.183 0.665005 25.9897 0.652361 25.8003 0.680852L8.46699 3.34752C8.15134 3.39541 7.86335 3.55497 7.65537 3.7972C7.4474 4.03943 7.33324 4.34825 7.33366 4.66752V18.4675C6.71068 18.1632 6.02698 18.0037 5.33366 18.0009C4.41068 18.0009 3.50843 18.2745 2.741 18.7873C1.97357 19.3001 1.37543 20.0289 1.02222 20.8817C0.669014 21.7344 0.576599 22.6727 0.756663 23.5779C0.936727 24.4832 1.38118 25.3147 2.03383 25.9674C2.68647 26.62 3.518 27.0645 4.42324 27.2445C5.32848 27.4246 6.2668 27.3322 7.11952 26.979C7.97224 26.6257 8.70107 26.0276 9.21385 25.2602C9.72663 24.4928 10.0003 23.5905 10.0003 22.6675V12.4809L24.667 10.2275V15.8009C24.044 15.4966 23.3603 15.337 22.667 15.3342C21.744 15.3342 20.8418 15.6079 20.0743 16.1207C19.3069 16.6334 18.7088 17.3623 18.3556 18.215C18.0023 19.0677 17.9099 20.006 18.09 20.9113C18.2701 21.8165 18.7145 22.648 19.3672 23.3007C20.0198 23.9533 20.8513 24.3978 21.7566 24.5778C22.6618 24.7579 23.6001 24.6655 24.4529 24.3123C25.3056 23.9591 26.0344 23.3609 26.5472 22.5935C27.06 21.8261 27.3337 20.9238 27.3337 20.0009V2.00085C27.3337 1.80826 27.292 1.61796 27.2114 1.44303C27.1308 1.2681 27.0133 1.1127 26.867 0.987518ZM5.33366 24.6675C4.9381 24.6675 4.55142 24.5502 4.22252 24.3305C3.89362 24.1107 3.63728 23.7983 3.4859 23.4329C3.33453 23.0674 3.29492 22.6653 3.37209 22.2773C3.44926 21.8894 3.63974 21.533 3.91945 21.2533C4.19915 20.9736 4.55552 20.7831 4.94348 20.7059C5.33144 20.6288 5.73358 20.6684 6.09903 20.8198C6.46448 20.9711 6.77684 21.2275 6.9966 21.5564C7.21636 21.8853 7.33366 22.272 7.33366 22.6675C7.33366 23.198 7.12295 23.7067 6.74787 24.0817C6.3728 24.4568 5.86409 24.6675 5.33366 24.6675ZM22.667 22.0009C22.2714 22.0009 21.8848 21.8836 21.5559 21.6638C21.227 21.444 20.9706 21.1317 20.8192 20.7662C20.6679 20.4008 20.6283 19.9986 20.7054 19.6107C20.7826 19.2227 20.9731 18.8663 21.2528 18.5866C21.5325 18.3069 21.8889 18.1165 22.2768 18.0393C22.6648 17.9621 23.0669 18.0017 23.4324 18.1531C23.7978 18.3045 24.1102 18.5608 24.3299 18.8897C24.5497 19.2186 24.667 19.6053 24.667 20.0009C24.667 20.5313 24.4563 21.04 24.0812 21.4151C23.7061 21.7901 23.1974 22.0009 22.667 22.0009ZM24.667 7.52085L10.0003 9.77418V5.77418L24.667 3.56085V7.52085Z" fill="black"/>
</svg>
