<svg width="30" height="28" viewBox="0 0 30 28" fill="none" xmlns="http://www.w3.org/2000/svg">
<path d="M21.4287 1.21484H8.57157C7.3881 1.21484 6.42871 2.17423 6.42871 3.3577V14.072C6.42871 15.2555 7.3881 16.2148 8.57157 16.2148H21.4287C22.6122 16.2148 23.5716 15.2555 23.5716 14.072V3.3577C23.5716 2.17423 22.6122 1.21484 21.4287 1.21484Z" stroke="black" stroke-width="2" stroke-linecap="round" stroke-linejoin="round"/>
<path d="M6.42843 7.64258H3.21415C2.64583 7.64258 2.10078 7.86834 1.69892 8.27021C1.29705 8.67207 1.07129 9.21711 1.07129 9.78544V19.4283C1.07129 19.9966 1.29705 20.5417 1.69892 20.9435C2.10078 21.3454 2.64583 21.5712 3.21415 21.5712H26.7856C27.3539 21.5712 27.8989 21.3454 28.3008 20.9435C28.7027 20.5417 28.9284 19.9966 28.9284 19.4283V9.78544C28.9284 9.21711 28.7027 8.67207 28.3008 8.27021C27.8989 7.86834 27.3539 7.64258 26.7856 7.64258H23.5713M8.57129 21.5712L7.49986 26.9283M21.4284 21.5712L22.4999 26.9283" stroke="black" stroke-width="2" stroke-linecap="round" stroke-linejoin="round"/>
</svg>
