<svg width="296" height="313" viewBox="0 0 296 313" fill="none" xmlns="http://www.w3.org/2000/svg">
<path d="M67.7946 234.369C70.9471 234.946 74.1801 234.141 77.2008 232.958C80.7125 231.551 84.012 229.766 87.2366 227.817C90.5117 225.806 93.7626 223.568 96.7001 221.078C100.28 218.175 103.523 214.794 106.715 211.475C106.89 211.513 107.066 211.552 107.23 211.477C112.605 209.297 118.643 211.167 123.649 213.548C128.718 215.98 133.57 219.064 139.121 220.128C143.856 221.05 148.722 220.528 152.579 217.538C156.284 214.736 158.563 210.371 160.952 206.509C163.241 202.772 165.78 199.237 169.546 197.001C170.359 198.173 171.222 199.282 172.034 200.454C173.973 203.05 175.911 205.646 177.85 208.243C181.703 213.209 185.719 218.1 189.899 222.916C200.938 235.638 212.883 247.748 225.586 258.917C222.575 257.524 219.537 256.419 216.31 255.678C210.094 254.285 203.609 254.123 197.384 255.307C190.253 256.588 183.919 259.958 177.659 263.492C171.388 266.912 164.965 270.521 157.797 271.462C154.465 271.877 151.01 271.676 147.809 270.646C144.545 269.566 141.762 267.633 139.597 265.061C139.272 264.695 138.629 265.108 138.904 265.536C138.678 265.56 138.526 265.748 138.613 266.025C138.625 266.138 138.688 266.189 138.7 266.302C138.549 266.49 138.522 266.779 138.723 267.044C139.297 268.126 139.82 269.272 140.457 270.406C145.238 279.221 151.115 287.575 158.391 294.577C165.217 301.113 173.291 306.484 182.278 309.697C190.851 312.782 199.972 313.52 208.926 312.158C217.88 310.796 226.501 307.409 234.248 302.8C238.555 300.277 242.588 297.325 246.483 294.16C250.378 290.994 254.136 287.615 257.405 283.944C260.426 285.966 263.448 287.988 266.52 289.948C271.31 292.982 276.201 295.891 281.294 298.549C286.261 301.106 291.203 303.952 296.538 305.668C297.366 305.922 297.71 304.855 297.146 304.401C292.006 300.775 286.361 297.775 281.032 294.513C275.828 291.352 270.561 288.14 265.395 284.803C266.041 283.36 266.437 281.715 266.845 280.184C267.341 278.413 267.826 276.53 268.323 274.76C269.191 271.118 269.946 267.488 270.349 263.782C270.986 257.991 270.744 252.007 269.168 246.396C267.518 240.621 264.357 235.695 260.225 231.332C256.031 226.917 251.055 223.217 246.445 219.19C244.177 217.259 241.948 215.152 239.932 212.907C238.368 211.13 236.955 209.164 235.706 207.123C235.693 207.01 235.693 207.01 235.681 206.897C235.229 206.945 234.889 206.982 234.499 207.081C234.523 207.307 234.485 207.483 234.509 207.709C234.241 208.94 234.086 210.159 233.93 211.377C233.622 213.299 233.363 215.158 233.117 217.13C232.601 220.849 232.034 224.63 231.518 228.348C230.693 233.988 229.704 239.703 230.148 245.436C230.338 248.277 230.856 250.968 231.827 253.611C232.798 256.254 234.209 258.735 235.822 260.966C236.972 262.616 238.274 264.079 239.689 265.53C239.436 265.843 239.547 266.346 239.962 266.473C240.2 266.562 240.552 266.639 240.841 266.665C242.055 267.851 243.383 269.025 244.699 270.085C233.318 261.635 222.38 252.508 212.274 242.605C204.221 234.77 196.585 226.548 189.364 217.937C185.823 213.739 182.32 209.365 178.993 205.029C177.267 202.811 175.528 200.479 173.903 198.136C173.165 197.128 172.415 196.006 171.677 194.998C171.853 195.036 171.979 195.137 172.154 195.176C183.19 198.283 194.768 194.178 204.44 188.847C204.553 188.835 204.667 188.823 204.768 188.697C204.818 188.635 204.818 188.635 204.869 188.572C205.032 188.497 205.083 188.435 205.246 188.36C211.128 185.038 216.785 181.226 222.742 178.068C225.714 176.433 228.761 174.961 231.957 173.816C235.103 172.734 238.324 171.816 241.569 171.124C247.997 169.69 254.574 168.583 260.753 166.431C266.604 164.429 272.322 161.183 276.399 156.51C280.223 152.15 282.897 146.14 281.637 140.266C281.032 137.297 279.281 134.853 276.699 133.184C273.877 131.427 270.525 130.585 267.336 129.668C255.37 126.432 242.566 125.518 230.281 127.295C230.22 126.729 230.222 126.214 230.048 125.66C228.856 118.291 225.449 111.617 223.037 104.608C220.936 98.3663 219.542 91.2476 221.828 84.8211C222.92 81.6705 225.28 79.1278 226.196 75.9389C227.113 72.7499 225.754 69.6908 223.147 67.796C222.646 67.392 222.106 67.1638 221.555 66.8224C222.274 66.0584 223.043 65.2317 223.763 64.4677C229.847 57.1754 232.773 47.6469 233.248 38.2099C233.733 29.4014 232.108 20.1326 227.674 12.4246C225.552 8.64632 222.673 5.2926 219.239 2.62808C217.622 1.42814 215.842 0.303021 213.819 0.119621C211.457 -0.0273031 209.729 1.4745 208.303 3.1157C201.02 11.5096 193.738 19.9035 186.58 28.3984C183.273 32.2447 180.092 36.192 177.286 40.4423C174.733 44.3793 172.379 48.581 171.144 53.0633C170.507 51.9299 169.82 50.859 169.132 49.7882C165.482 44.5715 160.772 40.1553 155.507 36.4283C152.662 34.4447 149.664 32.649 146.566 30.9786C143.656 29.4597 140.707 28.1166 137.72 26.9493C137.658 26.8988 137.595 26.8483 137.482 26.8605C137.306 26.8221 137.181 26.7211 137.005 26.6828C136.767 26.5939 136.514 26.9072 136.651 27.1213C135.482 27.4187 134.374 27.7665 133.291 28.3407C127.638 31.1226 123.96 36.8402 121.049 42.2463C120.239 43.7641 119.48 45.2192 118.67 46.737C118.67 46.737 118.67 46.737 118.607 46.6865C112.296 43.8732 105.794 41.4236 98.8467 40.6816C93.4067 40.1212 87.6478 40.8541 82.7744 43.4378C76.919 46.4703 73.4548 52.0504 71.0071 58.0365C68.8381 63.4203 66.8693 69.0687 65.8805 74.7836C65.0835 79.6194 65.0524 84.6592 66.6944 89.2903C62.6302 87.1513 58.6669 84.887 54.7925 82.3843C51.5952 80.3239 48.6121 78.1261 45.5663 75.8777C42.5205 73.6294 39.4747 71.381 36.1259 69.5086C33.0782 67.7756 29.7153 66.3053 26.1223 65.8899C23.1073 65.5269 19.7489 66.2309 18.0542 69.1028C16.309 72.0374 16.7606 75.7089 17.3898 78.9036C18.0555 82.4377 18.897 86.0102 19.9021 89.5078C21.9246 96.6163 24.6139 103.539 27.681 110.249C28.6656 112.49 29.7513 114.605 30.8491 116.834C30.8612 116.947 30.8734 117.06 30.9987 117.161C31.211 117.539 31.4232 117.917 31.5223 118.307C30.6676 118.341 29.926 118.364 29.1339 118.449C21.3016 119.061 13.6011 121.433 6.74974 125.317C3.51296 127.152 -0.192389 129.954 0.319889 134.191C0.538625 136.228 2.01615 137.729 3.38052 139.242C4.99551 140.958 6.61051 142.673 8.2255 144.388C14.6228 151.198 21.0322 158.122 27.6942 164.732C33.9681 170.926 40.834 176.77 48.8129 180.721C55.2739 183.862 62.5431 186 69.7469 185.398C63.7305 191.195 59.5049 198.746 58.531 207.263C58.4926 207.439 58.5675 207.603 58.7554 207.754C58.6404 208.282 58.4748 208.872 58.3597 209.399C56.9024 216.08 55.9323 223.567 60.1207 229.527C61.8974 231.683 64.5795 233.742 67.7946 234.369ZM237.52 257.063C238.876 257.433 240.295 257.853 241.651 258.222C243.12 258.58 244.476 258.949 245.996 259.244C246.699 259.397 247.515 259.538 248.219 259.692C248.457 259.781 248.746 259.807 248.985 259.896C250.232 262.452 251.479 265.007 252.84 267.551C252.137 267.398 251.433 267.244 250.73 267.091C249.562 266.873 248.394 266.655 247.176 266.5C246.008 266.282 244.839 266.064 243.621 265.909C243.043 265.856 242.453 265.691 241.863 265.525C239.696 263.468 237.669 261.111 236.082 258.591C235.607 257.898 235.12 257.092 234.746 256.274C234.984 256.363 235.273 256.389 235.511 256.478C236.039 256.593 236.754 256.859 237.52 257.063ZM233.468 237.982C234.371 238.4 235.275 238.819 236.279 239.111C237.284 239.404 238.288 239.697 239.28 239.876C239.808 239.991 240.511 240.145 241.077 240.084C242.741 245.457 244.795 250.731 247.064 255.867C247.525 256.962 247.974 257.944 248.485 258.976C248.309 258.938 248.134 258.9 247.958 258.861C247.255 258.708 246.551 258.554 245.848 258.401C244.442 258.094 243.035 257.787 241.679 257.418C240.21 257.061 238.854 256.691 237.435 256.271C236.782 256.055 236.079 255.902 235.364 255.635C234.949 255.508 234.535 255.381 234.121 255.254C233.46 253.894 232.849 252.471 232.402 250.974C231.658 248.307 231.304 245.541 231.351 242.788C231.371 240.84 231.441 238.83 231.637 236.92C231.825 237.071 232.001 237.11 232.189 237.261C232.615 237.502 233.042 237.742 233.468 237.982ZM234.907 212.474C235.03 213.091 235.091 213.656 235.164 214.335C235.617 217.492 236.121 220.585 236.801 223.717C237.875 228.924 239.226 234.045 240.791 239.027C240.327 238.963 239.862 238.898 239.51 238.822C238.518 238.642 237.627 238.337 236.622 238.044C235.669 237.689 234.777 237.384 233.862 236.853C233.435 236.612 233.009 236.372 232.582 236.132C232.281 235.992 232.031 235.79 231.73 235.651C232.056 232.296 232.609 228.918 233.111 225.601C233.614 222.285 234.003 218.981 234.505 215.665C234.622 214.622 234.739 213.58 234.907 212.474ZM250.524 224.132C250.579 226.244 251.137 228.244 251.532 230.319C251.704 231.388 251.926 232.395 252.149 233.401C252.26 233.904 252.371 234.407 252.432 234.973C252.543 235.476 252.541 235.991 252.816 236.42C252.321 237.675 251.764 238.879 251.269 240.134C249.722 243.849 248.226 247.501 246.679 251.215C244.885 246.772 243.205 242.317 241.739 237.724C240.024 232.414 238.649 227.067 237.487 221.583C236.907 218.841 236.377 216.036 235.909 213.282C235.638 211.823 235.48 210.352 235.259 208.831C235.31 208.768 235.247 208.718 235.298 208.655C238.096 213.391 242.292 217.29 246.389 220.799C247.817 221.847 249.196 222.958 250.524 224.132ZM256.149 229.08C256.086 229.029 256.036 229.092 255.985 229.154C255.442 229.957 255.086 230.911 254.731 231.864C254.313 232.768 254.008 233.659 253.59 234.562C253.45 234.864 253.362 235.102 253.222 235.403C253.198 235.177 253.123 235.013 253.099 234.787C252.987 234.284 252.939 233.831 252.828 233.328C252.605 232.322 252.383 231.315 252.223 230.36C251.79 228.46 251.571 226.423 250.974 224.599C252.666 225.962 254.483 227.427 256.149 229.08ZM262.783 236.494C262.544 236.405 262.33 236.543 262.178 236.731C261.534 237.658 261.09 238.851 260.633 239.93C260.114 240.959 259.658 242.038 259.139 243.066C258.101 245.124 257.125 247.232 256.024 249.239C254.936 251.359 253.835 253.365 252.683 255.435C252.102 256.413 251.583 257.442 251.001 258.42C250.811 258.784 250.508 259.16 250.268 259.586C249.071 256.968 247.874 254.349 246.79 251.718C246.966 251.757 247.13 251.682 247.168 251.506C248.602 247.804 250.211 244.14 251.758 240.425C252.532 238.568 253.255 236.773 254.028 234.916C254.384 233.962 254.802 233.059 255.157 232.105C255.513 231.151 256.044 230.235 256.173 229.306L256.161 229.193C257.376 230.379 258.653 231.615 259.817 232.864C260.969 233.999 261.958 235.209 262.783 236.494ZM268.762 261.263C265.152 265.485 261.73 269.859 258.257 274.295C257.083 272.418 255.959 270.479 254.885 268.476C253.537 266.046 252.239 263.552 250.991 260.996C251.496 260.37 251.864 259.529 252.256 258.915C252.838 257.937 253.357 256.908 253.938 255.93C255.039 253.923 256.14 251.916 257.178 249.859C258.216 247.801 259.255 245.744 260.23 243.636C260.749 242.607 261.256 241.465 261.713 240.386C262.169 239.307 262.801 238.266 263.031 237.211C263.082 237.149 263.019 237.098 263.007 236.985C265.257 240.349 266.965 244 267.805 248.088C268.958 252.428 269.143 256.815 268.762 261.263ZM264.132 283.165C262.294 280.443 260.394 277.671 258.72 274.875C262.104 270.677 265.538 266.417 268.734 262.067C268.629 263.223 268.474 264.442 268.306 265.547C267.854 268.8 267.164 271.965 266.361 275.142C265.965 276.787 265.507 278.381 265.048 279.976C264.655 281.106 264.362 282.11 264.132 283.165ZM243.379 266.85C244.66 267.056 245.828 267.274 246.996 267.492C248.164 267.71 249.332 267.928 250.437 268.095C251.367 268.225 252.359 268.404 253.226 268.483C254.512 270.863 255.848 273.18 257.298 275.486C257.096 275.736 257.409 275.989 257.635 275.964C258.535 277.413 259.497 278.912 260.459 280.411C259.269 279.452 258.016 278.442 256.825 277.482C253.955 275.272 250.922 273.137 248.102 270.864C246.473 269.551 244.907 268.289 243.379 266.85ZM185.8 308.918C186.808 308.18 187.741 307.279 188.687 306.49C189.948 305.439 191.095 304.4 192.356 303.349L205.506 292.036C207.65 290.146 209.856 288.307 211.999 286.417C213.828 284.79 215.719 283.213 217.598 281.523C218.717 281.288 219.899 281.104 221.019 280.87C220.538 281.722 220.17 282.563 219.69 283.416C219.019 284.633 218.399 285.787 217.728 287.003C215.387 291.318 212.858 295.482 210.216 299.657C208.889 301.688 207.562 303.719 206.172 305.7C205.477 306.69 204.782 307.681 204.138 308.608C203.595 309.411 202.989 310.163 202.496 310.902C196.801 311.17 191.224 310.396 185.8 308.918ZM175.333 304.719C176 304.533 176.604 304.297 177.221 304.173C178.277 303.888 179.447 303.591 180.504 303.306C182.618 302.735 184.669 302.114 186.833 301.481C190.658 300.327 194.408 299.008 198.095 297.639C197.994 297.765 197.831 297.839 197.73 297.965C195.586 299.855 193.38 301.694 191.236 303.584C190.139 304.56 189.093 305.474 187.933 306.4C187.038 307.125 186.093 307.914 185.323 308.74C183.377 308.205 181.469 307.494 179.549 306.67C178.056 306.087 176.663 305.378 175.333 304.719ZM170.881 302.164C174.095 299.587 177.31 297.01 180.462 294.382L185.403 290.303C186.929 289.052 188.517 287.851 189.917 286.499C195.399 285.853 200.895 284.805 206.328 283.706C209.687 283.002 213.108 282.349 216.529 281.695C214.524 283.284 212.646 284.974 210.654 286.676C206.569 290.205 202.483 293.734 198.398 297.263C194.472 298.543 190.421 299.722 186.432 300.952C184.268 301.585 182.155 302.155 179.991 302.788C178.934 303.074 177.99 303.347 176.934 303.632C176.04 303.842 175.085 304.002 174.254 304.263C173.151 303.58 172.047 302.898 170.881 302.164ZM147.394 277.444C150.527 279.969 154.126 282.044 157.841 283.591C165.258 286.572 173.424 287.469 181.292 287.196C183.743 287.105 186.069 286.912 188.508 286.707C187.286 287.583 186.138 288.622 184.979 289.547C183.29 290.873 181.613 292.313 179.924 293.639C176.608 296.341 173.344 298.981 170.028 301.684C165.163 298.486 160.691 294.674 156.747 290.462C152.553 286.047 148.939 281.17 145.753 276.018C146.266 276.535 146.83 276.99 147.394 277.444ZM162.708 272.423C163.361 272.639 164.127 272.843 164.779 273.059C166.085 273.491 167.441 273.861 168.746 274.293C173.542 275.781 178.249 277.507 182.955 279.234C187.311 280.884 191.565 282.659 195.869 284.372C190.525 285.232 185.156 285.866 179.663 285.883C171.77 285.929 163.794 284.668 156.63 281.374C153.016 279.702 149.568 277.44 146.65 274.777C144.433 272.783 142.694 270.452 141.069 268.108C141.069 268.108 141.069 268.108 141.006 268.057C145.641 272.31 152.801 273.43 158.824 272.497C159.554 272.361 160.283 272.226 161.013 272.09C161.653 272.193 162.181 272.308 162.708 272.423ZM181.732 266.774C182.823 267.344 184.028 267.901 185.119 268.471C189.121 270.559 193.021 272.773 196.883 275.163C198.84 276.326 200.808 277.603 202.664 278.892C203.591 279.536 204.456 280.13 205.384 280.774C206.124 281.267 206.813 281.823 207.49 282.265C206.484 282.488 205.415 282.66 204.295 282.894C201.717 283.4 199.189 283.843 196.661 284.287C194.19 283.121 191.68 282.132 189.22 281.079C184.552 279.177 179.782 277.4 175.025 275.736C172.59 274.91 170.155 274.084 167.72 273.258C166.477 272.877 165.347 272.483 164.104 272.101C163.627 271.924 163.1 271.809 162.623 271.631C168.071 270.13 173.108 267.472 177.969 264.775C177.981 264.888 178.044 264.938 178.169 265.039C178.67 265.443 179.323 265.66 179.925 265.938C180.527 266.217 181.13 266.496 181.732 266.774ZM229.463 277.96C229.713 278.162 229.901 278.313 230.202 278.453C230.089 278.465 229.976 278.477 229.863 278.489C222.784 279.192 215.728 280.636 208.785 282.069C207.896 281.249 206.792 280.566 205.802 279.871C204.749 279.126 203.696 278.38 202.53 277.647C198.706 275.082 194.793 272.755 190.768 270.44C188.761 269.339 186.754 268.238 184.696 267.2C183.668 266.681 182.639 266.162 181.61 265.643C180.707 265.225 179.842 264.631 178.838 264.338C182.137 262.553 185.374 260.717 188.886 259.31C192.007 258.002 195.228 257.084 198.485 256.505C199.164 256.432 199.781 256.309 200.46 256.236C202.477 257.965 204.758 259.494 206.877 261.098C210.862 264.104 214.898 267.047 218.884 270.053C220.877 271.556 222.87 273.059 224.8 274.511C225.79 275.206 226.73 275.964 227.72 276.659C228.347 277.164 228.848 277.568 229.463 277.96ZM215.005 258.451C216.184 259.297 217.413 260.081 218.528 260.877C222.853 263.846 227.178 266.816 231.554 269.723C233.711 271.151 235.879 272.692 238.036 274.12C239.089 274.866 240.192 275.548 241.308 276.344C242.11 276.888 242.925 277.544 243.727 278.088C239.405 277.808 235.068 277.93 230.819 278.329C230.645 277.776 230.156 277.485 229.654 277.081C229.153 276.677 228.589 276.222 228.088 275.818C227.023 274.96 225.844 274.113 224.779 273.255C220.844 270.186 216.859 267.18 212.861 264.061C210.868 262.558 208.875 261.055 206.995 259.54C205.441 258.391 203.988 257.116 202.321 255.979C205.501 255.752 208.831 255.852 212.034 256.366C212.974 257.124 214.015 257.756 215.005 258.451ZM250.812 279.044C248.878 278.622 246.793 278.388 244.77 278.205L244.707 278.154C243.517 277.194 242.175 276.423 240.946 275.639C239.717 274.855 238.539 274.009 237.373 273.276C233.047 270.306 228.672 267.399 224.347 264.43C222.19 263.002 220.022 261.461 217.865 260.032C216.812 259.287 215.709 258.604 214.593 257.808C213.979 257.417 213.477 257.013 212.863 256.621C214.32 256.865 215.84 257.159 217.258 257.579C220.322 258.395 223.359 259.5 226.207 260.968C227.6 261.677 229.004 262.499 230.358 263.384C231.098 263.877 231.775 264.319 232.464 264.875C234.481 266.604 236.549 268.271 238.554 269.887C242.665 272.994 246.713 276.05 250.812 279.044ZM256.503 283.011C255.721 283.725 254.99 284.375 254.208 285.089C246.856 291.773 239.179 298.092 230.364 302.873C222.682 307.018 214.288 309.865 205.626 310.738C205.06 310.799 204.432 310.809 203.753 310.882C204.207 310.318 204.649 309.641 205.041 309.026C205.837 307.911 206.684 306.733 207.417 305.566C210.184 301.492 212.826 297.316 215.343 293.04C216.545 290.908 217.86 288.763 218.999 286.581C219.569 285.489 220.138 284.398 220.708 283.307C221.189 282.454 221.556 281.613 221.924 280.772C225.244 280.244 228.513 279.779 231.857 279.477C235.83 279.165 239.827 279.079 243.798 279.282C246.851 279.469 249.828 280.008 252.805 280.547C254.096 281.381 255.325 282.165 256.503 283.011ZM60.219 226.712C62.8741 225.855 65.6161 225.274 68.259 224.304C70.914 223.446 73.4942 222.425 76.0623 221.291C80.758 219.184 85.3041 216.75 89.6379 213.938C94.1859 210.989 98.3336 207.51 102.619 204.246C106.74 201.056 111.062 198.131 115.883 196.125C118.073 195.203 120.35 194.558 122.652 194.139C123.545 193.929 124.45 193.831 125.305 193.797C124.299 194.019 123.293 194.242 122.298 194.578C119.694 195.372 117.126 196.507 114.746 197.792C104.785 203.097 97.2374 211.691 88.5398 218.635C81.0018 224.652 71.8208 229.759 61.8564 229.169C61.2682 228.488 60.781 227.682 60.3565 226.927C60.2938 226.876 60.2817 226.763 60.219 226.712ZM122.151 193.735C119.635 194.291 117.206 195.125 114.915 196.172C110.219 198.279 105.973 201.367 101.902 204.494C99.6832 206.221 97.5275 207.997 95.2465 209.673C93.0159 211.286 90.8359 212.837 88.5306 214.286C84.1341 217.047 79.5254 219.431 74.7671 221.487C72.3 222.496 69.8834 223.443 67.3415 224.288L67.2284 224.3C70.0106 223.028 72.6554 221.542 75.1628 219.842C84.2727 213.541 92.2447 205.703 101.755 199.932C105.836 197.433 110.318 195.464 114.947 194.337C117.903 193.619 120.795 193.366 123.785 193.502C123.157 193.513 122.654 193.624 122.151 193.735ZM60.0227 225.417C65.49 221.968 70.1568 217.461 74.6478 212.915C82.4944 204.976 90.3813 196.345 101.278 192.829C106.035 191.288 111.064 190.69 116.078 191.011C118.616 191.196 121.065 191.62 123.539 192.27C124.543 192.562 125.485 192.805 126.439 193.16C126.212 193.184 126.037 193.146 125.873 193.221C121.866 192.678 117.616 193.077 113.728 194.182C103.437 196.947 95.0045 203.69 86.8989 210.283C82.638 213.774 78.3528 217.039 73.5664 219.899C69.2709 222.535 64.6884 224.63 59.7823 225.844C59.7702 225.73 59.6449 225.629 59.6327 225.516C59.7459 225.504 59.859 225.492 60.0227 225.417ZM60.3051 206.729C60.8849 206.266 61.3516 205.816 61.9314 205.353C68.2975 200.148 75.0517 195.359 82.467 191.93C89.0135 188.938 96.1968 187.079 103.411 187.106C109.996 187.142 116.324 189.038 122.461 191.298C119.875 190.66 117.149 190.323 114.509 190.263C109.458 190.119 104.44 190.829 99.7081 192.597C94.5355 194.526 89.8865 197.6 85.6883 201.142C76.7746 208.738 69.575 218.439 59.5981 224.662C59.5476 224.724 59.4971 224.787 59.4466 224.85C57.3942 219.061 58.8758 212.606 60.3051 206.729ZM61.175 202.572C65.047 195.461 71.2392 189.702 78.4422 185.895C85.3179 182.238 93.1418 180.482 100.934 180.561C108.839 180.628 116.549 182.604 123.65 185.848C131.479 189.471 138.814 194.349 147.328 196.354C151.434 197.286 155.932 197.605 160.121 196.64C155.252 198.193 149.822 198.261 144.798 197.312C140.829 196.594 136.975 195.348 133.222 193.977L133.16 193.926C129.47 192.606 125.868 191.047 122.241 189.776C114.973 187.123 107.502 185.235 99.7833 185.835C92.4663 186.449 85.4448 188.749 78.9974 192.131C72.2227 195.663 66.0727 200.215 60.236 205.02C60.2622 204.731 60.351 204.492 60.4399 204.254C60.6176 203.777 60.8963 203.175 61.175 202.572ZM2.02943 134.122C8.87858 137.679 15.1965 142.151 21.3629 146.812C31.515 154.478 41.2246 162.821 52.6533 168.519C62.2753 173.381 73.0223 176.462 83.8229 175.244C84.124 175.384 84.413 175.41 84.7141 175.549C83.8331 175.873 82.9522 176.196 82.0834 176.633C77.8787 178.515 73.9732 181.052 70.5811 184.107C69.7263 184.141 68.8716 184.176 68.0047 184.097C60.4895 183.931 53.3719 181.605 46.85 177.899C39.2874 173.56 32.8619 167.554 26.8144 161.335C20.5667 154.852 14.42 148.244 8.28547 141.749C6.79579 140.135 5.25561 138.583 3.76593 136.969C2.98976 136.137 2.31461 135.179 2.02943 134.122ZM5.7864 127.538C9.87873 128.872 13.9832 130.32 17.9362 131.956C25.0762 135.024 31.8749 138.643 38.3443 142.928C41.6043 145.039 44.7127 147.337 47.8333 149.749C50.766 152.01 53.5088 154.634 56.3909 156.957C63.801 165.204 72.9505 172.062 83.6471 175.206C77.7002 175.788 71.6075 175.011 65.9328 173.331C54.7715 170.123 44.8157 163.752 35.6035 156.843C24.7117 148.684 14.4139 139.66 2.38484 133.168C2.19688 133.017 2.03322 133.091 1.86956 133.166C1.8331 132.827 1.9098 132.475 1.9865 132.124C2.39621 130.076 3.89726 128.599 5.64893 127.323C5.66108 127.437 5.72375 127.487 5.7864 127.538ZM15.231 125.951C24.0273 126.323 32.5393 128.843 40.0131 133.42C43.2477 139.024 46.5832 144.504 50.4603 149.696C51.3982 150.969 52.3867 152.179 53.3751 153.389C51.358 151.66 49.2904 149.994 47.2349 148.44C35.0657 139.045 21.2804 131.654 6.6814 126.812C7.05923 126.6 7.38656 126.45 7.65122 126.25C10.1912 125.92 12.705 125.879 15.231 125.951ZM15.1011 123.676C21.8177 122.268 28.9167 122.822 35.4058 125.158C36.2549 126.669 37.0535 128.243 37.9652 129.805C38.4646 130.724 39.0144 131.581 39.5138 132.5C37.8586 131.476 36.1528 130.515 34.3461 129.679C26.8806 126.245 18.6417 124.669 10.4335 124.978C11.9307 124.531 13.4785 124.022 15.1011 123.676ZM32.3228 119.365C33.184 120.99 34.0453 122.614 34.9692 124.289C33.7768 123.845 32.6471 123.451 31.4669 123.12C27.7 122.151 23.8302 121.823 19.9585 122.009C18.4248 122.117 16.9033 122.338 15.4443 122.609C20.8433 120.655 26.5031 119.532 32.2096 119.377C32.1591 119.44 32.2723 119.428 32.3228 119.365ZM34.93 121.26C40.0621 126.947 45.6103 132.246 51.4494 137.056C58.103 142.523 65.2112 147.425 72.598 151.726C79.9222 155.976 87.6888 159.548 95.6331 162.644C103.402 165.702 111.36 168.396 119.229 171.328C123.17 172.85 127.111 174.373 130.9 176.084C132.042 176.591 133.247 177.148 134.338 177.718C134.35 177.831 134.413 177.881 134.538 177.982C134.488 178.045 134.437 178.108 134.387 178.17C130.27 176.609 126.064 175.287 121.782 174.316C110.443 171.584 98.2662 171.175 87.0923 174.779C87.0297 174.728 86.9044 174.627 86.7286 174.589C84.9704 174.206 83.3133 173.697 81.5935 173.137C67.3097 168.032 56.5181 156.543 48.2685 144.208C44.3185 138.337 40.7342 132.14 37.2631 125.932C37.4268 125.857 37.5156 125.618 37.2772 125.529C37.1518 125.428 37.0387 125.441 36.9134 125.34C36.7759 125.125 36.6384 124.911 36.501 124.697C36.141 123.477 35.5042 122.343 34.93 121.26ZM18.2289 72.8614C18.4655 73.4655 18.8153 74.0575 19.0518 74.6616C23.6048 84.0166 29.5054 92.5972 36.2506 100.515C43.3838 108.849 51.3999 116.344 59.719 123.463C68.2261 130.733 77.024 137.515 85.8341 144.409C94.4562 151.153 103.179 157.77 112.408 163.762C116.959 166.707 121.561 169.589 126.302 172.171C129.162 173.752 132.009 175.221 134.958 176.564C135.209 176.766 135.409 177.03 135.659 177.232C135.421 177.144 135.296 177.043 135.057 176.954C129.186 173.979 123.087 171.543 117 169.221C109.131 166.288 101.172 163.595 93.4542 160.475C85.5604 157.316 77.9959 153.493 70.71 149.067C63.4241 144.641 56.5302 139.601 50.0402 134.06C43.6129 128.569 37.7028 122.565 32.2594 116.11C30.4378 112.471 28.6789 108.883 27.1341 105.157C24.2428 98.4849 21.792 91.6514 20.0585 84.5691C19.5873 82.8455 19.2292 81.1098 18.8711 79.3741C18.5757 77.6888 18.2297 76.0663 18.2111 74.2941C18.1625 73.8414 18.1644 73.3261 18.2289 72.8614ZM62.8891 88.4971C63.1379 89.2144 63.3987 90.0448 63.7606 90.75C66.7632 97.9249 70.5214 104.675 74.8211 111.139C79.1712 117.539 83.9376 123.552 89.0313 129.415C94.1877 135.328 99.546 140.991 105.068 146.579C110.916 152.533 116.927 158.412 122.825 164.303C126.544 168.024 130.2 171.695 133.919 175.416C125.401 171.237 117.262 166.331 109.364 160.998C100.412 154.92 91.7518 148.353 83.2428 141.597C74.3701 134.652 65.4973 127.707 57.0286 120.261C48.9358 113.117 41.2471 105.473 34.5038 97.0396C28.1608 89.136 22.5997 80.5189 18.5115 71.2285C18.677 70.6384 18.9052 70.0988 19.1961 69.6097C19.9677 68.2678 21.3153 67.4935 22.7621 67.1092C26.0072 66.4173 29.459 67.6492 32.3449 68.9417C35.7078 70.412 38.7293 72.434 41.7003 74.5187C44.7339 76.6539 47.7292 78.9649 50.7629 81.1001C53.9097 83.2231 57.107 85.2835 60.3427 87.1681C61.246 87.5861 62.0989 88.0669 62.8891 88.4971ZM145.48 182.874C145.417 182.823 145.241 182.785 145.178 182.735C143.675 181.522 142.222 180.248 140.819 178.91C140.932 178.898 140.92 178.785 140.857 178.735C140.732 178.634 140.556 178.595 140.493 178.545C136.411 174.634 132.732 170.221 129.304 166.011C121.058 155.85 113.684 144.738 108.777 132.617C106.361 126.638 104.536 120.31 103.567 113.947C102.648 107.521 102.634 100.998 103.374 94.5656C104.891 82.0407 109.095 70.0284 114.277 58.5978C114.69 59.2403 115.04 59.8323 115.389 60.4243C120.496 69.6053 118.696 80.5582 117.001 90.3551C116.166 95.3668 115.393 100.429 115.198 105.543C115.03 110.369 115.2 115.158 115.711 119.911C116.794 129.467 119.349 138.864 123.263 147.601C127.564 157.269 133.614 166.177 140.9 173.808C147.611 180.871 155.52 186.832 164.087 191.464C163.798 191.437 163.509 191.411 163.22 191.385C159.954 190.82 156.866 189.778 153.968 188.372C153.956 188.259 153.944 188.146 153.768 188.108C153.103 187.778 152.501 187.5 151.785 187.233C149.653 186.031 147.622 184.704 145.68 183.139C145.73 183.076 145.605 182.975 145.48 182.874ZM80.6676 96.8324C84.6084 98.3551 88.6503 99.7524 92.7183 100.861C92.8436 100.962 92.9689 101.063 93.1447 101.101C93.2074 101.152 93.3205 101.14 93.3084 101.026C95.7819 101.676 98.1928 102.276 100.642 102.7C100.705 102.75 100.767 102.801 100.83 102.851C101.018 103.003 101.182 102.928 101.283 102.803C101.396 102.791 101.572 102.829 101.634 102.879C101.577 108.208 102.085 113.476 103.222 118.734C104.544 125.174 106.758 131.403 109.526 137.458C115.187 149.67 123.014 160.734 131.724 170.959C132.374 171.69 133.025 172.422 133.676 173.153C129.644 169.179 125.561 165.268 121.529 161.294C115.705 155.567 109.882 149.839 104.11 144.049C98.5876 138.461 93.1787 132.861 88.0729 126.885C82.9792 121.022 78.2512 114.834 74.0646 108.358C72.0027 105.146 70.0539 101.921 68.2566 98.5086C66.5968 95.3101 65.2138 92.0247 63.6672 88.8142C69.0855 91.8379 74.7564 94.5484 80.6676 96.8324ZM68.5788 68.9996C69.3493 71.3778 70.2834 73.6812 71.3308 75.9725C73.7003 80.9834 76.7871 85.7455 80.4416 89.9316C82.3316 92.0751 84.3225 94.0934 86.3639 96.049C87.3159 96.9197 88.2679 97.7904 89.3835 98.5863C82.1527 96.2723 75.1502 93.4187 68.4263 89.9628C68.4142 89.8496 68.4142 89.8496 68.3515 89.7991C66.2102 84.2487 66.3704 78.2794 67.6481 72.5907C67.9793 71.4105 68.2477 70.1798 68.5788 68.9996ZM72.048 58.6687C73.2794 62.1421 74.6746 65.5406 76.296 68.9149C79.264 75.235 82.824 81.2054 86.8749 86.9514C88.9004 89.8244 91.0896 92.6226 93.4929 95.2834C94.6066 96.5946 95.8335 97.8936 97.0604 99.1926C97.774 99.9745 98.6006 100.744 99.3141 101.526C98.5482 101.322 97.8955 101.106 97.1296 100.902C95.0703 100.379 92.9989 99.7433 90.9275 99.1072C89.1853 97.8063 87.3804 96.4549 85.7393 95.0286C81.5797 91.4691 78.115 86.9192 75.3172 82.1833C72.5941 77.611 70.4752 72.8022 69.0736 67.7446C69.3785 66.8534 69.6208 65.9116 69.8752 65.0831C70.5496 62.8358 71.2361 60.7018 72.048 58.6687ZM82.7706 44.4684C84.0123 48.5702 85.4177 52.5972 86.7726 56.6868C91.7331 71.435 96.6431 86.2459 101.717 100.982C101.703 101.384 101.676 101.673 101.662 102.075C101.311 101.998 100.959 101.922 100.595 101.732C99.4938 100.534 98.2912 99.4611 97.1896 98.2631C95.8373 96.863 94.5356 95.4003 93.2966 93.9881C84.1986 83.3471 77.1554 71.0546 72.7045 57.8542C72.6923 57.741 72.6297 57.6905 72.567 57.64C72.7448 57.1631 72.9225 56.6862 73.1628 56.2597C74.4938 53.198 76.1258 50.2756 78.447 47.9087C79.6713 46.5182 81.1583 45.4428 82.7706 44.4684ZM96.6443 41.4905C96.6807 41.8299 96.8304 42.1573 96.98 42.4846C97.2165 43.0887 97.4531 43.6929 97.6897 44.297C98.1628 45.5053 98.7492 46.7014 99.2223 47.9097C100.219 50.2636 101.329 52.6054 102.376 54.8967C104.459 59.3661 106.705 63.7606 108.901 68.2179C105.207 78.0577 102.417 88.3157 101.712 98.8076C100.543 95.3847 99.3118 91.9114 98.1935 88.4259C95.6193 80.976 93.1077 73.5767 90.5335 66.1268C88.0341 58.8406 85.6983 51.4796 82.9848 44.3309C83.6899 43.969 84.3951 43.6071 85.1629 43.2958C88.7878 41.8763 92.7361 41.3378 96.6443 41.4905ZM118.328 47.2887C116.67 50.5001 115.188 53.7498 113.705 56.9995C113.529 56.9612 113.378 57.1492 113.515 57.3633C113.515 57.3633 113.515 57.3633 113.578 57.4138C113.16 58.3172 112.691 59.2832 112.336 60.2371C111.272 62.5835 110.32 64.9176 109.381 67.365C107.159 63.1967 105.101 58.9537 103.094 54.648C101.984 52.3062 100.936 50.0149 99.9396 47.661C99.4159 46.5154 98.8801 45.2566 98.407 44.0483C98.1704 43.4442 97.9338 42.84 97.6468 42.2985C97.5093 42.0844 97.4223 41.8075 97.2849 41.5934C98.7803 41.6617 100.288 41.8432 101.745 42.0874C107.397 43.0256 112.843 45.2451 118.328 47.2887ZM164.496 46.051C164.67 46.6046 164.844 47.1582 165.018 47.7119C167.596 57.336 166.114 67.5108 163.992 77.0674C162.842 82.3418 161.402 87.5901 160.427 92.9028C159.493 97.5245 158.847 102.172 158.428 106.796C157.551 116.219 157.705 125.646 158.827 135.026C159.898 144.468 161.988 153.802 165.072 162.799C167.248 169.204 169.899 176.303 169.672 183.252C169.458 183.389 169.256 183.64 169.343 183.917C169.418 184.081 169.492 184.244 169.618 184.345C169.563 185.438 169.345 186.607 169.115 187.661C168.837 188.264 168.507 188.929 168.178 189.593C167.855 188.712 167.644 187.819 167.321 186.938C163.43 175.223 158.331 163.981 153.786 152.565C149.689 142.131 145.958 131.371 144.365 120.268C143.618 114.911 143.312 109.392 143.759 103.964C144.208 98.0213 145.599 92.3204 147.04 86.5569C148.443 80.9692 149.847 75.3815 150.257 69.6142C150.628 64.5381 150.37 59.4721 149.546 54.4669C147.972 45.1355 144.45 35.7844 138.872 28.0847C139.776 28.5028 140.691 29.034 141.595 29.4521C147.716 32.6292 153.749 36.0448 159.024 40.4003C160.815 42.1538 162.731 44.0084 164.496 46.051ZM170.384 54.5184C173.055 59.6687 174.467 65.3547 174.521 71.1865C174.563 76.9052 173.624 82.5575 172.272 88.0825C171.749 90.1418 171.163 92.1505 170.578 94.1593C170.527 94.2219 170.477 94.2846 170.426 94.3473C170.325 94.4726 170.337 94.5857 170.35 94.6989C167.588 104.153 164.286 113.378 163.332 123.153C163.345 123.266 163.294 123.328 163.306 123.442C163.155 123.63 163.129 123.919 163.266 124.133C162.855 129.9 163.463 135.558 164.699 141.206C165.971 147.193 167.848 152.943 169.284 158.856C171.018 165.938 172.082 173.722 170.811 181.069C170.498 173.892 167.508 166.83 165.296 160.085C162.313 150.962 160.387 141.554 159.416 131.986C158.509 122.469 158.506 112.854 159.66 103.344C160.219 98.4195 161.117 93.4584 162.14 88.5982C163.341 83.2612 164.655 77.9119 165.63 72.5992C167.143 64.3097 167.792 55.4264 165.484 47.2611C167.386 49.5178 169.074 51.912 170.384 54.5184ZM184.77 79.758C182.914 82.1894 182.173 85.4168 181.798 88.3186C180.843 94.8883 181.874 101.817 179.287 108.104C176.649 114.454 170.853 118.568 165.296 122.255C165.389 120.986 165.595 119.705 165.863 118.474C167.379 109.669 170.477 101.21 172.871 92.5967C173.313 91.9196 173.818 91.2931 174.323 90.6665C175.119 89.5509 176.091 88.4736 176.95 87.4085C177.063 87.3963 177.164 87.271 177.214 87.2083C177.517 86.8324 177.871 86.3938 178.174 86.0179C180.218 83.738 182.4 81.6723 184.77 79.758ZM194.711 73.1963C191.242 76.6021 189.477 81.4846 188.73 86.2578C187.134 96.4448 190.01 107.239 185.739 117.026C184.675 119.373 183.246 121.529 181.38 123.332C179.665 124.947 177.612 126.083 175.559 127.219C171.781 129.342 167.928 131.301 165.451 134.887C164.937 131.164 164.875 127.394 165.216 123.637C168.366 121.525 171.39 119.311 174.152 116.783C176.7 114.391 178.91 111.521 180.279 108.284C181.497 105.234 181.936 101.868 182.099 98.588C182.25 95.1951 182.225 91.7639 182.665 88.3972C182.884 86.7139 183.28 85.0689 183.852 83.4623C184.423 81.8557 185.233 80.3379 186.106 78.8706C188.677 76.7058 191.625 74.844 194.711 73.1963ZM196.234 72.4604C200.15 70.5519 204.227 69.0838 208.466 68.0562C211.146 67.4251 214.114 66.8202 216.992 66.969C216.715 67.056 216.489 67.0803 216.212 67.1673C212.223 68.3968 209.171 71.4145 207.033 74.9635C204.757 78.8135 203.748 83.2715 203.769 87.7333C203.788 92.7104 204.776 97.6408 205.864 102.446C206.965 107.364 208.002 112.232 208.588 117.148C209.707 127.043 208.815 137.384 203.755 146.226C198.784 154.829 190.917 161.512 183.866 168.335C179.83 172.317 175.767 176.588 172.608 181.277C174.135 172.585 172.347 163.391 170.128 154.988C168.516 149.037 166.728 143.048 165.732 136.974C165.708 136.748 165.621 136.471 165.597 136.244C165.71 136.232 165.761 136.17 165.811 136.107C168.103 131.34 173.791 129.412 178.036 126.839C180.026 125.652 181.879 124.251 183.406 122.485C184.984 120.656 186.073 118.536 186.923 116.327C188.7 111.558 188.945 106.38 188.914 101.29C188.87 96.0867 188.588 90.7944 189.524 85.6575C190.398 80.47 192.414 75.7895 196.234 72.4604ZM222.415 7.15173C221.662 10.2659 220.721 13.2285 219.315 16.1266C217.871 19.2005 216.114 22.0219 214.169 24.6918C206.551 35.2964 196.403 43.6547 188.91 54.3604C181.962 64.2637 176.993 75.5568 174.197 87.3606C174.147 87.4233 174.046 87.5486 173.995 87.6113C174.353 86.1421 174.659 84.7356 174.904 83.2786C175.955 77.6142 176.429 71.8974 175.645 66.2011C175.07 61.9132 173.703 57.7104 171.694 53.92C172.1 52.9035 172.505 51.8869 172.911 50.8704C173.418 49.7286 173.988 48.6372 174.557 47.5459C175.127 46.4546 175.697 45.3632 176.329 44.3224C177.593 42.2407 178.92 40.2095 180.31 38.2289C183.254 34.1927 186.397 30.4213 189.653 26.6376C193.112 22.6034 196.621 18.5065 200.079 14.4722C201.859 12.3925 203.589 10.3754 205.368 8.29558C206.289 7.28095 207.148 6.21581 208.019 5.26383C208.776 4.32398 209.534 3.38417 210.479 2.59585C211.261 1.88235 212.181 1.38297 213.324 1.37462C214.242 1.39056 215.183 1.63283 216.036 2.11356C217.855 3.06286 219.484 4.37594 220.95 5.76383C221.451 6.16786 221.902 6.63454 222.415 7.15173ZM230.018 20.9293C229.131 26.5189 226.246 31.6361 222.636 35.8583C214.899 44.8161 203.895 50.004 195.182 57.8648C187.616 64.6867 181.313 73.147 177.646 82.6979C177.343 83.0739 177.04 83.4498 176.737 83.8257C176.535 84.0764 176.395 84.3775 176.244 84.5654C177.659 79.0909 179.488 73.7436 181.857 68.6245C184.455 62.9658 187.654 57.5858 191.355 52.6098C195.296 47.2074 199.977 42.2979 204.545 37.4005C208.797 32.7659 212.975 27.9677 216.464 22.6139C219.409 18.0625 221.954 12.9817 222.916 7.55576C225.069 10.0145 226.805 12.8613 228.215 15.8577C228.85 17.5065 229.434 19.2179 230.018 20.9293ZM231.202 44.21C227.531 47.8664 223.398 50.943 218.926 53.5407C210.463 58.3986 201.287 61.9594 193.311 67.6234C189.052 70.599 185.13 74.0534 181.648 77.8613C180.928 78.6253 180.221 79.5025 179.502 80.2665C181.188 76.2509 183.414 72.4635 185.954 68.9286C189.452 64.2033 193.578 59.983 198.041 56.2415C202.718 52.3625 207.858 49.0634 212.735 45.4491C220.637 39.6214 228.683 31.9467 230.291 21.8729C232.053 28.151 232.418 34.7506 231.678 41.1828C231.511 42.2882 231.331 43.2804 231.202 44.21ZM231.022 45.2022C230.165 49.4722 228.78 53.6273 226.78 57.3904C224.994 57.8111 223.169 58.4077 221.458 58.9921C219.356 59.6756 217.255 60.3591 215.153 61.0426C207.867 63.542 200.68 66.4314 194.067 70.4038C190.628 72.4901 187.39 74.8409 184.414 77.507C182.951 78.8087 181.551 80.161 180.163 81.6263C181.426 80.06 182.751 78.5441 184.139 77.0787C187.684 73.3213 191.669 69.9174 195.99 66.9923C200.047 64.2674 204.329 62.0334 208.673 59.85C213.017 57.6665 217.31 55.5457 221.442 52.9844C224.931 50.8355 228.322 48.2966 231.022 45.2022ZM220.287 66.2145C218.04 65.5401 215.69 65.5063 213.376 65.812C209.818 66.2514 206.308 67.1434 202.998 68.3001C198.191 69.9037 193.684 72.1619 189.451 74.8485C194.631 70.8583 200.361 67.7248 206.378 65.1327C209.941 63.6628 213.515 62.306 217.164 61.1129C220.26 60.0937 223.367 59.1876 226.4 58.1179C224.819 60.9776 222.811 63.597 220.54 65.9012C220.376 65.976 220.275 66.1013 220.287 66.2145ZM222.628 68.8247C216.952 70.865 212.686 75.9018 210.353 81.3603C205.649 92.4533 209.211 104.834 214.528 114.908C217.623 120.814 221.373 126.42 223.587 132.65C225.217 137.168 225.928 142.185 224.779 146.944C223.969 148.462 223.096 149.929 222.111 151.409C217.701 157.777 211.662 162.832 205.112 166.855C201.724 168.879 198.198 170.688 194.597 172.334C190.946 174.042 187.22 175.587 183.695 177.396C183.204 177.621 182.826 177.833 182.397 178.108C182.373 177.882 182.185 177.73 181.971 177.868C180.763 178.341 179.692 179.028 178.496 179.615C177.413 180.189 176.342 180.876 175.271 181.563C174.629 181.976 173.936 182.451 173.281 182.75C177.137 176.555 182.41 171.296 187.582 166.162C194.457 159.3 201.558 152.414 205.751 143.493C209.905 134.748 210.155 124.82 208.858 115.402C208.16 110.498 207.009 105.642 205.971 100.775C204.933 95.907 203.996 90.9139 204.316 85.9004C204.584 81.4648 205.945 77.0835 208.648 73.4738C211.149 70.1147 214.613 67.7395 218.726 67.1262C218.839 67.1141 218.901 67.1646 219.015 67.1524C220.308 67.4714 221.512 68.0288 222.628 68.8247ZM222.203 105.899C221.428 104.552 220.642 103.091 219.868 101.743C217.183 96.9952 214.06 91.8936 215.174 86.2797C215.737 83.5293 217.116 80.9202 218.821 78.6767C219.769 77.3731 220.904 76.2211 222.09 75.0063C223.124 73.9795 224.171 73.0659 225.143 71.9886C225.304 72.4291 225.416 72.9322 225.414 73.4475C225.54 76.7534 223.029 79.484 221.611 82.269C220.205 85.1671 219.577 88.3822 219.465 91.5992C219.309 96.538 220.561 101.268 222.203 105.899ZM229.019 132.066C228.828 136.15 227.871 140.03 226.273 143.807C226.578 139.711 225.663 135.46 224.169 131.671C221.791 125.517 217.94 120.035 214.857 114.243C212.124 109.042 209.932 103.554 209.074 97.6943C208.216 91.8343 208.715 85.8286 211.337 80.3962C213.819 75.2649 217.793 71.2326 223.054 69.0651C223.869 69.7216 224.469 70.5156 224.918 71.4976C223.482 72.5103 222.195 73.8504 221.009 75.0652C219.722 76.4052 218.548 77.7331 217.512 79.2752C215.983 81.557 214.779 84.2045 214.329 86.9427C213.992 89.6687 214.51 92.3602 215.469 94.89C216.565 97.6339 218.101 100.216 219.575 102.748C220.974 105.116 222.26 107.496 223.658 109.864C226.322 117.075 229.375 124.187 229.019 132.066ZM280.378 140.802C278.747 140.004 276.914 139.457 275.194 138.897C273.299 138.3 271.415 137.815 269.481 137.393C262.625 135.898 255.475 135.406 248.435 135.933C244.915 136.197 241.419 136.687 238.01 137.453C234.992 138.121 231.985 138.902 229.128 140.01C230.198 136.118 230.678 132.06 230.354 127.974C231.598 127.84 232.73 127.719 233.975 127.585C246.345 126.6 258.909 127.941 270.822 131.755C273.91 132.797 277.248 134.041 279.048 136.938C279.759 138.235 280.182 139.506 280.378 140.802ZM280.452 144.685C279.635 144.544 278.882 144.453 278.128 144.363C270.653 143.506 263.112 143.629 255.68 144.77C248.298 145.849 241.014 147.833 234.128 150.862C226.462 154.089 219.57 158.664 212.966 163.78C205.933 169.171 199.238 175.041 191.867 179.953C185.668 184.052 178.995 187.459 171.686 189.217C171.787 189.091 171.838 189.029 171.939 188.903C176.914 182.474 184.469 178.744 191.733 175.503C195.446 173.845 199.211 172.125 202.837 170.19C206.351 168.267 209.664 166.08 212.828 163.566C217.631 159.788 221.782 155.278 224.943 150.074C224.994 150.011 225.044 149.949 225.095 149.886C225.095 149.886 225.095 149.886 225.145 149.824C225.879 148.657 226.549 147.441 227.107 146.236C227.904 144.605 228.526 142.936 229.035 141.279C230.696 140.757 232.345 140.122 234.006 139.6C235.893 139.054 237.78 138.508 239.742 138.126C246.572 136.706 253.624 136.292 260.548 136.807C264.015 137.122 267.507 137.662 270.91 138.442C272.555 138.837 274.263 139.283 275.92 139.792C277.515 140.251 279.071 140.885 280.665 141.343C280.548 142.386 280.557 143.53 280.452 144.685ZM208.44 184.526C210.143 182.798 211.796 181.132 213.511 179.517C218.618 174.848 224.239 170.696 230.871 168.496C233.74 167.501 236.708 166.896 239.737 166.857C241.22 166.812 242.716 166.88 244.223 167.062C245.618 167.256 246.923 167.688 248.33 167.994C243.852 168.933 239.425 169.809 235.097 171.075C228.881 172.887 223.127 175.795 217.522 179.029C214.461 180.903 211.451 182.714 208.44 184.526ZM172.55 193.531C179.174 193.392 185.604 191.442 191.522 188.46C199.014 184.68 205.555 179.513 212.097 174.346C219.005 168.854 226.038 163.463 234.17 159.786C241.648 156.407 249.787 154.388 258.022 153.79C261.831 153.553 265.727 153.592 269.524 153.242C272.466 152.926 275.559 152.422 278.291 151.213C276.52 154.436 273.896 157.179 270.922 159.33C264.406 164.208 256.719 166.178 248.997 167.808C248.984 167.695 248.984 167.695 248.922 167.645C247.467 166.885 245.658 166.564 244.088 166.332C242.342 166.062 240.62 166.018 238.86 166.15C232.487 166.491 226.395 168.919 221.103 172.406C215.22 176.243 210.262 181.24 205.43 186.337C203.868 187.249 202.294 188.047 200.72 188.846C192.196 193.138 181.866 196.079 172.55 193.531ZM169.626 192.414L169.563 192.364C169.892 191.699 170.234 191.147 170.626 190.533C171.242 190.409 171.858 190.286 172.525 190.1C180.375 188.055 187.592 183.846 194.195 179.245C201.49 174.169 208.186 168.299 215.231 163.021C221.746 158.144 228.725 153.846 236.29 150.744C243.251 147.879 250.598 145.946 258.167 145.018C261.952 144.555 265.71 144.38 269.493 144.431C273.163 144.495 276.744 144.797 280.399 145.263C280.141 147.123 279.531 148.905 278.734 150.536C278.243 150.76 277.802 150.922 277.311 151.147C270.1 153.81 262.148 152.775 254.629 153.64C246.657 154.553 238.832 156.824 231.604 160.405C223.672 164.347 216.827 169.889 209.857 175.331C203.416 180.372 196.862 185.426 189.321 188.754C183.203 191.471 176.347 193.18 169.626 192.414ZM166.853 191.109L165.155 188.087C159.324 177.495 153.607 166.892 147.726 156.363C142.482 146.968 136.886 137.496 133.707 127.078C132.142 122.095 131.294 116.864 131.024 111.685C130.817 106.556 131.011 101.442 131.319 96.3149C131.972 86.401 133.026 76.5011 132.133 66.5815C131.375 57.3913 128.996 48.0318 123.166 40.6454C123.407 40.219 123.698 39.7299 123.938 39.3035C127.099 34.0993 131.366 29.0625 137.579 27.7657L137.63 27.7031C138.167 28.4466 138.655 29.2527 139.204 30.1094C144.652 38.7387 148.122 48.6677 149.04 58.8137C149.524 63.8553 149.392 69.0204 148.67 74.0198C147.768 80.0116 146.05 85.862 144.684 91.7892C143.444 97.3021 142.67 102.88 142.649 108.548C142.654 113.927 143.225 119.245 144.073 124.477C145.046 129.809 146.309 135.168 147.898 140.377C149.587 145.976 151.666 151.476 153.795 156.913C158.34 168.33 163.314 179.471 166.853 191.109ZM139.194 169.642C132.348 161.849 126.863 152.881 123.028 143.277C119.491 134.328 117.264 124.78 116.633 115.176C116.349 110.399 116.342 105.535 116.799 100.736C117.259 95.4211 118.347 90.0961 119.095 84.8077C119.868 79.7455 120.176 74.6188 119.403 69.551C118.727 65.3884 117.247 61.1978 114.607 57.9329C114.796 57.5691 114.924 57.1549 115.114 56.7911C116.507 53.7798 117.963 50.8191 119.482 47.9089C119.533 47.8462 119.583 47.7835 119.571 47.6704C119.86 47.6966 119.999 47.3955 119.85 47.0681C120.888 45.0108 121.926 42.9534 123.09 40.997C123.753 41.8416 124.302 42.6982 124.864 43.668C129.975 51.8185 131.723 61.7035 132.002 71.2312C132.28 81.2742 130.835 91.2732 130.421 101.276C130.164 106.34 130.196 111.43 130.68 116.472C131.176 121.627 132.351 126.709 134.131 131.554C135.934 136.626 138.217 141.36 140.675 146.132C143.271 151.119 146.043 156.143 148.752 161.118C154.02 170.739 159.226 180.31 164.545 189.869C164.545 189.869 164.545 189.869 164.482 189.819C154.887 184.668 146.303 177.749 139.194 169.642ZM166.732 193.183C166.09 193.595 165.447 194.007 164.742 194.369C158.244 197.814 150.153 197.081 143.425 194.655C134.927 191.733 127.431 186.415 118.972 183.317C111.88 180.702 104.256 179.517 96.6881 179.929C88.9568 180.416 81.3574 182.663 74.7688 186.862C69.251 190.373 64.4953 195.119 61.0937 200.75C62.6707 195.716 65.44 191.126 69.036 187.306C78.0199 177.699 91.0688 173.436 104.052 173.358C109.658 173.329 115.235 174.103 120.748 175.343C120.811 175.393 120.873 175.444 120.873 175.444C121.738 176.037 123.133 176.231 124.137 176.524C125.204 176.867 126.208 177.16 127.275 177.503C129.347 178.139 131.43 178.888 133.463 179.7C135.258 180.423 137.002 181.209 138.746 181.995C140.288 183.031 141.768 184.017 143.399 184.814C144.979 185.675 146.61 186.473 148.279 187.095C149.12 187.462 150.074 187.818 151.016 188.06C155.706 190.704 160.827 192.558 166.407 192.817C166.556 193.144 166.619 193.195 166.732 193.183ZM167.971 194.595C166.434 195.733 164.884 196.758 163.209 197.682C162.668 197.969 162.013 198.268 161.472 198.555C159.999 199.228 158.513 199.788 156.966 200.298C153.254 201.441 149.368 202.03 145.51 201.814C141.263 201.698 137.043 200.778 132.798 200.146C128.087 199.45 122.684 199.229 118.103 200.809C119.691 199.608 121.354 198.571 123.091 197.697C125.861 196.313 128.793 195.368 131.824 194.814C137.309 196.857 142.933 198.6 148.751 198.948C155.147 199.349 162.102 198.029 167.145 193.825C167.27 193.926 167.395 194.027 167.571 194.065C167.884 194.318 167.959 194.482 167.971 194.595ZM123.571 200.565C127.582 200.077 131.715 200.72 135.785 201.314C139.917 201.957 143.999 202.663 148.21 202.44C151.629 202.302 155.101 201.586 158.348 200.379C158.083 200.579 157.756 200.728 157.491 200.928C154.166 203.002 150.927 205.353 147.302 206.773C145.439 207.545 143.489 208.041 141.452 208.259C139.177 208.389 136.853 208.067 134.618 207.505C130.261 206.371 126.171 204.521 121.699 203.914C119.086 203.565 116.232 203.642 113.753 204.538C116.477 202.185 120.013 201.004 123.571 200.565ZM168.683 195.892C168.62 195.841 168.558 195.791 168.507 195.854C168.394 195.866 168.343 195.928 168.23 195.941C167.614 196.064 166.947 196.25 166.28 196.436C166.973 195.961 167.553 195.498 168.184 194.973C168.384 195.237 168.533 195.565 168.733 195.829C168.796 195.88 168.796 195.88 168.683 195.892ZM110.933 209.19C114.322 207.167 118.745 207.321 122.524 208.404C127.069 209.69 131.119 212.231 135.575 213.755C139.617 215.153 143.839 215.558 147.904 213.977C151.907 212.345 155.123 209.252 157.988 206.083C159.628 204.305 161.206 202.475 162.959 200.685C164.612 199.019 166.414 197.681 168.329 196.331C168.606 196.244 168.77 196.169 169.047 196.082C164.616 197.988 161.834 202.465 159.394 206.39C157.005 210.252 154.601 214.517 150.695 217.054C146.463 219.74 141.273 219.382 136.767 217.92C131.193 216.115 126.367 212.741 120.932 210.635C117.731 209.605 114.278 208.888 110.933 209.19ZM108.682 209.547C109.666 208.582 110.638 207.505 111.684 206.592C115.238 203.978 120.127 204.197 124.296 205.18C128.64 206.201 132.793 208.102 137.215 208.772C141.234 209.428 145.045 208.675 148.759 207.017C152.297 205.321 155.485 203.032 158.811 200.958C159.882 200.271 160.902 199.646 162.035 199.01C162.69 198.71 163.282 198.361 163.937 198.061C164.755 197.687 165.636 197.364 166.517 197.04C164.917 198.128 163.454 199.43 162.167 200.77C160.199 202.698 158.482 204.828 156.577 206.807C153.65 209.926 150.195 212.929 145.968 214.07C141.515 215.235 136.958 213.836 132.879 212.099C128.563 210.273 124.349 207.807 119.638 207.111C115.97 206.532 112.034 207.184 109.147 209.611C108.909 209.522 108.733 209.484 108.682 209.547ZM62.6447 230.115C67.5835 230.271 72.4269 229.007 76.9084 227.038C87.1181 222.45 94.8656 214.121 103.25 206.925C107.234 203.521 111.469 200.319 116.128 197.873C118.407 196.713 120.761 195.716 123.202 194.996C124.863 194.474 126.56 194.292 128.245 193.996C128.484 194.085 128.71 194.061 128.949 194.15C129.011 194.2 129.062 194.137 129.062 194.137C129.238 194.176 129.363 194.277 129.539 194.315C123.25 195.448 117.454 199.562 112.813 203.78C106.924 209.163 101.862 215.315 95.6471 220.332C92.6974 222.71 89.5597 224.935 86.2725 226.833C83.2115 228.707 79.9626 230.43 76.6145 231.762C73.7069 232.933 70.474 233.738 67.3477 232.872C65.4764 232.501 63.8716 231.414 62.6447 230.115Z" fill="#C69247"/>
</svg>
