<svg width="50" height="35" viewBox="0 0 50 35" fill="none" xmlns="http://www.w3.org/2000/svg">
<path d="M37.3935 19.0591C34.4974 19.0591 32.1976 18.2073 30.494 16.5037C28.7337 14.8569 27.8535 12.6139 27.8535 9.77457C27.8535 6.99206 28.7905 4.66385 30.6644 2.78991C32.5383 0.972758 35.2357 0.064181 38.7564 0.0641813C42.3907 0.0641816 45.1732 1.28508 47.1039 3.72687C49.0346 6.22545 50 9.37707 50 13.1817C50 16.816 49.1482 20.0528 47.4446 22.8921C45.7411 25.7882 43.5548 28.23 40.8859 30.2175C38.1601 32.2618 35.3776 33.8234 32.5383 34.9023L30.6644 30.8138C32.7087 30.0755 34.6678 28.9966 36.5417 27.577C38.3589 26.1573 39.8637 24.5105 41.0562 22.6366C42.1919 20.8194 42.7882 18.9455 42.845 17.0148C42.6178 17.4691 42.0216 17.9234 41.0562 18.3776C40.0341 18.8319 38.8132 19.0591 37.3935 19.0591ZM9.54004 19.0591C6.64395 19.0591 4.34413 18.2073 2.64055 16.5037C0.880186 14.8569 -1.86618e-06 12.6139 -1.61796e-06 9.77456C-1.3747e-06 6.99206 0.936969 4.66384 2.8109 2.78991C4.68484 0.972755 7.38217 0.0641786 10.9029 0.0641789C14.5372 0.0641792 17.3197 1.28507 19.2504 3.72687C21.1811 6.22545 22.1465 9.37707 22.1465 13.1817C22.1465 16.816 21.2947 20.0528 19.5911 22.8921C17.8876 25.7882 15.7013 28.23 13.0324 30.2175C10.3066 32.2618 7.52413 33.8234 4.68484 34.9023L2.8109 30.8138C4.85519 30.0755 6.81431 28.9966 8.68824 27.577C10.5054 26.1573 12.0102 24.5105 13.2027 22.6366C14.3384 20.8194 14.9347 18.9455 14.9915 17.0148C14.7643 17.4691 14.1681 17.9234 13.2027 18.3776C12.1806 18.8319 10.9597 19.0591 9.54004 19.0591Z" fill="black"/>
</svg>
