<svg width="217" height="87" viewBox="0 0 217 87" fill="none" xmlns="http://www.w3.org/2000/svg">
<path d="M216.637 42.101C216.637 41.9451 216.637 41.9451 216.637 41.7892C216.637 41.7892 216.637 41.7893 216.637 41.6334C216.637 41.4775 216.637 41.4775 216.481 41.4775C201.671 26.3559 189.668 35.0859 187.953 36.4889C185.614 36.6448 183.432 36.8007 181.405 37.1124C183.12 36.0212 184.679 34.93 186.082 33.8387H186.238H186.394C216.325 27.7589 212.272 0.945459 212.272 0.633674V0.477724C212.272 0.477724 212.272 0.477762 212.272 0.32187L212.116 0.166016H211.96C211.96 0.166016 211.96 0.166016 211.804 0.166016C211.648 0.166016 211.648 0.166016 211.493 0.166016C202.295 4.21922 186.55 15.5993 185.77 32.4357C182.808 34.6182 179.691 36.8007 176.105 38.5155C170.025 42.4128 163.166 45.3748 155.215 47.5573C157.086 45.3748 158.801 42.5687 160.048 39.4508C164.101 38.3596 166.907 34.3064 167.687 30.7209C167.843 30.2532 167.531 29.9415 167.063 29.7856C166.596 29.6297 166.284 29.9414 166.128 30.4091C165.504 33.2152 163.634 36.3331 160.672 37.5802C162.386 32.9034 163.166 27.9149 162.542 23.2381C163.322 22.9263 164.101 22.1469 164.413 21.2115C165.037 19.4967 164.101 17.47 162.231 16.8464C160.516 16.2229 158.489 17.1583 157.866 19.029C157.242 20.7438 158.177 22.7704 160.048 23.3939C160.36 23.5498 160.828 23.5499 161.139 23.5499C162.386 32.4358 157.866 42.8805 152.565 48.3367C144.303 50.3633 134.949 51.4546 124.349 51.7664C123.725 51.7664 123.102 51.7664 122.478 51.7664C133.235 42.5687 137.6 24.6411 136.352 11.702C136.352 11.5461 136.352 11.5461 136.197 11.3902C136.197 11.3902 136.197 11.2343 136.041 11.2343H135.885C135.885 11.2343 135.885 11.2343 135.729 11.2343H135.573C129.337 14.1963 124.037 20.5879 121.075 28.3825C118.113 36.1771 117.645 45.3748 119.672 51.9222C112.657 51.9222 105.642 51.6105 98.7823 51.2987C96.9116 51.1428 94.885 51.1428 93.0143 50.9869C88.0257 50.6751 82.8813 50.3633 77.7368 50.2075C80.5429 48.8044 83.1931 46.6219 85.6874 43.9718C89.2729 43.0364 92.3908 41.6334 95.1968 39.9186C95.3527 39.9186 104.706 36.1772 110.318 40.3862C110.474 40.5421 110.63 40.5421 110.786 40.5421C110.942 40.5421 111.254 40.3862 111.41 40.2303C111.721 39.9185 111.566 39.4509 111.254 39.1391C107.356 36.1772 101.9 36.6448 98.3147 37.4243C101.9 34.1505 104.55 29.9414 106.265 24.6411C106.421 24.6411 106.577 24.6411 106.733 24.6411C108.76 24.6411 110.786 23.394 111.41 21.2115C112.345 18.5613 110.942 15.7553 108.292 14.9758C105.642 14.0404 102.836 15.4435 102.056 18.0936C101.277 20.5879 102.524 23.238 104.862 24.1734C101.9 33.2152 96.288 38.9832 87.558 41.7892C90.0523 38.6714 92.079 34.93 93.482 31.3445C93.6379 31.3445 93.6379 31.3445 93.7937 31.3445C95.3527 31.3445 96.7557 30.4091 97.2234 28.8502C97.847 26.9795 96.9116 24.797 94.885 24.1734C93.9497 23.8616 93.0143 23.8617 92.079 24.3293C91.1436 24.797 90.52 25.5764 90.2082 26.5118C89.5847 28.2266 90.3642 30.0973 91.9231 30.8768C90.3642 35.0858 87.8699 39.1391 84.752 42.5687C81.4783 46.1542 77.8927 48.6485 74.3072 49.8957C69.1627 49.7398 64.0183 49.7398 58.8739 49.8957C58.8739 49.8957 58.8738 49.8957 58.7179 49.8957C58.7179 49.8957 58.718 49.8957 58.5621 49.8957C56.2237 50.0515 53.8853 50.0515 51.5469 50.3633C49.3644 50.5192 47.3379 50.831 45.1554 51.1428C47.182 49.7397 48.8967 47.8691 50.4557 45.5307C54.6648 38.9832 55.912 30.565 53.7295 23.2381C53.7295 23.2381 53.7294 23.0821 53.5735 23.0821C53.5735 23.0821 53.5735 23.0822 53.4177 22.9263C53.4177 22.9263 53.4176 22.9263 53.2617 22.9263H53.1059H52.95H52.794C52.794 22.9263 52.7941 22.9263 52.6382 22.9263C44.9995 26.0441 38.9196 32.7475 36.4253 40.5421C35.49 43.66 34.5546 48.1808 36.1135 52.7017C21.9273 55.8195 9.61182 61.4317 0.258267 69.2264C-0.0535177 69.5381 -0.0534797 70.0058 0.102413 70.3176C0.258305 70.4735 0.414236 70.6293 0.726021 70.6293C0.881913 70.6293 1.03779 70.6294 1.19368 70.4735C13.5092 60.1846 31.4368 53.6371 51.7028 51.9222C53.7294 51.7663 55.9119 51.6105 57.9385 51.6105C57.4708 64.5496 63.8624 73.7472 78.0486 80.6065C78.2045 80.6065 78.2046 80.6065 78.3605 80.6065C78.5163 80.6065 78.5164 80.6065 78.6722 80.4506C78.6722 80.4506 78.6722 80.4506 78.8281 80.4506C78.8281 80.4506 78.8281 80.4506 78.8281 80.2947C78.8281 80.2947 78.8281 80.2947 78.8281 80.1388C78.8281 80.1388 78.8281 79.9829 78.984 79.9829C79.9193 71.097 78.8281 60.0287 61.6799 51.4546C71.9688 51.2987 82.4137 51.7664 92.7026 52.39C94.5733 52.5459 96.444 52.5458 98.3147 52.7017C102.368 53.1694 106.265 55.0402 109.851 57.8462C114.528 62.523 112.033 72.9677 107.98 77.9563C107.98 77.9563 107.824 77.9563 107.824 77.8004C106.733 77.4887 105.642 77.4886 104.55 77.9563C103.459 78.424 102.836 79.3594 102.368 80.4506C101.588 82.6331 102.836 85.1274 105.018 85.9069C105.486 86.0628 105.953 86.0627 106.421 86.0627C108.136 86.0627 109.851 84.9714 110.474 83.1007C110.786 82.0095 110.786 80.9183 110.318 79.827C110.007 79.3593 109.695 78.8917 109.383 78.5799C112.813 74.2149 115.151 66.5761 113.436 60.8081C115.931 63.4583 118.113 66.732 119.672 70.1617C119.048 70.6293 118.425 71.2529 118.269 72.0324C117.645 73.9031 118.581 76.0856 120.607 76.7092C120.919 76.8651 121.387 76.865 121.854 76.865C122.478 76.865 122.946 76.7092 123.413 76.5533C124.349 76.0856 124.972 75.3061 125.284 74.3708C125.596 73.4354 125.596 72.5001 125.128 71.5647C124.661 70.6294 123.881 70.0058 122.946 69.694C122.322 69.5381 121.699 69.5382 121.075 69.5382C118.737 64.3937 115.151 59.7169 110.942 56.4432C109.071 54.8842 107.045 53.6371 104.862 52.8576C110.007 53.0135 115.151 53.1694 120.295 53.1694C120.295 53.1694 120.296 53.1694 120.451 53.1694C121.854 53.1694 123.102 53.1694 124.505 53.1694C128.09 53.0136 131.676 52.8576 134.949 52.5458C134.638 55.3519 134.638 63.1465 146.485 70.1617C154.436 74.8384 160.204 76.0856 164.101 76.0856C168.466 76.0856 170.493 74.5267 170.649 74.3708C170.805 74.2149 170.805 74.2149 170.961 74.059C170.961 73.9031 170.961 73.9031 170.961 73.7472V73.5913C165.816 63.7701 153.189 54.7284 141.653 52.0782C145.706 51.6105 149.603 50.831 153.189 49.8957H153.345C155.683 49.2721 158.021 48.6485 160.204 47.8691C165.816 45.8425 171.584 46.622 175.481 47.7132C178.132 48.4927 180.938 49.5839 183.432 50.5193C184.055 50.6752 184.679 50.9869 185.147 51.1428C187.173 51.9222 190.135 53.9489 191.382 56.2873C192.63 58.4698 192.941 60.9641 191.071 65.329C190.759 65.1731 190.291 65.1731 189.824 65.1731C188.888 65.329 187.953 65.7967 187.329 66.5762C186.706 67.3556 186.394 68.291 186.55 69.2264C186.706 71.0971 188.265 72.5001 190.135 72.5001C190.291 72.5001 190.447 72.5001 190.603 72.5001C191.538 72.3442 192.474 71.8765 193.097 71.0971C193.721 70.3176 194.033 69.3822 193.877 68.4469C193.721 67.3556 193.253 66.5761 192.474 65.9526C193.253 64.0818 193.565 62.523 193.721 61.1199C195.28 63.1465 198.086 65.6408 202.295 65.6408C202.607 65.6408 203.074 65.6408 203.386 65.6408C203.854 65.6408 204.166 65.1732 204.01 64.8614C204.01 64.3937 203.542 64.2378 203.23 64.2378C196.839 65.0172 193.877 58.9374 193.565 58.4697C193.409 57.5344 193.097 56.599 192.63 55.6637C192.162 54.7283 191.538 53.9489 190.759 53.1694C193.565 53.9489 196.215 54.4166 198.709 54.4166C199.489 54.4166 200.112 54.4165 200.736 54.2606C200.736 54.2606 200.736 54.4166 200.892 54.4166C201.36 55.3519 202.139 55.9755 203.074 56.2873C203.542 56.4432 203.854 56.4432 204.322 56.4432C204.945 56.4432 205.413 56.2873 206.036 55.9755C206.972 55.5078 207.595 54.7283 207.907 53.793C208.219 52.8576 208.219 51.7664 207.751 50.8311C207.284 49.8957 206.504 49.2721 205.569 48.9603C203.542 48.3368 201.36 49.428 200.736 51.2987C200.58 51.7664 200.58 52.0782 200.58 52.5458C197.462 52.8576 194.033 52.3899 189.979 50.9869C187.953 50.3633 185.926 49.5838 184.056 48.8044C181.405 47.7131 178.755 46.6219 175.949 45.9983C173.611 45.3748 170.649 44.7512 167.375 44.9071C170.649 43.504 173.923 41.7893 176.885 39.9186C179.223 38.9832 183.432 38.3596 188.109 38.2037C192.006 43.5041 198.086 44.9071 203.698 44.9071C210.245 44.9071 215.858 42.8805 216.325 42.7246C216.481 42.7246 216.481 42.5687 216.637 42.5687C216.481 42.4128 216.637 42.2569 216.637 42.101ZM159.425 20.8997C159.269 20.432 159.113 19.9643 159.269 19.4966C159.424 19.0289 159.736 18.5612 160.204 18.4054C160.516 18.2495 160.828 18.2495 160.983 18.2495C161.139 18.2495 161.451 18.2495 161.607 18.4054C162.075 18.5612 162.542 18.8731 162.698 19.3408C162.854 19.8084 163.01 20.2761 162.854 20.7437C162.698 21.2114 162.386 21.6791 161.919 21.835C161.451 21.9909 160.983 22.1469 160.516 21.991C160.048 21.6792 159.58 21.3674 159.425 20.8997ZM103.147 20.8997C102.68 20.1202 102.68 19.1849 102.991 18.2495C103.303 17.3141 103.927 16.6906 104.706 16.2229C105.174 15.9111 105.642 15.9111 106.265 15.9111C106.577 15.9111 107.045 15.9111 107.356 16.067C108.292 16.3788 108.915 17.0024 109.383 17.7818C109.851 18.5613 109.851 19.4967 109.539 20.432C109.227 21.3674 108.604 21.9909 107.824 22.4586C107.045 22.9263 106.109 22.9263 105.174 22.6145C104.239 22.3027 103.615 21.6792 103.147 20.8997ZM91.1436 26.6677C91.2995 26.0442 91.7671 25.7323 92.2348 25.4205C92.5466 25.2646 92.8584 25.2647 93.1702 25.2647C93.482 25.2647 93.6379 25.2646 93.9497 25.4205C94.5733 25.5764 94.885 26.0441 95.1968 26.5118C95.5086 26.9795 95.5086 27.6031 95.3527 28.2267C95.1968 28.8502 94.7292 29.162 94.2615 29.4738C93.7938 29.7856 93.1702 29.7855 92.5466 29.6296C91.2995 29.162 90.676 27.9149 91.1436 26.6677ZM48.8967 44.4394C47.3378 46.7778 45.4671 48.6486 43.4405 50.0516C41.5698 51.2987 39.6991 51.7663 37.6725 51.9222C42.1933 38.8273 49.8321 28.3825 52.3264 24.9529C54.0412 31.3444 52.6382 38.6714 48.8967 44.4394ZM37.6725 40.6981C39.6991 34.1506 44.3759 28.6943 50.2998 25.2647C47.182 29.4738 40.9462 38.8273 36.7371 50.0516C36.1136 46.622 36.893 43.1923 37.6725 40.6981ZM59.0297 53.3253C61.524 58.0021 67.448 68.1351 74.9308 77.021C64.3301 71.0971 59.3415 63.6142 59.0297 53.3253ZM77.425 77.6445C69.0068 67.9792 62.4594 56.4432 59.9652 52.0782C69.6305 56.5991 78.3604 63.3024 77.425 77.6445ZM108.915 82.4772C108.448 83.8802 106.889 84.6597 105.33 84.192C103.927 83.7243 103.147 82.1654 103.615 80.6065C103.927 79.827 104.394 79.3593 105.018 79.0476C105.33 78.8917 105.797 78.7358 106.265 78.7358C106.577 78.7358 106.889 78.7358 107.201 78.8917C107.98 79.2035 108.448 79.6711 108.759 80.2947C109.071 80.9183 109.227 81.6978 108.915 82.4772ZM122.166 70.9411C122.79 71.097 123.102 71.5647 123.413 72.0324C123.725 72.5001 123.725 73.1236 123.569 73.7472C123.413 74.3708 122.946 74.6826 122.478 74.9944C122.01 75.3062 121.387 75.3061 120.763 75.1502C119.672 74.8385 119.048 73.5913 119.36 72.3442C119.516 71.7206 119.984 71.253 120.607 71.0971C121.231 70.7853 121.699 70.7852 122.166 70.9411ZM121.387 50.3633C125.128 30.565 132.143 18.0936 134.949 13.5727C135.417 26.0441 131.052 42.101 121.387 50.3633ZM122.01 28.5384C124.349 22.3027 128.402 16.8464 133.079 13.7286C129.961 18.7171 123.725 30.7209 120.14 48.9603C118.892 43.0364 119.516 35.2417 122.01 28.5384ZM192.162 70.0058C191.85 70.4735 191.227 70.7853 190.759 70.7853C189.512 70.9412 188.576 70.0058 188.421 68.9146C188.421 68.291 188.576 67.8233 188.888 67.3556C189.2 66.8879 189.824 66.5762 190.291 66.5762C190.447 66.5762 190.447 66.5762 190.603 66.5762C191.694 66.5762 192.63 67.3556 192.785 68.4469C192.63 69.0705 192.474 69.694 192.162 70.0058ZM202.139 51.7664C202.451 50.831 203.386 50.2075 204.322 50.2075C204.633 50.2075 204.789 50.2074 205.101 50.3633C205.725 50.5192 206.192 50.987 206.504 51.6105C206.816 52.2341 206.816 52.8576 206.66 53.4812C206.504 54.1047 206.036 54.5724 205.413 54.8842C204.789 55.196 204.166 55.196 203.542 55.0401C202.919 54.8842 202.451 54.4165 202.139 53.793C201.983 53.0135 201.983 52.3899 202.139 51.7664ZM211.493 39.1391C206.192 37.4243 197.93 36.4889 190.447 36.4889C193.877 34.4623 201.671 31.5004 211.493 39.1391ZM188.732 31.6562C201.204 21.3673 208.375 8.89592 211.025 3.59557C211.337 10.1431 209.466 26.2 188.732 31.6562ZM210.09 2.34845C207.751 7.18112 200.58 20.432 187.173 31.0327C188.265 23.2381 193.877 10.299 210.09 2.34845ZM147.109 68.7587C136.976 62.8348 136.041 56.2873 136.197 53.3253C139.626 57.2226 151.162 68.9146 168.154 73.9031C165.193 74.8385 158.645 75.4621 147.109 68.7587ZM168.622 72.5001C152.253 67.8233 141.029 56.4432 137.444 52.5458C148.668 53.793 162.542 62.6788 168.622 72.5001ZM189.824 38.0479C199.021 37.892 209.622 39.2949 214.143 41.7892C209.934 42.8805 196.683 45.8425 189.824 38.0479Z" fill="#C69247"/>
</svg>
