<svg width="30" height="30" viewBox="0 0 30 30" fill="none" xmlns="http://www.w3.org/2000/svg">
<path d="M26.5205 2.74362C26.3869 2.62903 26.2303 2.54455 26.0612 2.49593C25.8921 2.44731 25.7145 2.4357 25.5405 2.46187L9.61547 4.91187C9.32546 4.95587 9.06087 5.10247 8.86979 5.32502C8.67871 5.54757 8.57384 5.8313 8.57422 6.12462V18.8034C8.00186 18.5238 7.37371 18.3772 6.73672 18.3746C5.88873 18.3746 5.05979 18.6261 4.35471 19.0972C3.64964 19.5683 3.1001 20.2379 2.77559 21.0214C2.45108 21.8048 2.36617 22.6669 2.5316 23.4986C2.69704 24.3303 3.10538 25.0942 3.705 25.6938C4.30462 26.2935 5.06858 26.7018 5.90027 26.8672C6.73196 27.0327 7.59404 26.9478 8.37748 26.6233C9.16091 26.2987 9.83053 25.7492 10.3016 25.0441C10.7728 24.3391 11.0242 23.5101 11.0242 22.6621V13.3031L24.4992 11.2329V16.3534C23.9269 16.0738 23.2987 15.9272 22.6617 15.9246C21.8137 15.9246 20.9848 16.1761 20.2797 16.6472C19.5746 17.1183 19.0251 17.7879 18.7006 18.5714C18.3761 19.3548 18.2912 20.2169 18.4566 21.0486C18.622 21.8803 19.0304 22.6442 19.63 23.2438C20.2296 23.8435 20.9936 24.2518 21.8253 24.4172C22.657 24.5827 23.519 24.4978 24.3025 24.1733C25.0859 23.8487 25.7555 23.2992 26.2266 22.5941C26.6978 21.8891 26.9492 21.0601 26.9492 20.2121V3.67462C26.9492 3.49768 26.9109 3.32284 26.8369 3.16212C26.7629 3.00141 26.6549 2.85863 26.5205 2.74362ZM6.73672 24.4996C6.3733 24.4996 6.01804 24.3919 5.71586 24.1899C5.41369 23.988 5.17817 23.7011 5.03909 23.3653C4.90002 23.0295 4.86363 22.6601 4.93453 22.3036C5.00543 21.9472 5.18043 21.6198 5.43741 21.3628C5.69439 21.1058 6.0218 20.9308 6.37824 20.8599C6.73468 20.789 7.10414 20.8254 7.4399 20.9645C7.77566 21.1036 8.06264 21.3391 8.26455 21.6413C8.46645 21.9434 8.57422 22.2987 8.57422 22.6621C8.57422 23.1495 8.38063 23.6168 8.03603 23.9614C7.69143 24.306 7.22406 24.4996 6.73672 24.4996ZM22.6617 22.0496C22.2983 22.0496 21.943 21.9419 21.6409 21.7399C21.3387 21.538 21.1032 21.2511 20.9641 20.9153C20.825 20.5795 20.7886 20.2101 20.8595 19.8536C20.9304 19.4972 21.1054 19.1698 21.3624 18.9128C21.6194 18.6558 21.9468 18.4808 22.3032 18.4099C22.6597 18.339 23.0291 18.3754 23.3649 18.5145C23.7007 18.6536 23.9876 18.8891 24.1895 19.1913C24.3915 19.4934 24.4992 19.8487 24.4992 20.2121C24.4992 20.6995 24.3056 21.1668 23.961 21.5114C23.6164 21.856 23.1491 22.0496 22.6617 22.0496ZM24.4992 8.74612L11.0242 10.8164V7.14137L24.4992 5.10787V8.74612Z" fill="black"/>
</svg>
