<svg width="169" height="91" viewBox="0 0 169 91" fill="none" xmlns="http://www.w3.org/2000/svg">
<path d="M12.88 46.8319L28.2926 28.0184C28.8232 27.3913 29.2574 26.716 29.5951 25.9924C29.9327 25.2688 30.1739 24.5693 30.3186 23.8939C30.4634 23.2186 30.5116 22.5915 30.4634 22.0126C30.4634 21.4337 30.3428 20.9513 30.1016 20.5654V19.9865H38.5676V20.5654C37.1204 21.3372 35.625 22.4467 34.0813 23.8939C32.5377 25.3411 30.8493 27.1501 29.0162 29.3209L21.129 38.6553L33.5025 61.738C34.8532 64.2464 36.1074 66.1278 37.2652 67.382C38.4229 68.6363 39.7254 69.6493 41.1726 70.4211V71H27.2795V70.4211C27.7619 69.6493 27.8584 68.6845 27.569 67.5267C27.2795 66.369 26.7248 65.0424 25.9047 63.547L15.8467 44.8782L12.88 48.3515V63.547C12.88 64.367 12.9282 65.0906 13.0247 65.7178C13.1212 66.3449 13.29 66.9237 13.5312 67.4544C13.7724 67.9368 14.0619 68.4192 14.3995 68.9016C14.7855 69.384 15.2196 69.8905 15.702 70.4211V71H2.96674V70.4211C3.49738 69.8905 3.93153 69.384 4.26921 68.9016C4.65513 68.4192 4.94457 67.9368 5.13753 67.4544C5.33049 66.9237 5.45109 66.3449 5.49933 65.7178C5.5958 65.0906 5.64404 64.367 5.64404 63.547V27.4396C5.64404 26.6195 5.5958 25.8959 5.49933 25.2688C5.45109 24.6417 5.33049 24.0869 5.13753 23.6045C4.94457 23.0739 4.65513 22.5673 4.26921 22.0849C3.93153 21.6026 3.49738 21.096 2.96674 20.5654V19.9865H15.702V20.5654C15.2196 21.096 14.7855 21.6026 14.3995 22.0849C14.0619 22.5673 13.7724 23.0739 13.5312 23.6045C13.29 24.0869 13.1212 24.6417 13.0247 25.2688C12.9282 25.8959 12.88 26.6195 12.88 27.4396V46.8319ZM46.4153 27.4396C46.4153 26.6195 46.367 25.8959 46.2705 25.2688C46.2223 24.6417 46.1017 24.0869 45.9087 23.6045C45.7158 23.0739 45.4263 22.5673 45.0404 22.0849C44.7027 21.6026 44.2686 21.096 43.7379 20.5654V19.9865H56.4732V20.5654C55.9908 21.096 55.5567 21.6026 55.1708 22.0849C54.8331 22.5673 54.5436 23.0739 54.3024 23.6045C54.0612 24.0869 53.8924 24.6417 53.7959 25.2688C53.6994 25.8959 53.6512 26.6195 53.6512 27.4396V63.547C53.6512 64.367 53.6994 65.0906 53.7959 65.7178C53.8924 66.3449 54.0612 66.9237 54.3024 67.4544C54.5436 67.9368 54.8331 68.4192 55.1708 68.9016C55.5567 69.384 55.9908 69.8905 56.4732 70.4211V71H43.7379V70.4211C44.2686 69.8905 44.7027 69.384 45.0404 68.9016C45.4263 68.4192 45.7158 67.9368 45.9087 67.4544C46.1017 66.9237 46.2223 66.3449 46.2705 65.7178C46.367 65.0906 46.4153 64.367 46.4153 63.547V27.4396ZM81.5334 19.9865H82.257L97.6695 60.8697C98.5861 63.3299 99.4303 65.4524 100.202 67.2373C101.022 68.9739 101.891 70.0352 102.807 70.4211V71H89.4206V70.4211C90.4336 69.8905 91.0125 68.9016 91.1572 67.4544C91.3501 65.959 91.1572 64.4153 90.5783 62.8234L87.2498 53.6337L70.1006 53.4166V52.9825L66.1931 63.2575C65.9037 64.0294 65.759 64.8012 65.759 65.573C65.759 66.3449 65.8555 67.0685 66.0484 67.7438C66.2414 68.3709 66.5067 68.9257 66.8444 69.4081C67.1821 69.8422 67.5439 70.1799 67.9298 70.4211V71H59.319V70.4211C59.8979 69.9387 60.4285 69.5046 60.9109 69.1187C61.4415 68.7327 61.9239 68.2986 62.3581 67.8162C62.8405 67.2855 63.2988 66.6343 63.7329 65.8625C64.1671 65.0906 64.6254 64.1017 65.1078 62.8957L81.5334 19.9865ZM86.888 52.5483L78.7837 30.2616L70.39 52.3312L86.888 52.5483Z" fill="white"/>
<path d="M113.703 57.1312L117.578 66.4004L121.554 55.2317C121.757 54.6577 121.782 54.1343 121.63 53.6615C121.495 53.1719 121.318 52.8089 121.098 52.5725V52.3699H124.036V52.5725C123.529 52.8426 123.082 53.2901 122.694 53.9148C122.322 54.5226 121.976 55.2655 121.655 56.1434L116.615 70.2246H116.362L112.361 60.5755L108.562 70.2246H108.309L102.382 55.9155C102.045 55.0713 101.732 54.3622 101.445 53.7881C101.158 53.2141 100.745 52.8089 100.204 52.5725V52.3699H105.168V52.5725C104.814 52.7582 104.611 53.1128 104.56 53.6362C104.527 54.1427 104.628 54.6745 104.864 55.2317L109.524 66.4004L112.107 59.9676L110.436 55.9155C110.098 55.0713 109.786 54.3622 109.499 53.7881C109.212 53.2141 108.798 52.8089 108.258 52.5725V52.3699H113.222V52.5725C112.867 52.7582 112.665 53.1128 112.614 53.6362C112.58 54.1427 112.681 54.6745 112.918 55.2317L113.475 56.574L114.007 55.2317C114.125 54.9447 114.184 54.6661 114.184 54.396C114.201 54.1258 114.176 53.881 114.108 53.6615C114.057 53.4251 113.973 53.2141 113.855 53.0284C113.754 52.8426 113.652 52.6907 113.551 52.5725V52.3699H116.489V52.5725C115.982 52.8426 115.543 53.2901 115.172 53.9148C114.8 54.5226 114.446 55.2655 114.108 56.1434L113.703 57.1312ZM134.274 63.26H126.043C126.026 63.4288 126.009 63.5977 125.992 63.7665C125.992 63.9185 125.992 64.0873 125.992 64.273C125.992 64.9822 126.102 65.6153 126.322 66.1725C126.558 66.7296 126.862 67.2024 127.233 67.5907C127.622 67.9791 128.061 68.283 128.55 68.5025C129.057 68.7219 129.58 68.8401 130.12 68.857C130.83 68.8908 131.556 68.7642 132.298 68.4771C133.041 68.1732 133.683 67.6245 134.223 66.8309L134.426 67.0082C134.139 67.4303 133.835 67.8355 133.514 68.2239C133.193 68.6122 132.83 68.9583 132.425 69.2622C132.02 69.5493 131.556 69.7856 131.032 69.9714C130.526 70.1402 129.943 70.2246 129.285 70.2246C128.39 70.2246 127.571 70.0811 126.828 69.7941C126.102 69.507 125.477 69.1103 124.954 68.6038C124.447 68.0804 124.051 67.4557 123.764 66.7296C123.477 65.9868 123.333 65.1679 123.333 64.273C123.333 63.3782 123.477 62.5678 123.764 61.8418C124.051 61.0989 124.447 60.4742 124.954 59.9676C125.477 59.4442 126.102 59.039 126.828 58.752C127.571 58.465 128.39 58.3215 129.285 58.3215C129.943 58.3215 130.576 58.4397 131.184 58.676C131.792 58.9124 132.324 59.2501 132.78 59.6891C133.235 60.128 133.598 60.6514 133.869 61.2593C134.139 61.8502 134.274 62.5171 134.274 63.26ZM131.64 62.8295C131.691 62.3905 131.674 61.9346 131.589 61.4619C131.522 60.9722 131.387 60.5248 131.184 60.1196C130.998 59.7144 130.745 59.3767 130.424 59.1066C130.104 58.8364 129.724 58.7014 129.285 58.7014C128.44 58.7014 127.74 59.0728 127.183 59.8157C126.625 60.5586 126.262 61.5632 126.094 62.8295H131.64ZM144.437 69.3382C144.048 69.5746 143.635 69.7856 143.196 69.9714C142.757 70.1402 142.242 70.2246 141.651 70.2246C140.756 70.2246 139.937 70.0811 139.194 69.7941C138.468 69.507 137.843 69.1103 137.32 68.6038C136.814 68.0804 136.417 67.4557 136.13 66.7296C135.843 65.9868 135.699 65.1679 135.699 64.273C135.699 63.3782 135.843 62.5593 136.13 61.8164C136.417 61.0735 136.814 60.432 137.32 59.8917C137.843 59.3514 138.468 58.9377 139.194 58.6507C139.937 58.3468 140.756 58.1948 141.651 58.1948C142.14 58.1948 142.605 58.2539 143.044 58.3721C143.483 58.4734 143.896 58.6169 144.285 58.8027V54.9785C144.285 54.3875 144.2 53.9232 144.031 53.5855C143.863 53.2479 143.559 52.9102 143.12 52.5725V52.3699L146.817 51.8634V67.7427C146.817 67.9622 146.859 68.1648 146.944 68.3505C147.028 68.5193 147.138 68.6713 147.273 68.8064C147.408 68.9414 147.552 69.0512 147.704 69.1356C147.856 69.22 147.991 69.2707 148.109 69.2876V69.4902L144.639 70.2246L144.437 69.3382ZM141.651 69.8447C142.14 69.8447 142.613 69.7434 143.069 69.5408C143.542 69.3213 143.947 69.0174 144.285 68.6291V60.3475C143.964 59.841 143.584 59.4189 143.145 59.0812C142.723 58.7436 142.225 58.5747 141.651 58.5747C141.161 58.5747 140.714 58.7182 140.308 59.0053C139.903 59.2754 139.557 59.6637 139.27 60.1703C138.983 60.6768 138.755 61.2761 138.586 61.9684C138.434 62.6606 138.358 63.4288 138.358 64.273C138.358 65.1003 138.434 65.8601 138.586 66.5524C138.755 67.2446 138.983 67.8355 139.27 68.3252C139.557 68.7979 139.903 69.1694 140.308 69.4395C140.714 69.7097 141.161 69.8447 141.651 69.8447ZM154.337 58.3215C154.979 58.3215 155.629 58.3721 156.287 58.4734C156.946 58.5747 157.562 58.6423 158.136 58.676L158.516 61.5125H158.339C157.849 60.6008 157.292 59.9086 156.667 59.4358C156.042 58.9462 155.266 58.7014 154.337 58.7014C153.729 58.7014 153.197 58.8617 152.742 59.1825C152.303 59.4865 152.066 59.9676 152.032 60.6261C152.015 60.9807 152.066 61.2677 152.184 61.4872C152.303 61.7067 152.454 61.884 152.64 62.019C152.826 62.1372 153.02 62.2301 153.223 62.2976C153.425 62.3652 153.611 62.4158 153.78 62.4496C154.388 62.6015 155.004 62.7619 155.629 62.9308C156.253 63.0996 156.827 63.336 157.351 63.6399C157.874 63.9269 158.296 64.3152 158.617 64.8049C158.955 65.2776 159.124 65.8939 159.124 66.6537C159.124 67.3459 158.963 67.92 158.642 68.3758C158.322 68.8317 157.908 69.2031 157.401 69.4902C156.895 69.7603 156.329 69.9545 155.705 70.0727C155.08 70.174 154.472 70.2246 153.881 70.2246C153.577 70.2246 153.231 70.1824 152.843 70.098C152.454 70.0136 152.083 69.9207 151.728 69.8194C151.374 69.7181 151.053 69.6168 150.766 69.5155C150.496 69.4142 150.319 69.3551 150.234 69.3382H149.981L149.626 66.1725H149.829C150.285 67.3037 150.825 68.1985 151.45 68.857C152.075 69.5155 152.893 69.8447 153.906 69.8447C154.261 69.8447 154.616 69.811 154.97 69.7434C155.325 69.659 155.637 69.5324 155.907 69.3635C156.194 69.1778 156.422 68.9499 156.591 68.6797C156.777 68.3927 156.87 68.055 156.87 67.6667C156.87 67.1771 156.76 66.7803 156.54 66.4764C156.338 66.1725 156.059 65.9277 155.705 65.7419C155.367 65.5562 154.97 65.4043 154.514 65.2861C154.075 65.151 153.619 65.0159 153.147 64.8809C151.813 64.5094 150.893 64.0789 150.386 63.5892C149.88 63.0827 149.626 62.458 149.626 61.7151C149.626 61.0735 149.77 60.5417 150.057 60.1196C150.344 59.6806 150.715 59.3261 151.171 59.0559C151.627 58.7858 152.134 58.6 152.691 58.4987C153.248 58.3806 153.797 58.3215 154.337 58.3215Z" fill="white"/>
<path d="M161.417 68.7051C161.417 68.283 161.561 67.9284 161.848 67.6414C162.152 67.3375 162.515 67.1855 162.937 67.1855C163.359 67.1855 163.714 67.3375 164.001 67.6414C164.305 67.9284 164.456 68.283 164.456 68.7051C164.456 69.1272 164.305 69.4902 164.001 69.7941C163.714 70.0811 163.359 70.2246 162.937 70.2246C162.515 70.2246 162.152 70.0811 161.848 69.7941C161.561 69.4902 161.417 69.1272 161.417 68.7051Z" fill="#A57D24"/>
<g clip-path="url(#clip0_870_1819)">
<mask id="mask0_870_1819" style="mask-type:alpha" maskUnits="userSpaceOnUse" x="95" y="7" width="76" height="45">
<path d="M95.9863 39.6217L99.1028 14.0669L126.527 7.83398L149.589 8.45727L167.664 14.6901L170.781 27.1559L165.795 34.0121L157.692 41.4915L150.212 51.4641H105.336L97.2329 48.971L95.9863 39.6217Z" fill="#D9D9D9"/>
</mask>
<g mask="url(#mask0_870_1819)">
<path d="M98.5782 32.9276C98.8317 31.0138 99.8454 29.4378 101.239 28.3121C102.76 27.2989 104.661 26.9612 106.561 27.2989C106.308 26.8487 106.181 26.3983 106.181 25.9481C106.055 24.4846 106.561 23.1337 107.448 22.2332C108.462 21.22 110.11 20.7697 111.63 20.9949C112.517 21.1074 113.404 21.4452 114.038 21.8954C113.784 19.9817 114.164 18.068 116.192 16.2668C117.586 15.0285 119.74 14.5782 122.021 15.0285C123.542 15.2536 125.062 15.9291 126.329 16.6045C126.709 13.6776 129.37 11.0884 132.665 10.7507C135.96 10.3004 139.254 12.1016 140.522 14.6908C141.155 14.0153 141.662 13.5651 142.422 13.1148C143.69 12.3268 145.21 11.989 146.477 12.3268C147.745 12.6645 148.758 13.4525 149.392 14.6908C149.519 14.9159 149.645 15.2537 149.772 15.4788C151.673 13.9028 154.841 13.6776 157.122 14.8034C159.149 15.9291 160.163 18.068 159.909 20.2069C161.43 19.644 163.457 19.9817 164.851 20.9949C166.499 22.2332 167.386 24.372 167.006 26.5109C166.752 28.1995 165.738 30.0007 164.091 31.6893C162.064 33.8282 159.529 35.5167 157.122 37.2053L156.488 37.6556C153.954 39.3442 151.293 41.258 149.392 43.7346C147.491 46.2112 146.731 49.0255 147.364 51.3895C147.364 51.3895 147.364 51.3895 147.364 51.5021V51.6147C151.293 55.6673 155.981 59.2696 161.557 62.5342C160.67 60.5079 160.036 58.1439 159.783 55.7799C156.868 53.9787 155.601 50.4889 155.854 47.7872C155.854 47.4495 156.235 47.2243 156.615 47.2243C156.995 47.2243 157.248 47.562 157.248 47.8998C156.995 49.9261 157.755 52.5152 159.656 54.2038C159.529 50.6015 160.163 46.774 161.81 43.622C161.303 43.1717 160.923 42.4963 160.923 41.8208C160.923 40.3574 162.19 39.2317 163.838 39.1191C164.598 39.1191 165.358 39.3442 165.865 39.7945C166.372 40.2448 166.752 40.9203 166.752 41.5957C166.752 42.9466 165.612 44.0723 164.091 44.1849C163.964 44.1849 163.964 44.1849 163.838 44.1849C163.584 44.1849 163.204 44.1849 162.951 44.0723C159.656 50.1512 160.67 58.5942 163.584 63.66C169.793 66.9246 177.016 69.8515 185.506 72.4406C186.013 72.5532 186.393 72.6658 186.9 72.8909C180.691 63.8851 181.705 50.0386 186.013 41.1454C186.013 41.0328 186.14 41.0328 186.14 40.9202C186.14 40.9202 186.14 40.9202 186.267 40.9202L186.393 40.8077C186.393 40.8077 186.393 40.8077 186.52 40.8077C186.647 40.8077 186.647 40.8077 186.773 40.8077C186.773 40.8077 186.773 40.8077 186.9 40.8077C187.027 40.8077 187.027 40.8077 187.154 40.9202C191.335 44.5226 194.123 50.2638 194.376 56.4553C194.757 62.6468 192.856 69.2886 189.561 73.5664C195.137 75.1424 200.839 76.4933 206.541 77.8441C208.062 78.1819 209.709 78.5196 211.23 78.9699C215.285 79.8704 219.466 80.771 223.521 81.7842C221.747 80.0956 220.1 78.0693 218.833 75.5927C216.172 74.1292 214.018 72.4406 212.244 70.5269C212.117 70.5269 205.528 65.6863 199.952 67.4874C199.572 67.6 199.192 67.4874 199.065 67.1497C198.938 66.812 199.065 66.4743 199.445 66.3617C203.373 65.1234 207.555 66.5868 210.216 67.9377C208.189 64.7857 207.175 61.2959 207.175 57.1307C205.274 56.793 203.88 55.3296 203.88 53.5284C203.88 52.5152 204.26 51.6147 205.021 50.8267C205.781 50.1512 206.795 49.7009 207.935 49.7009C209.076 49.7009 210.089 50.0386 210.976 50.7141C211.737 51.3895 212.244 52.2901 212.244 53.3033C212.244 54.3164 211.863 55.217 211.103 56.005C210.47 56.6805 209.456 57.0182 208.569 57.1307C208.569 64.2228 211.737 69.5138 217.946 73.4538C216.805 70.6395 216.045 67.7126 215.918 64.7857C214.524 64.448 213.511 63.4348 213.511 62.0839C213.511 61.2959 213.764 60.6205 214.398 60.0576C215.031 59.4948 215.792 59.2696 216.552 59.157C217.439 59.157 218.199 59.3822 218.833 59.9451C219.466 60.5079 219.847 61.1834 219.847 61.8588C219.847 62.6468 219.593 63.3222 218.96 63.8851C218.453 64.3354 217.946 64.5605 217.312 64.6731C217.439 67.9377 218.453 71.5401 220.1 74.6921C221.747 77.9567 224.028 80.5459 226.563 82.2345C230.744 83.2476 234.926 84.4859 238.981 85.7242H239.108C241.008 86.2871 242.782 86.9626 244.683 87.638C246.33 88.2009 247.851 88.8763 249.498 89.5517C248.358 88.0883 247.344 86.3997 246.711 84.4859C244.937 78.8573 246.077 72.4406 249.625 67.8252L249.752 67.7126C249.752 67.7126 249.879 67.7126 249.879 67.6C249.879 67.6 249.879 67.6 250.005 67.6C250.005 67.6 250.005 67.6 250.132 67.6H250.259C250.259 67.6 250.259 67.6 250.385 67.6C250.385 67.6 250.512 67.6 250.512 67.7126C255.961 71.7652 259.129 77.8441 259.256 84.1482C259.256 86.6248 258.749 90.002 256.468 92.9289C267.112 98.3324 275.602 105.199 281.178 112.854C281.431 113.079 281.304 113.53 280.924 113.642C280.798 113.642 280.671 113.755 280.671 113.755C280.417 113.755 280.164 113.642 280.037 113.53C272.688 103.398 260.016 94.6175 244.176 88.8763C242.529 88.3134 240.882 87.7505 239.361 87.1877C236.447 96.5312 228.97 101.71 215.792 103.286C215.665 103.286 215.538 103.286 215.412 103.286C215.412 103.286 215.411 103.286 215.285 103.286C215.285 103.286 215.158 103.286 215.158 103.173C215.158 103.173 215.158 103.173 215.158 103.06V102.948V102.835C215.158 102.723 215.158 102.723 215.158 102.61C216.552 96.0809 220.353 88.426 236.193 86.1745C227.956 83.6979 219.466 81.7842 211.23 79.983C209.709 79.6453 208.189 79.3076 206.541 78.9699C203.12 78.407 199.572 78.7447 195.897 79.983C190.955 82.2345 190.448 90.2271 192.349 94.7301H192.476C194.503 94.7301 196.15 96.0809 196.15 97.8821C196.15 99.5707 194.757 101.034 192.856 101.147C192.729 101.147 192.602 101.147 192.602 101.147C190.575 101.147 188.928 99.7958 188.928 97.9947C188.928 96.6438 189.815 95.5181 191.082 94.9552C189.434 91.1277 189.561 85.2739 192.222 81.559C189.561 82.9099 187.154 84.7111 184.999 86.7374C185.38 87.1877 185.633 87.7505 185.633 88.426C185.633 89.8894 184.366 91.1277 182.845 91.2403C182.718 91.2403 182.718 91.2403 182.592 91.2403C181.705 91.2403 180.944 91.0152 180.311 90.4523C179.677 89.8894 179.297 89.214 179.297 88.5386C179.297 87.7505 179.551 87.0751 180.184 86.5123C180.818 85.9494 181.578 85.7242 182.338 85.6117C182.845 85.6117 183.352 85.7242 183.859 85.9494C187.154 82.7974 191.209 80.3207 195.39 78.8573C197.291 78.1818 199.065 77.8441 200.966 77.619C196.784 76.6058 192.602 75.5927 188.547 74.3544C187.534 74.0167 186.393 73.7915 185.38 73.4538C182.465 72.5532 179.677 71.6526 177.143 70.6395C176.636 72.7784 174.102 78.7447 163.331 80.6585C161.557 80.9962 159.909 81.2213 158.389 81.3339C146.097 82.4596 142.803 78.407 142.676 78.1819C142.676 78.1819 142.676 78.1818 142.676 78.0693C142.676 78.0693 142.676 78.0693 142.676 77.9567V77.8441C142.676 77.7316 142.676 77.7316 142.803 77.619C142.803 77.619 142.803 77.5064 142.929 77.5064C149.519 71.6526 161.937 68.0503 171.821 68.6132C168.78 67.3749 165.992 66.024 163.331 64.5605C163.331 64.5605 163.331 64.5605 163.204 64.5605C161.43 63.5474 159.656 62.5342 158.009 61.5211C153.954 58.8193 149.138 58.1439 145.717 58.0313C143.309 57.9187 140.902 58.1439 138.621 58.2565C138.114 58.2565 137.607 58.369 136.974 58.369C135.073 58.369 132.285 59.2696 130.638 60.6205C130.384 61.5211 131.018 66.2491 133.806 70.0766C134.693 71.4275 135.58 73.3412 134.946 74.6921C134.693 75.255 134.059 75.9304 132.792 76.2681C132.665 76.2681 132.538 76.2681 132.412 76.3807C131.398 76.4933 130.511 76.043 129.877 75.3675C129.877 75.4801 129.751 75.5927 129.624 75.5927C128.99 76.3807 127.85 76.7184 126.709 76.7184C125.696 76.6058 124.809 76.1555 124.048 75.255C123.415 74.4669 123.161 73.3412 123.035 72.4406C122.401 72.7784 121.641 73.0035 121.007 73.0035C119.867 73.1161 118.853 72.6658 118.346 71.7652C117.332 70.1892 118.219 67.9377 119.36 66.4743C120.5 64.8983 124.935 60.1702 130.131 59.6073C130.638 59.157 131.271 58.8193 132.032 58.4816C128.864 58.369 126.203 57.9187 123.922 57.0182L123.795 57.1307C123.288 57.581 122.528 57.9187 121.768 58.0313C121.641 58.0313 121.641 58.0313 121.514 58.0313C119.74 58.0313 118.219 56.793 118.093 55.217C118.093 54.429 118.346 53.641 118.98 53.0781C119.613 52.5152 120.374 52.1775 121.261 52.1775C123.035 52.1775 124.555 53.4158 124.682 54.9918C124.682 55.3296 124.682 55.5547 124.555 55.8924C126.963 56.793 129.877 57.2433 133.425 57.2433C135.2 57.2433 137.1 57.1307 138.874 57.0182C141.282 56.9056 143.69 56.6804 146.224 56.793C148.251 56.9056 150.659 57.1307 153.193 57.8062C150.912 56.005 148.885 54.2038 147.111 52.2901C142.422 50.0387 137.227 49.2506 132.285 48.6878C129.624 48.3501 126.963 48.35 124.429 48.2375C122.528 48.1249 120.5 48.1249 118.6 48.0123C112.771 47.562 108.589 46.4363 105.168 44.2974C100.352 41.258 97.9446 36.8676 98.5782 32.9276ZM164.218 42.7214C165.105 42.7214 165.738 42.046 165.738 41.258C165.738 40.9202 165.612 40.5825 165.231 40.2448C164.978 40.0197 164.471 39.7945 164.091 39.9071H163.964C163.204 40.0197 162.57 40.5825 162.57 41.3705C162.697 42.1586 163.331 42.7214 164.218 42.7214ZM211.483 53.1907C211.483 52.5153 211.103 51.8398 210.596 51.3895C210.089 50.9392 209.329 50.7141 208.569 50.7141C208.442 50.7141 208.442 50.7141 208.315 50.7141C207.682 50.8266 207.048 51.0518 206.541 51.5021C206.034 51.9524 205.781 52.6278 205.781 53.3033C205.781 53.9787 206.161 54.6541 206.668 55.1044C207.175 55.5547 207.935 55.7799 208.695 55.7799C209.456 55.7799 210.216 55.4421 210.723 54.9918C211.23 54.429 211.483 53.8661 211.483 53.1907ZM218.833 61.8588C218.833 61.4085 218.579 61.0708 218.326 60.7331C217.946 60.3953 217.566 60.2828 217.059 60.2828H216.932C216.552 60.2828 216.172 60.5079 215.792 60.7331C215.411 61.0708 215.285 61.4085 215.285 61.8588C215.285 62.7594 216.172 63.4348 217.186 63.4348C217.692 63.4348 218.073 63.2097 218.453 62.9845C218.706 62.7594 218.833 62.3091 218.833 61.8588ZM248.358 84.0356C248.992 86.062 250.005 87.8631 251.272 89.214C252.413 90.4523 253.807 91.2403 255.327 91.8032C254.947 81.559 251.653 72.4406 250.385 69.4012C247.598 73.6789 246.837 79.195 248.358 84.0356ZM252.286 70.3018C253.68 74.1292 256.341 81.8968 256.848 90.79C258.115 88.426 258.495 85.9494 258.495 84.0356C258.369 78.9699 256.088 74.0167 252.286 70.3018ZM237.84 88.3134C234.546 91.1277 227.45 96.8689 219.34 101.484C229.224 99.6833 235.053 95.5181 237.84 88.3134ZM217.059 101.372C226.056 96.4186 234.166 89.7769 237.334 87.0751C228.59 88.2009 219.973 91.0152 217.059 101.372ZM190.448 97.7695C190.448 98.8953 191.589 99.7958 192.856 99.7958C194.123 99.7958 195.137 98.7827 195.137 97.657C195.137 96.5312 193.996 95.6306 192.729 95.6306C191.462 95.6306 190.448 96.6438 190.448 97.7695ZM182.592 86.6248H182.465C182.085 86.6248 181.705 86.85 181.325 87.0751C180.944 87.4128 180.818 87.7506 180.818 88.2009C180.818 88.6511 181.071 88.9889 181.325 89.3266C181.705 89.6643 182.085 89.7769 182.592 89.7769C183.099 89.7769 183.479 89.5517 183.859 89.3266C184.239 88.9889 184.366 88.6511 184.366 88.2009C184.366 87.7506 184.112 87.4128 183.859 87.0751C183.479 86.7374 183.099 86.6248 182.592 86.6248ZM188.547 71.9903C190.448 57.2433 188.167 46.774 187.027 42.9466C183.352 51.5021 182.845 63.7725 188.547 71.9903ZM188.547 43.2843C189.688 47.6746 191.715 57.4684 190.068 71.0898C192.476 67.0371 193.87 61.4085 193.616 56.2302C193.236 51.277 191.462 46.6615 188.547 43.2843ZM121.134 53.0781H121.007C119.993 53.1907 119.233 53.9787 119.233 54.8793C119.233 55.7799 120.12 56.5679 121.261 56.5679C121.767 56.5679 122.274 56.3427 122.655 56.005C123.035 55.6673 123.161 55.217 123.161 54.7667C123.035 53.8661 122.148 53.0781 121.134 53.0781ZM120.247 66.9246C119.36 68.1629 118.726 69.964 119.36 70.9772C119.613 71.4275 120.12 71.6526 120.754 71.6526C121.641 71.6526 122.781 70.9772 123.035 70.3018C123.161 69.964 123.542 69.8515 123.922 69.964C124.302 70.0766 124.429 70.4143 124.429 70.6395C124.175 71.3149 124.048 73.2286 124.935 74.3544C125.442 75.0298 125.949 75.255 126.583 75.3675C127.343 75.3675 127.977 75.1424 128.357 74.6921C128.61 74.3544 128.737 74.0167 128.61 73.5664C128.484 73.2286 128.737 72.8909 128.99 72.7784C129.371 72.6658 129.751 72.8909 129.877 73.1161C130.258 74.0167 131.145 75.1424 132.285 74.9172C132.919 74.8047 133.299 74.467 133.552 74.0167C133.932 73.1161 133.425 71.54 132.538 70.4143C130.384 67.3749 129.497 63.9977 129.244 61.8588C128.357 63.3222 128.103 65.4611 128.864 69.4012C128.864 69.7389 128.61 70.0766 128.357 70.0766C127.977 70.0766 127.723 69.8515 127.596 69.6263C127.09 66.5868 126.963 64.3354 127.596 62.6468C126.963 63.4348 126.329 64.5605 125.949 66.024C125.949 66.2491 125.696 66.4743 125.316 66.4743C125.189 66.4743 125.189 66.4743 125.062 66.4743C124.682 66.3617 124.429 66.1366 124.555 65.7988C125.062 63.8851 125.949 62.4217 126.836 61.5211C123.668 62.9845 121.134 65.7988 120.247 66.9246ZM148.505 14.9159C147.998 14.0153 147.238 13.4525 146.477 13.2273C145.59 13.0022 144.45 13.2273 143.563 13.7902C142.676 14.3531 141.916 15.1411 141.155 16.0417C141.029 16.2668 140.775 16.2668 140.522 16.2668C140.268 16.2668 140.015 16.0416 140.015 15.8165C139.381 13.2273 136.213 11.3136 133.172 11.6513C130.258 11.989 127.723 14.6908 127.85 17.28C127.85 17.5051 127.723 17.7302 127.47 17.8428C127.216 17.9554 126.963 17.9554 126.836 17.8428C125.316 17.0548 123.668 16.2668 122.021 15.9291C120.627 15.7039 118.6 15.8165 117.459 16.8297C114.671 19.3063 115.558 22.1206 116.826 25.0475C119.993 32.3647 130.764 40.1322 138.621 45.198C131.525 38.1059 129.877 31.5767 129.751 31.239C129.624 30.9013 129.877 30.5635 130.258 30.5635C130.638 30.451 131.018 30.6761 131.018 31.0138C131.018 31.1264 133.425 40.0197 143.69 48.1249C138.367 39.5694 140.141 27.8618 140.268 27.2989C140.268 26.9612 140.648 26.7361 141.029 26.7361C141.409 26.7361 141.662 27.0738 141.662 27.4115C141.662 27.5241 140.015 38.5562 144.577 46.774C144.45 46.3237 144.323 45.8735 144.323 45.5357C143.563 41.0328 144.577 36.8676 145.844 33.0401C146.097 32.1396 146.477 31.239 146.731 30.3384C148.125 26.2858 149.519 22.008 149.265 17.6177C149.012 16.9422 149.012 15.8165 148.505 14.9159ZM155.854 36.4173L156.488 35.967C158.896 34.391 161.303 32.7024 163.204 30.6761C164.725 29.1001 165.485 27.5241 165.738 26.0606C165.992 24.2595 165.358 22.5709 164.091 21.5577C162.697 20.5446 160.416 20.5446 159.402 21.6703C159.149 21.8954 158.769 21.8954 158.515 21.7829C158.262 21.5577 158.135 21.3326 158.262 20.9949C159.276 19.0811 158.515 16.6045 156.488 15.5914C154.461 14.4656 151.673 15.0285 150.279 16.6045C150.279 16.9422 150.406 17.28 150.406 17.6177C150.659 22.2332 149.265 26.5109 147.745 30.7887C147.491 31.6893 147.111 32.5899 146.857 33.4904C145.717 37.2054 144.703 41.258 145.464 45.5357C145.464 45.6483 145.464 45.8735 145.59 46.0986C145.717 36.4173 153.954 30.9013 154.08 30.9013C154.334 30.6761 154.841 30.7887 154.967 31.0138C155.221 31.239 155.094 31.6893 154.841 31.8019C154.461 32.027 147.238 36.8676 146.857 45.5357C147.238 44.6352 147.745 43.7346 148.378 42.834C150.532 40.2448 153.32 38.2185 155.854 36.4173ZM163.204 79.3076C172.328 77.7316 174.989 73.2286 175.749 70.9772C172.454 72.7783 163.077 77.0561 151.419 78.1819C149.519 78.407 147.491 78.407 145.464 78.407C147.491 79.5327 152.686 81.1087 163.204 79.3076ZM144.957 77.0561C159.149 77.3938 170.934 71.8778 174.862 69.8515C165.612 68.388 152.306 71.5401 144.957 77.0561ZM105.421 42.9466C108.589 44.8603 112.644 45.986 118.093 46.4363C119.993 46.5489 122.021 46.6615 123.922 46.6615C126.583 46.774 129.244 46.774 131.905 47.1118C135.073 47.4495 138.621 48.0123 142.042 48.9129C141.789 48.8004 141.535 48.5752 141.282 48.4626C130.638 43.0591 119.233 43.2843 119.233 43.2843C118.853 43.2843 118.6 43.0591 118.6 42.7214C118.6 42.3837 118.853 42.1586 119.233 42.1586C119.613 42.1586 126.963 42.046 135.453 44.8603C127.85 39.6819 118.473 32.4773 115.432 25.6104C115.305 25.2726 115.178 24.9349 114.925 24.5972C114.164 23.2463 112.897 22.3457 111.503 22.1206C110.363 22.008 109.223 22.3457 108.462 23.0212C107.702 23.6966 107.322 24.7098 107.448 25.8355C107.575 26.8486 108.082 27.7492 108.842 28.3121C108.969 28.3121 108.969 28.4247 109.096 28.4247C109.349 28.6498 109.476 28.9875 109.222 29.2127C108.969 29.4378 108.589 29.5504 108.335 29.3252C108.209 29.3252 108.209 29.2127 108.082 29.1001C106.308 27.9744 103.774 28.0869 102.126 29.2127C100.986 30.0007 100.099 31.3516 99.8454 33.0401C99.3385 36.6425 101.493 40.5825 105.421 42.9466Z" fill="#C69247"/>
</g>
</g>
<defs>
<clipPath id="clip0_870_1819">
<rect x="92.2461" y="9.08203" width="76.0411" height="42.3836" rx="12.4658" fill="white"/>
</clipPath>
</defs>
</svg>
